<svg xmlns="http://www.w3.org/2000/svg" width="100" height="100" viewBox="0 0 100 100">
    <path d="M20.547 37.289l7.754 4.477 21.697 12.527 29.248-16.998-29.45-17.004zM51.24 56.634L51.353 65H80v.087l.342-25.397z"/>
    <path d="M50 5.886c-27.614 0-50 22.34-50 49.954C0 58.985.294 62 .849 65H16v.087l.249-27.798c0-.029.089-.059.091-.087.002-.031.045-.062.049-.093.004-.029.032-.058.038-.086.006-.03.021-.062.029-.091.008-.028.024-.055.033-.083l.032-.086c.012-.027.027-.053.04-.079.013-.026.026-.055.041-.081.015-.025.033-.05.05-.074.017-.024.032-.05.05-.073.019-.024.041-.047.061-.07.019-.021.036-.044.057-.064.023-.023.049-.044.074-.065.021-.018.04-.037.062-.054.026-.021.056-.038.084-.057.022-.015.042.016.065.003l.004.044L49.1 17.554c.427-.248.954-.272 1.382-.025L82.685 36.11c.053.03.104.059.152.096l.039.032c.033.027.066.053.096.083.017.016.03.033.046.051.024.027.05.054.072.083.016.021.028.043.043.064.02.028.039.055.056.084.014.023.024.049.037.073.014.028.03.057.042.087.011.025.019.052.027.078.01.03.022.06.031.092.007.026.011.054.016.081.007.031.015.062.02.096.004.028-.184.058-.182.086.003.031-.18.062-.18.093v.006L83.295 65h15.856c.555-3 .849-6.015.849-9.16 0-27.614-22.386-49.954-50-49.954z"/>
    <path d="M42.09 52.996L19.094 39.631 19.096 65H48v.087l.321-8.407zm39.816 15.448c-.677 0-1.226.598-1.229 1.275 0 .677.545 1.28 1.223 1.28h.006c.674 0 1.222-.598 1.222-1.274.003-.677-.545-1.278-1.222-1.281zm-.015 4.628c-.321 0-.64.129-.866.358a1.228 1.228 0 0 0-.358.867 1.229 1.229 0 0 0 1.224 1.224 1.23 1.23 0 0 0 1.225-1.224c0-.325-.132-.641-.358-.867a1.236 1.236 0 0 0-.867-.358zm-4.616 2.49a1.225 1.225 0 0 0 .618 2.285c.208 0 .42-.056.612-.169a1.225 1.225 0 1 0-1.23-2.116zm-4 2.322a1.221 1.221 0 0 0-.441 1.676 1.22 1.22 0 0 0 1.672.444 1.227 1.227 0 0 0-1.231-2.12zM53.277 89.508a1.222 1.222 0 0 0-.444 1.672c.23.392.641.613 1.063.613.208 0 .419-.056.612-.169a1.223 1.223 0 1 0-1.231-2.116zm4-2.325a1.227 1.227 0 0 0-.444 1.676c.23.389.641.609 1.063.609a1.225 1.225 0 1 0-.619-2.285zm4-2.325a1.224 1.224 0 0 0 .617 2.284 1.226 1.226 0 1 0-.617-2.284zm7.997-4.649a1.228 1.228 0 0 0 .62 2.284 1.222 1.222 0 0 0 1.056-1.84 1.225 1.225 0 0 0-1.676-.444zm-3.997 2.324a1.226 1.226 0 1 0 1.234 2.12 1.226 1.226 0 0 0-1.234-2.12zm-15.339-4.744zm-.027 9.25zm-1.106-7.551zm-.121 8.773zm0 0zm.051-18.502zm1.216 3.402c-.593 0-1.088.417-1.203.976a3.76 3.76 0 0 0-.025.441c-.003.676.546 1.422 1.222 1.422h.003c.674 0 1.222-.739 1.225-1.413 0-.085-.008-.265-.024-.345-.114-.558-.606-1.078-1.198-1.081zm-.027 9.253c-.677-.003-1.226.612-1.229 1.29 0 .676.546 1.296 1.223 1.296h.003c.677 0 1.225-.612 1.225-1.29.002-.678-.545-1.293-1.222-1.296zm.014-4.625a1.224 1.224 0 0 0-1.23 1.218c0 .171.034.212.097.36.185.441.618.633 1.125.633h.006c.59 0 1.083-.3 1.197-.856.017-.08.025-.103.025-.187.003-.676-.546-1.168-1.22-1.168zm.025-9.253a1.23 1.23 0 0 0-1.228 1.229A1.23 1.23 0 0 0 49.957 71h.003a1.23 1.23 0 0 0 1.226-1.229 1.231 1.231 0 0 0-1.223-1.235zm-.052 18.503a1.214 1.214 0 0 0-.867.356c-.222.221-.359.783-.36 1.121-.004.677.545 1.484 1.221 1.484h.003c.674 0 1.223-.801 1.226-1.478 0-.676-.546-1.48-1.223-1.483zm-.017 4.628a1.22 1.22 0 0 0-1.222 1.224 1.22 1.22 0 0 0 1.222 1.222 1.225 1.225 0 0 0 1.227-1.222 1.225 1.225 0 0 0-1.227-1.224zm-3.413-2.163a1.225 1.225 0 1 0 .45 1.676 1.228 1.228 0 0 0-.45-1.676zm-20.126-11.62a1.223 1.223 0 0 0-1.672.45 1.223 1.223 0 0 0 1.059 1.838c.423 0 .833-.221 1.063-.612a1.228 1.228 0 0 0-.45-1.676zM22.33 75.56a1.222 1.222 0 0 0-1.672.45 1.222 1.222 0 0 0 .447 1.672 1.227 1.227 0 0 0 1.225-2.122zm16.102 9.298a1.225 1.225 0 0 0-1.675.446 1.227 1.227 0 0 0 1.059 1.838 1.224 1.224 0 0 0 .616-2.284zm-4.025-2.325a1.226 1.226 0 1 0-1.228 2.121 1.226 1.226 0 0 0 1.228-2.121zm8.05 4.647a1.223 1.223 0 0 0-1.672.45 1.222 1.222 0 0 0 .447 1.672c.193.113.404.166.612.166a1.227 1.227 0 0 0 .613-2.288zm-12.078-6.971a1.223 1.223 0 0 0-1.672.447 1.228 1.228 0 0 0 1.06 1.84 1.226 1.226 0 0 0 .612-2.287zm-12.686-7.137c-.325 0-.64.132-.867.358a1.233 1.233 0 0 0-.358.867c0 .321.129.637.358.866.227.227.542.358.867.358.322 0 .637-.132.867-.358.227-.229.358-.545.358-.866 0-.322-.132-.638-.358-.867a1.248 1.248 0 0 0-.867-.358zm.015-4.625c-.677-.003-1.229.597-1.229 1.273-.002.677.546 1.28 1.223 1.28h.003c.674 0 1.222-.6 1.225-1.273.004-.677-.545-1.28-1.222-1.28zM97.318 67H2.37c-.254 0-.459.246-.459.5s.205.5.459.5h94.949c.254 0 .46-.246.46-.5s-.207-.5-.461-.5z"/>
</svg>
