<svg xmlns="http://www.w3.org/2000/svg" width="513.934" height="544.401">
    <path d="M146.662 485.425C88.182 452.99 39.465 424.677 38.4 422.511c-1.066-2.166-4.784-30.167-8.264-62.223-6.31-58.126-12.578-113.064-23.61-206.912-3.202-27.248-6.105-52.69-6.45-56.539-.535-5.962 1.526-7.75 13.943-12.098 8.014-2.806 51.946-18.47 97.627-34.808 45.68-16.339 96.405-34.257 112.721-39.819L254.032 0l72.334 24.7c39.783 13.586 98.26 33.513 129.95 44.283l57.618 19.581-1.573 9.092c-.865 5-10.077 77.286-20.471 160.633-10.394 83.347-19.591 154.863-20.438 158.923-1.297 6.22-15.86 15.286-92.517 57.597-50.037 27.618-98.846 54.575-108.463 59.903l-17.485 9.689-106.325-58.976zm23.272-110.742l16.025-39.519 70.62-.552 70.621-.553 16.956 39.343 16.955 39.342 28.266.834c15.545.459 28.265-.053 28.265-1.136 0-1.084-36.064-79.261-80.142-173.727-44.078-94.467-80.142-172.968-80.142-174.447 0-1.48-1.967-2.69-4.371-2.69-2.404 0-4.371 1.142-4.371 2.538 0 2.558-31.333 72.892-111.08 249.348C113.678 366.25 94.16 410.51 94.16 411.82c0 1.31 13.443 2.381 29.873 2.381h29.874l16.026-39.518zm39.053-93.08c10.16-25.05 42.849-101.819 43.731-102.701 1.364-1.364 51.268 100.668 51.268 104.82 0 1.637-19.33 2.348-48.09 1.767-30.533-.617-47.659-2.036-46.909-3.886z" fill="gray"/>
</svg>
