<svg xmlns="http://www.w3.org/2000/svg" height="96.628" width="96.628" version="1.0" viewBox="0 0 96.628 96.628">
    <path d="M0 96.604c0-.017 1.325-2.417 2.944-5.334C17.675 64.73 26.085 49.031 32.65 35.82l2.587-5.207.6.482c2.52 2.026 6.003 4.13 9.578 5.789 1.246.578 3.22 1.445 3.289 1.445.02 0-.25-.205-.6-.455-1.945-1.393-4.156-3.163-6.151-4.925-1.32-1.166-5.315-5.114-5.315-5.253 0-.045.403-.96.895-2.032 2.624-5.717 4.282-9.641 8.574-20.288C47.3 2.421 48.292.003 48.314.003c.022 0 .762 1.712 1.644 3.804 6.778 16.077 9.547 22.12 15.983 34.884 4.59 9.104 9.271 18.054 16.761 32.049 1.233 2.303 2.267 4.254 2.298 4.337.044.117-.075.076-.54-.188-2.014-1.143-5.292-2.572-7.923-3.453-1.263-.423-4.313-1.322-4.352-1.283-.013.013.508.31 1.158.66a73.277 73.277 0 0 1 7.977 5.04c.637.465 2.502 1.922 4.144 3.238l2.985 2.392 1.363 2.52c.75 1.385 2.59 4.781 4.09 7.545 1.499 2.765 2.715 5.037 2.702 5.05-.013.013-.312-.142-.664-.343-14.169-8.1-23.96-12.534-32.968-14.929-1.18-.313-3.967-.964-4.131-.964-.018 0 .032-.335.111-.745.338-1.742.43-2.848.43-5.214 0-1.737-.036-2.568-.145-3.422-.869-6.761-3.837-12.031-7.83-13.903-3.867-1.812-8.036-.025-10.795 4.627-2.786 4.698-3.748 11.46-2.516 17.678.091.457.147.85.125.873-.023.022-.624.162-1.338.312-9.372 1.96-20.266 6.626-34.87 14.934C.134 96.572 0 96.645 0 96.604z"/>
    <path d="M.086 96.453c.054-.103 1.566-2.833 3.359-6.066 14.447-26.051 22.457-41.01 29.042-54.237l2.748-5.52.963.755c2.166 1.697 5.014 3.442 8.05 4.93 1.62.796 4.31 2.014 4.444 2.014.031 0-.105-.116-.302-.258-4.02-2.899-7.467-5.88-10.672-9.228l-1.103-1.152.283-.62c3.182-6.962 4.588-10.244 8.005-18.697C47.894.978 48.263.081 48.316.081c.029 0 .462.969.963 2.154 3.961 9.367 5.83 13.706 7.591 17.614 5.369 11.919 12.564 26.105 25.6 50.472 1.37 2.56 2.512 4.712 2.54 4.783.033.086-.121.03-.468-.171-1.021-.594-3.925-1.977-5.242-2.497-2.108-.831-7-2.398-7.118-2.28-.017.017.268.188.632.38 3.37 1.773 6.953 4.09 10.085 6.518a312.28 312.28 0 0 1 3.22 2.573l2.336 1.885 3.648 6.732a9213.99 9213.99 0 0 1 4.102 7.575l.453.842-.357-.209a428.397 428.397 0 0 0-6.477-3.626c-12.34-6.723-21.598-10.49-30.338-12.343-.343-.072-.624-.169-.624-.214 0-.045.072-.505.16-1.021.261-1.532.33-2.293.379-4.16.07-2.726-.17-4.997-.795-7.489-1.088-4.344-3.196-7.868-5.813-9.715-3.208-2.265-6.843-1.96-9.824.824-4.425 4.132-6.46 12.788-4.872 20.717.088.437.145.81.127.827-.018.018-.54.14-1.162.27-9.51 1.991-20.288 6.582-34.687 14.774-2.639 1.501-2.409 1.385-2.289 1.157z"/>
    <path d="M.018 96.58c.196-.335 7.97-14.388 9.877-17.853 10.763-19.56 18.587-34.328 23.49-44.342.987-2.014 1.823-3.671 1.86-3.682.035-.011.427.27.87.626 1.064.855 3.488 2.475 4.992 3.338a72.386 72.386 0 0 0 3.14 1.648c2.049 1.012 4.727 2.193 4.389 1.934-.11-.085-.8-.596-1.53-1.137-3.363-2.488-5.632-4.49-9.334-8.232l-1.162-1.175.345-.747c2.963-6.43 4.695-10.505 9.188-21.623C47.311 2.445 48.287.08 48.313.08c.025 0 1.148 2.6 2.494 5.777 3.44 8.118 5.068 11.853 7.153 16.407 5.052 11.033 12.48 25.597 24.628 48.29 1.344 2.512 2.444 4.59 2.444 4.617 0 .027-.117-.023-.261-.11-1.82-1.118-4.968-2.519-7.953-3.54-1.554-.53-4.578-1.424-4.635-1.367-.02.02.419.278.974.574 4.299 2.297 7.388 4.411 12.718 8.704l2.574 2.072 1.682 3.113c1.724 3.19 6.405 11.831 6.48 11.962.023.04.009.054-.031.03l-1.764-1.007c-14.701-8.388-25.338-12.963-34.985-15.05-.508-.11-.937-.213-.954-.23-.016-.016.044-.459.135-.982.317-1.824.374-2.59.373-5.018-.001-1.833-.035-2.624-.147-3.463-1.182-8.808-5.843-14.793-11.271-14.469-4.409.264-8.208 4.731-9.754 11.471-.524 2.285-.765 5.256-.618 7.615.09 1.451.29 3.013.53 4.146.068.324.124.602.124.618 0 .016-.209.07-.464.121C27.565 82.395 16.121 87.323.048 96.61c-.04.023-.054.009-.03-.031z"/>
    <path d="M.08 96.51c0-.02 1.644-3 3.653-6.623 14.618-26.357 23.984-43.89 29.853-55.886.877-1.793 1.613-3.279 1.636-3.301.022-.022.359.213.748.522 2.299 1.827 5.002 3.491 8.398 5.169 1.318.651 3.805 1.777 4.389 1.987.088.032-.274-.256-.805-.64-3.42-2.467-6.134-4.803-9.454-8.133l-1.884-1.89.973-2.121c2.589-5.65 4.183-9.42 8.476-20.038C47.18 2.788 48.136.424 48.183.302c.047-.122.105-.221.129-.221.024 0 .583 1.277 1.243 2.838 3.73 8.827 6.319 14.803 8.1 18.701 5.231 11.454 12.765 26.233 25.298 49.633 1.148 2.142 2.076 3.904 2.063 3.915-.013.011-.495-.246-1.07-.572-1.866-1.057-4.315-2.115-7.087-3.062-1.726-.59-4.53-1.418-4.656-1.376-.047.015.33.248.837.516 3.966 2.102 7.515 4.483 11.67 7.831l2.617 2.108c.532.427 1.024.845 1.095.927.07.083.9 1.582 1.844 3.331.943 1.75 2.744 5.078 4.002 7.397 1.259 2.319 2.273 4.232 2.254 4.25-.018.02-.356-.152-.749-.38-6.888-3.985-14.562-7.928-20.121-10.34-5.779-2.506-11.566-4.404-16.327-5.355-.52-.104-.511-.08-.348-.86.32-1.536.409-2.683.407-5.26-.003-2.703-.071-3.487-.481-5.52-.84-4.16-2.647-7.787-4.983-9.998-1.158-1.096-2.395-1.834-3.688-2.199-.769-.217-2.125-.293-2.926-.164-4.597.741-8.39 6.115-9.466 13.41-.466 3.155-.361 6.724.285 9.777.07.328.115.608.1.622-.014.015-.495.12-1.068.236-2.494.501-6.504 1.628-9.296 2.613-7.373 2.6-15.771 6.631-26.027 12.493-1.618.925-1.753.996-1.753.917z"/>
    <path d="M.08 96.517c0-.017 1.626-2.961 3.612-6.543C17.75 64.63 25.985 49.254 32.35 36.477c1.577-3.167 2.876-5.77 2.888-5.785.01-.015.466.322 1.012.75 1.213.949 3.108 2.222 4.617 3.1 1.866 1.089 6.49 3.335 7.89 3.835.09.032-.315-.29-.898-.714a79.495 79.495 0 0 1-6.102-4.92c-1.012-.908-4.727-4.571-4.961-4.893l-.155-.212.452-.955c2.381-5.042 4.689-10.5 9.859-23.32.727-1.804 1.34-3.28 1.363-3.28.022 0 .671 1.494 1.442 3.32 5.84 13.831 8.12 18.936 12.267 27.478 4.648 9.571 11.502 22.79 21.267 41.016a304.599 304.599 0 0 1 1.742 3.276c0 .013-.39-.197-.865-.468-1.919-1.09-4.828-2.35-7.55-3.272-1.293-.438-4.562-1.391-4.61-1.344-.015.015.4.254.923.53 4.364 2.307 7.876 4.712 13.308 9.117l2.212 1.794 1.718 3.18c.945 1.75 2.768 5.116 4.05 7.48 1.284 2.365 2.32 4.313 2.304 4.33-.017.016-.896-.465-1.955-1.069C80.102 87.203 69.49 82.644 59.909 80.56a25.648 25.648 0 0 1-1.026-.235c-.011-.01.067-.539.174-1.177.319-1.9.395-3.097.345-5.458-.047-2.274-.17-3.397-.577-5.286-.7-3.245-2.093-6.33-3.809-8.438-.68-.835-1.856-1.9-2.636-2.386-1.437-.898-2.746-1.26-4.299-1.191-1.118.05-1.73.199-2.735.67-5.41 2.531-8.733 11.485-7.583 20.428.09.7.236 1.602.324 2.007.088.404.152.742.14.751-.01.01-.49.114-1.066.232-9.575 1.968-20.909 6.832-35.74 15.338-1.248.716-1.34.765-1.34.702z"/>
    <path d="M.25 96.21c.097-.19.51-.945.918-1.676 10.027-17.967 19.99-36.314 26.37-48.555 1.46-2.802 7.577-14.96 7.676-15.255.015-.045.206.065.424.245 2.426 2.005 5.812 4.07 9.656 5.887 1.381.653 3.442 1.554 3.554 1.554.034 0-.1-.115-.297-.256-3.889-2.77-6.934-5.378-10.404-8.91l-1.51-1.537.192-.426c.105-.235.508-1.115.895-1.956 2.437-5.303 4.149-9.358 8.496-20.131 1.073-2.658 1.986-4.9 2.03-4.982.064-.12.604 1.088 2.755 6.16C55.681 17.4 57.633 21.77 61.217 29.23c4.557 9.486 12.01 23.906 21.633 41.857a568.171 568.171 0 0 1 1.967 3.69l.21.415-.702-.404c-2.29-1.317-5.557-2.697-8.794-3.714-1.319-.415-3.44-1.019-3.574-1.019-.05 0 .49.312 1.199.692 4.447 2.39 7.507 4.49 12.843 8.812l2.456 1.99 1.406 2.607c.774 1.434 2.595 4.797 4.046 7.473 1.452 2.676 2.629 4.876 2.616 4.889-.012.012-.311-.142-.664-.344-15.625-8.941-26.461-13.639-36.11-15.655a13.45 13.45 0 0 1-.871-.198c-.014-.012.046-.397.133-.856.32-1.696.375-2.453.373-5.142-.002-2.81-.069-3.575-.492-5.637-.836-4.08-2.574-7.57-4.872-9.79-1.817-1.753-3.559-2.53-5.675-2.53-2.166 0-4 .888-5.89 2.85-4.037 4.192-5.869 12.404-4.443 19.922.09.474.181.92.202.991.031.106-.093.156-.668.268-3.552.697-8.027 2.021-12.14 3.592-6.536 2.495-13.997 6.153-23.232 11.39-.952.54-1.815 1.026-1.917 1.08l-.185.098.177-.347z"/>
    <path d="M.167 96.372c.054-.103 1.755-3.177 3.78-6.83 11.245-20.291 18.587-33.87 24.641-45.576 1.124-2.173 6.552-13.02 6.624-13.237.014-.041.422.24.907.626 2.962 2.355 7.287 4.795 12.034 6.79.465.195.81.322.765.282-.044-.04-.704-.53-1.467-1.087a72.308 72.308 0 0 1-5.085-4.08c-1.402-1.228-4.453-4.182-5.243-5.077l-.463-.523 1.143-2.497c2.14-4.674 3.988-9.01 6.765-15.87a26254.3 26254.3 0 0 1 2.597-6.414C47.77 1.384 48.288.16 48.316.16c.028 0 .606 1.314 1.285 2.919 7.088 16.768 9.558 22.184 15.71 34.444 4.591 9.15 9.828 19.176 17.397 33.31 1.19 2.223 2.187 4.1 2.215 4.173.035.091-.106.042-.464-.162-.983-.562-3.743-1.878-4.983-2.376-1.962-.788-7.033-2.416-7.522-2.413-.048 0 .581.363 1.397.808a64.11 64.11 0 0 1 5.28 3.177c2.254 1.491 3.434 2.372 6.823 5.09l2.959 2.373.555 1.02c.667 1.222 7.352 13.578 7.498 13.856l.101.194-.352-.205c-2.344-1.37-7.429-4.163-10.377-5.702-9.78-5.105-18.233-8.432-25.403-10-.843-.184-1.539-.337-1.546-.34-.008-.004.071-.513.175-1.133s.233-1.562.287-2.093c.123-1.229.124-4.138 0-5.395-.45-4.567-1.924-8.686-4.117-11.495-.541-.695-1.603-1.741-2.29-2.258-.817-.615-2.055-1.21-2.959-1.425-.861-.205-2.174-.224-3.028-.044-2.237.472-4.277 2.032-5.962 4.562-3.09 4.636-4.224 11.666-2.952 18.302.067.35.14.695.163.767.035.108-.116.161-.904.318-1.482.294-4.533 1.079-6.321 1.625-7.835 2.392-17.146 6.687-28.525 13.158C-.188 96.719.046 96.6.166 96.372z"/>
    <path d="M.098 96.5c.188-.32 7.958-14.364 9.878-17.854 10.904-19.817 19.071-35.25 23.765-44.907.807-1.66 1.48-3.033 1.494-3.05.015-.015.218.134.453.333 1.985 1.68 5.193 3.68 8.56 5.335 1.97.969 4.71 2.19 4.71 2.1 0-.015-.444-.348-.986-.738a74.413 74.413 0 0 1-9.81-8.474L36.65 27.69l.325-.7c2.725-5.862 4.907-11.006 9.611-22.662.925-2.292 1.703-4.167 1.727-4.167.025 0 .495 1.06 1.044 2.355 4.668 11.017 6.062 14.24 8.018 18.54 5.288 11.629 12.427 25.667 25.091 49.338 1.367 2.555 2.486 4.667 2.486 4.692 0 .025-.19-.067-.423-.204a54.825 54.825 0 0 0-2.015-1.042c-2.556-1.274-5.527-2.39-8.916-3.35a189.73 189.73 0 0 1-1.67-.477c-.266-.088-.037.068.603.411 4.998 2.68 7.945 4.682 13.491 9.166l2.399 1.94.591 1.087c.325.598 2.14 3.95 4.033 7.448a3711.83 3711.83 0 0 0 3.485 6.434c.023.04.01.054-.03.03-9.956-5.796-19.112-10.299-26.405-12.985-3.547-1.306-8.232-2.672-10.654-3.104-.555-.1-.586-.116-.543-.291.026-.102.116-.594.2-1.093.47-2.764.498-5.899.08-8.8-.843-5.865-3.497-10.726-6.999-12.82-4.032-2.412-8.54-.796-11.544 4.139-2.814 4.622-3.82 11.478-2.601 17.736l.182.94-1.131.228c-7.326 1.478-16.247 4.937-26.375 10.226-2.964 1.547-8.803 4.761-10.582 5.824-.04.024-.053.01-.03-.03z"/>
</svg>
