<svg xmlns="http://www.w3.org/2000/svg" height="100" width="91.69" viewBox="0 0 91.69 100">
    <path fill-rule="evenodd" d="M46.63 41.402l-14.643 6.29 13.562 5.798 15.724-5.799-14.643-6.289zm-22.013 7.862l-.491 28.302L45.549 87V57.617l-20.932-8.353zm44.026 0l-19.36 7.37v27.713l19.36-7.862v-27.22zM22.504 1.046L7.862 7.335l13.561 5.798 15.724-5.798-14.643-6.29zM.491 8.907L0 37.21l21.423 9.434V17.262L.49 8.908zm44.026 0l-19.36 7.37v27.714l19.36-7.862V8.908zM69.675 0L55.032 6.29l13.562 5.797 15.723-5.798L69.675 0zM47.662 7.862l-.492 28.302 21.423 9.434V16.215L47.662 7.862zm44.026 0l-19.36 7.37v27.713l19.36-7.862V7.863z"/>
</svg>
