<svg xmlns="http://www.w3.org/2000/svg" viewBox="0 0 99.31 100" version="1.0">
    <path d="M31.997 17.493c0-3.281-2.019-7.46-10.518-7.46H8.415l-3.709 17.18h13.617c10.637 0 13.674-5.029 13.674-9.72zm35.195 0c0-3.281-2.02-7.46-10.498-7.46H43.631l-3.709 17.18h13.616c10.639 0 13.652-5.029 13.654-9.72zM27.291 43.356c0-3.281-2.018-7.476-10.518-7.476H3.709L0 53.074h13.611c10.637 0 13.68-5.05 13.68-9.719zm35.195 0c0-3.281-2.02-7.476-10.498-7.476H38.905l-3.71 17.194h13.616c10.637 0 13.674-5.05 13.675-9.719zM99.308 32.88c0-3.298-2.036-7.476-10.513-7.476H75.731l-3.709 17.178 13.611.002c10.637-.002 13.674-5.036 13.675-9.704zm-5.07 26.925c0-3.302-2.02-7.46-10.52-7.46H70.655l-3.709 17.18h13.61c10.643 0 13.68-5.055 13.681-9.72zM57.43 70.296c0-3.319-2.019-7.497-10.497-7.497H33.848L30.14 80h13.617c10.637 0 13.674-5.034 13.674-9.704z" fill-rule="evenodd" fill="#0033bf"/>
</svg>
