<svg xmlns="http://www.w3.org/2000/svg" viewBox="0 0 56.75 100">
    <path d="M41.667 5.14c1.046-.447 2.387-.734 3.828-.673.63 3.985-1.329 7.077-3.863 8.365-1.452.739-3.271 1.147-5.174.78-1.72-.332-3.002-1.066-4.078-2.162-1.098-1.121-1.686-2.361-2.091-4.147-.364-1.611-1.497-2.749-3.19-3.049-1.972-.35-3.4.702-4.076 2.02-.779 1.516-.217 3.297.106 5.141 1.168-.096 2.507-.328 3.828-.39.76 4.05 1.418 8.2 2.162 12.264 8.42.512 14.277 3.469 18.858 7.868 4.464 4.29 7.926 10.115 8.65 18.043.801 8.793-2.437 15.58-6.203 20.274-3.873 4.828-9.324 8.669-16.66 10.034-4.073.756-8.333.618-11.982-.25a28.194 28.194 0 0 1-9.287-4.076C7.175 71.578 3.224 66.52 1.19 59.8.128 56.29-.3 51.916.233 47.96c.518-3.84 1.738-7.224 3.297-10.03 3.181-5.734 7.92-9.89 14.143-12.549-.662-4.159-1.498-8.143-2.126-12.336 1.235-.335 2.48-.66 3.792-.921-.238-1.497-.632-2.81-.602-4.288a7.79 7.79 0 0 1 1.098-3.793C21.04 2.037 23.284.497 26.038.32c2.272-.145 4.156.74 5.459 1.843 1.38 1.168 2.188 2.785 2.624 4.68.44 1.918 2.073 3.197 4.04 3.048 2.18-.165 4.04-2.03 3.51-4.75z"/>
</svg>
