<svg xmlns="http://www.w3.org/2000/svg" viewBox="0 0 100 100">
    <path d="M52.1 31.345a64.643 64.643 0 0 0-4.853.234C29.71 33.084 16.087 41.318 16.83 49.97c.742 8.651 15.564 14.457 33.101 12.952s31.16-9.74 30.417-18.39c-.672-7.842-12.908-13.345-28.249-13.187zm-4.337 1.254c6.49.106 12.898.882 17.558 1.606 1.631 2.657 2.555 5.707 2.555 8.955 0 10.262-9.268 18.59-20.7 18.59s-20.688-8.328-20.688-18.59c0-1.926.32-3.774.926-5.52 5.825-2.488 13.659-5.15 20.349-5.04z"/>
    <path d="M46.065 32.578c-2.297.006-7.36.247-11.088 2.063.031.225.087.445.129.668-.083.038-.165.078-.246.117-.005-.14-.012-.282-.012-.422 0-.102.01-.203.012-.304-2.237 1.122-3.973 2.828-4.29 5.415a6.779 6.779 0 0 0-.2 1.676c0 6.182 3.345 11.578 8.323 14.488.002.002.008-.002.011 0 .169.098.332.2.504.293.005.003.007.009.012.011.35.195.701.376 1.067.54.001-.007-.002-.017 0-.024.002-.011.009-.023.011-.035.002-.008-.002-.016 0-.023-.095-.095-.189-.196-.281-.293-.83-1.037-1.432-2.723-2.004-3.822a2.53 2.53 0 0 1-.375.036c-1.282 0-2.615-1.043-2.427-2.274.152-.6.548-1.15 1.231-1.5-.003-.024-.009-.048-.012-.071.087-.049.186-.094.282-.14-.16-1.296-.219-3.079 0-4.537.09-.374.198-.742.316-1.102-.005-.007-.007-.016-.012-.023.085-.167.174-.331.246-.551-1.362-1.995-2.28-4.565-2.402-7.162a14.64 14.64 0 0 0 2.672 6.435 13.31 13.31 0 0 1 1.688-2.778l-.012-.035c.094-.106.188-.21.282-.328-.07-.19-.22-.778-.235-1.032a1.848 1.848 0 0 1 2.356-.95 13.374 13.374 0 0 1 7.502-2.73c-2.477.51-4.864 1.622-6.717 3.118.052.121.154.359.235.598l-.012.011c.047.11.081.221.106.34l.011.059c.004.026.012.06.012.082 0 1.011-.653 1.254-1.664 1.254-.23 0-.454-.04-.657-.117-.686.922-1.522 2.677-1.934 3.774.131.117.258.222.387.328 1.394 1.428 3.073 2.563 4.935 3.259-.005-.094-.012-.185-.012-.281a5.52 5.52 0 0 1 5.52-5.521 5.52 5.52 0 0 1 5.44 4.595 14.305 14.305 0 0 0 3.575-3.27c-.007-.01-.017-.016-.024-.024.096-.107.19-.212.281-.328-.217-.266-.448-.963-.48-1.383.263-.57.83-.973 1.5-.973.13 0 .254.018.375.047a14.56 14.56 0 0 0 1.149-3.306l-.035-.023c.07-.255.132-.515.187-.774-4.768-3.53-13.995-3.047-13.995-3.047s-.465-.026-1.23-.024zm3.74.797c.796-.004 1.604.066 2.414.211a36.966 36.966 0 0 0-2.977-.187c.186-.01.375-.023.562-.024zm11.768 2.497c-.017.256-.07.53-.13.82-.008-.007-.014-.016-.023-.023-.006.103-.026.202-.035.305-.238 1.002-.643 2.103-.914 2.895.102.091.18.184.258.27.05.056.11.11.152.164.006.006.006.016.012.023.046.061.09.117.129.176.036.058.076.113.105.176l.012.023c.04.09.082.195.105.293.005.02-.003.04 0 .059.003.028.013.054.012.082-.008.611-.743 1.102-1.488 1.102-.094 0-.18-.02-.27-.036-1.034 1.616-2.846 3.693-4.454 4.736.119.02.233.048.351.07-.019.013-.039.023-.058.035a13.396 13.396 0 0 1 4.876 1.77l.129.082c.016.01.03.025.047.035.236.149.476.306.703.47.243.174.472.36.703.55a16.69 16.69 0 0 0 2.005-6.2c.166-.939.27-1.868.27-2.755 0-2.255-.995-3.91-2.497-5.122zm-23.244 8.134l-.035.153c-.047.212-.082.433-.117.645l-.012.07c-.007.027-.017.054-.023.082a12.153 12.153 0 0 0-.211 4.032A2.41 2.41 0 0 1 39.9 51.25c-.21.563-.607 1.147-.938 1.454.068.145.125.259.188.387l-.024.023c.431.913.954 1.781 1.57 2.59a13.418 13.418 0 0 1 3.47-5.25c.102-.095.212-.179.317-.27.24-.201.476-.405.715-.598-.28-.383-.693-1.333-.868-1.782-2.332-.71-4.4-2.04-6-3.798zM54.68 47.64a5.52 5.52 0 0 1-5.204 3.692 5.505 5.505 0 0 1-3.41-1.184c-1.936 1.507-3.692 4.15-4.584 6.447.057.061.1.118.153.176-.005.011-.008.024-.012.035.13.14.274.264.41.399.079.078.154.158.235.234.107.108.21.219.34.328.002.002.009-.002.011 0 .095.085.185.176.281.258a16.83 16.83 0 0 0 4.244.54c5.893 0 11.073-3.046 14.065-7.643-.016-.011-.03-.024-.047-.035.078-.113.16-.225.235-.34-1.99-1.378-4.33-2.688-6.717-2.907z" fill="#373535"/>
    <path d="M73.362 26.586s-6.366 7.32-7.959 6.47l2.93-5.966c-.634 1.16-3.36 5.673-6.892 4.947.497-.749.879-1.435 1.16-2.005.014-.026.035-.056.048-.082.883-1.51 1.254-2.625 1.254-2.625S60.728 32.42 56.8 31.04c-.231-.08-.276-.285-.211-.55.352-.5.715-.915.715-.915s-.222.204-.551.48c.381-.766 1.195-1.675 1.195-1.675s-2.637 2.557-4.442 2.238c-1.805-.318.105-3.61.105-3.61s-3.184 4.995-3.82 4.782c-.637-.212.316-3.504.316-3.504l-3.61 3.61c-1.274-.212 0-3.927 0-3.927s-.412 1.238-.962 2.31c.152-.627.317-1.114.317-1.114s-.311.93-.75 1.875c-.003.005-.01.007-.012.012-.34.5-.703.837-1.031.738-1.063-.317-1.278-2.766-1.278-2.766s-.094 1.144-.48 2.145c-.12-.515-.165-.938-.165-.938s-.08.996-.41 1.946l-.012.012c-.204.226-.454.39-.738.445-11.466 2.23-24.092 7.12-39.911 22.94.46-.249.904-.508 1.347-.763A131.05 131.05 0 0 0 .42 56.77c14.97-8.07 20.908-19.956 48.939-21.018 21.22-.803 31.128 8.992 34.402 9.131 9.98.425 16.246-9.236 16.246-9.236s-.885 1.015-2.227 2.192c1.852-1.835 2.872-3.4 2.872-3.4s-5.589 6.441-10.057 5.674c3.368-2.713 5.802-7.232 5.802-7.232l-.176.175c.51-.807.82-1.371.82-1.371s-7.392 7.634-12.87 7.103c2.296-2.205 3.936-4.92 4.947-6.904.006-.012.017-.023.023-.035 1.234-2.19 1.852-3.88 1.852-3.88s-5.602 8.647-9.564 10.022c1.726-1.864 2.971-3.888 3.797-5.486.01-.015.015-.03.024-.046.034-.066.073-.136.105-.2 1.241-2.184 1.817-3.868 1.817-3.868s-4.55 6.677-8.44 7.982c2.052-2.09 3.106-3.776 3.634-4.91 1.115-1.822 1.196-2.86 1.196-2.86s-7.039 9.09-10.221 8.286c2.49-2.993 4.196-6.1 4.794-7.244.056-.097.09-.166.14-.257.046-.09.176-.329.176-.329.401-.727.645-1.195.645-1.195s-6.26 8.484-7.959 7.103c-.333-.06-.318-.414-.129-.89.003-.006.01-.008.012-.013.622-.977 1.383-1.922 1.383-1.922l-.586.48c.586-.884 1.23-1.687 1.23-1.687s-2.898 2.578-4.348 2.684c1.84-2.045 4.02-5.837 4.02-5.837l-.222.258c.52-.836.867-1.454.867-1.454z"/>
    <path d="M83.231 44.44c-.935.024-1.735.462-2.168 1.641-4.938 9.396-15.29 14.647-27.393 16.398-12.103 1.752-21.029-.784-28.354-2.848-9.634-2.716-17.274 2.108-25.635-2.086 1.155.914 2.418 1.82 4.595 2.403a16.255 16.255 0 0 1-4.278-1.442c1.933 1.532 4.144 3.028 10.514 3.047 2.074.006 8.523-.316 10.162.645-.514 1.85-4.43 5.544-4.43 5.544s1.795-1.517 3.891-3c-1.313 1.834-3.575 3.95-3.575 3.95s8.325-7.035 10.092-5.627c-.103 1.963-2.766 5.627-2.766 5.627s1.19-1.595 2.66-3.083c-.778 1.89-2.343 4.044-2.343 4.044s3.289-4.464 5.731-5.415c1.56-.608 2.896-.575 4.044.785-.376 1.796-3.88 5.896-3.88 5.896s1.569-1.521 3.27-3c-1.158 1.854-2.953 3.96-2.953 3.96s6.211-6.05 7.326-5.73a.412.412 0 0 1 .152.081c.153 1.66-.469 4.689-.469 4.689s.292-.69.715-1.594c-.144 1.322-.398 2.555-.398 2.555s2.229-5.347 3.458-5.873c-.47 3.002-4.091 11.769-4.091 11.769s.99-1.815 2.274-4.056c-.996 2.666-1.958 5.005-1.958 5.005s6.706-12.299 7.96-12.577c.805-.18 1.519.983 2.085 2.509l.024.058c.737 2.378 1.16 5.075 1.16 5.075s-.092-.665-.187-1.594c.32 1.422.504 2.556.504 2.556s-1.045-7.943.082-8.451c1.9-.86 2.992-.27 3.587 1.031.973 4.021-.88 11.71-.88 11.71s.498-1.22 1.067-2.954c-.336 2.213-.75 3.915-.75 3.915s4.033-9.94 2.286-13.374a4.47 4.47 0 0 0-.094-.375c2.799 1.988 4.362 4.531 5.228 6.892.006.016.017.03.023.047.95 3.216.68 5.849.68 5.849s.198-.437.293-1.372c.117 1.408.023 2.333.023 2.333s1.238-2.69-.996-9.026v-.011c-.524-1.655-1.304-3.573-2.426-5.802 3.023.13 7.408 7.83 7.408 7.83s-.6-1.068-1.231-2.439c.553.863.902 1.489.902 1.489s-1.223-2.198-2.04-4.407c-.005-.015-.005-.032-.01-.047-.552-1.836-.633-3.449.785-3.517 3.114-.148 4.916 2.4 5.954 5.146.018.046.03.094.047.14a26.28 26.28 0 0 1 1.008 5.393s.093-.095.187-.352c.102.787.13 1.301.13 1.301s1.23-1.068-.891-7.302c-.048-.153-.112-.333-.165-.493-.497-1.52-1.22-3.377-2.215-5.626 3.445-1.925 11.546 10.878 11.546 10.878s-.833-1.43-1.887-3.294c.954 1.356 1.57 2.332 1.57 2.332S73.53 64.4 72.108 60.627c-.134-.525-.138-.887.035-1.008 1.22-.85 5.673 4.032 5.673 4.032s-.668-.933-1.336-2.004c.595.593 1.02 1.043 1.02 1.043s-1.597-2.192-2.31-3.727c0-.003.002-.009 0-.012-.026-.218.01-.376.141-.445.902-.478 9.916 9.283 9.916 9.283s-1.367-1.662-2.871-3.669c1.453 1.513 2.555 2.72 2.555 2.72s-5.012-6.03-6.388-9.096c-.053-.311-.024-.55.129-.68.81-.686 3.146.57 4.946 1.723-1.059-.758-2.272-1.665-3.282-2.543.945.366 2.021.99 2.966 1.594-1.738-1.245-3.956-2.945-4.818-4.103a.422.422 0 0 1 .188-.176c2.442-1.268 9.389 3.036 9.389 3.036s-1.137-.957-2.134-1.98c1.062.562 1.817 1.02 1.817 1.02s-2.34-1.931-3.235-3.26c.012-.03.037-.055.059-.082.69-.849 8.908 5.416 8.908 5.416s-3.047-2.414-5.298-4.501c2.398 1.582 4.981 3.54 4.981 3.54s-5.722-4.513-7.267-6.53c.664-.772 5.673.798 5.673.798s-1.802-.844-3.563-1.782c1.552.292 3.247.832 3.247.832s-4.452-2.07-6.177-3.328c1.049-.033 4.114 1.254 4.114 1.254s-1.442-1.176-3.106-1.946c1.266.365 2.778.985 2.778.985s-3.235-2.652-5.627-2.59zm.07 13.398c1.254.897 2.275 1.57 2.275 1.57s-1.01-.76-2.274-1.57zm.317.95c1.255.897 2.274 1.57 2.274 1.57s-1.008-.76-2.274-1.57z"/>
</svg>
