<svg xmlns="http://www.w3.org/2000/svg" version="1.0" viewBox="0 0 100 100">
    <path fill="gray" d="M50 .035L38.308 11.727h8.251v29.178L50 44.348l3.582-3.582V11.623h8.006L49.999.035z"/>
    <path fill="gray" d="M55.302 13.343v25.702l16.854-16.854-8.813-8.848h-8.04z"/>
    <path fill="gray" d="M65.765 13.343l8.251 8.216.597.632-.597.597-18.715 18.715v3.195h3.266l18.68-18.68.597-.596.632.596 8.146 8.182V13.343H65.765zm-52.212.14v20.541l7.97-7.97.597-.597.632.596 18.61 18.645h3.477v-3.09l-18.82-18.82-.632-.596.632-.632 8.075-8.076h-20.54z"/>
    <path fill="gray" d="M36.552 13.483l-8.708 8.708L44.838 39.15V13.483h-8.286zm41.292 14.396L61.06 44.698h25.562v-8.04l-8.778-8.779zm-55.723.035l-8.567 8.567v8.217h25.35L22.122 27.914z"/>
    <path fill="gray" d="M11.798 38.237L0 50.035l11.798 11.798v-8.427h29.143l3.336-3.336-3.617-3.651H11.797v-8.182zm76.58.176v8.006H59.305l-3.581 3.616 3.335 3.371h29.319v8.251L100 50.033 88.377 38.411z"/>
    <path fill="gray" d="M53.581 43.223l-2.949 2.95-.632.632-.597-.632-2.844-2.844v3.09h-3.441l3.02 3.02.597.632-.597.596-2.74 2.74h3.232v3.299l2.704-2.704.597-.597.632.597 3.02 3.055v-3.652H56.6l-2.739-2.774-.632-.597.632-.632 2.985-2.984h-3.264v-3.194zM13.553 55.126v8.427l8.602 8.638 17.066-17.065H13.553z"/>
    <path fill="gray" d="M41.678 55.126l-18.89 18.89-.632.632-.597-.632-8.006-8.006v20.471h20.365l-7.9-7.935-.632-.597.632-.632 18.855-18.855v-3.336h-3.195zm13.624 0v3.652l18.539 18.539.632.632-.632.597-7.9 7.935h20.68V65.87l-8.145 8.146-.632.632-.597-.632-18.89-18.89h-3.055z"/>
    <path fill="gray" d="M60.815 55.126l17.029 17.065 8.778-8.813v-8.252H60.814zm-10.885.738l-3.3 3.336v29.003h-8.533L49.931 100l11.833-11.798h-8.181V59.48l-3.652-3.617z"/>
    <path fill="gray" d="M44.874 60.92L27.845 77.949l8.532 8.532h8.498V60.92zm10.428.316v25.246h8.181l8.532-8.532-16.712-16.713z"/>
</svg>
