<svg xmlns="http://www.w3.org/2000/svg" height="100" viewBox="0 0 173.737 256.32" width="68.1">
    <path d="M69.517 51.672c1.322-13.234 5.405-38.296 8.377-51.584C77.028.047 76.165 0 75.293 0 33.379 0-.6 45.904-.6 102.53c0 55.345 32.467 100.42 73.071 102.43 2.642-19.833 7.546-41.598 5.176-60.45-4.163-33.1-13.187-57.366-8.13-92.837zM100.68.088c-2.969 13.288-7.214 38.35-8.534 51.584-5.04 35.356 3.55 59.852 7.724 92.874 2.4 18.974-2.346 40.763-4.611 60.414.937.045 1.876.097 2.824.097 41.87 0 75.848-45.904 75.848-102.53 0-55.45-32.58-100.59-73.25-102.44z"/>
</svg>
