<svg xmlns="http://www.w3.org/2000/svg" viewBox="0 0 100 100" version="1.0">
    <path d="M61.135 8.557v10.815c-3.453-3.215-7.142-5.619-11.069-7.21-3.893-1.591-8.04-2.386-12.44-2.386-8.667 0-15.302 2.657-19.906 7.972-4.604 5.28-6.906 12.932-6.906 22.95 0 9.987 2.302 17.637 6.906 22.951 4.604 5.281 11.239 7.922 19.905 7.921 4.4 0 8.548-.795 12.44-2.386 3.927-1.591 7.617-3.994 11.07-7.21v10.714c-3.589 2.437-7.397 4.265-11.425 5.484C45.715 79.39 41.484 80 37.016 80 25.54 80 16.502 76.496 9.901 69.489c-6.6-7.041-9.9-16.639-9.9-28.791 0-12.186 3.3-21.784 9.901-28.79 6.602-7.042 15.64-10.562 27.116-10.562 4.536 0 8.8.609 12.796 1.828a39.985 39.985 0 0 1 11.323 5.382"/>
    <path d="M48.72 25.525v13.143h13.142v4.011H48.72v13.143h-3.964V42.68H31.612v-4.011h13.143V25.525h3.964m38.138 0v13.143H100v4.011H86.857v13.143h-3.964V42.68H69.75v-4.011h13.143V25.525h3.964" font-family="Bitstream Vera Sans" font-size="40"/>
</svg>
