<svg xmlns="http://www.w3.org/2000/svg" height="100" width="100" viewBox="0 0 80 80">
    <path d="M71.638 20.203c0-4.062-.003-8.12.003-12.182.857-.003 1.717-.003 2.578-.003.012 3.834 0 7.668.006 11.502 1.926-.511 3.846-1.035 5.773-1.546.003 2.138.003 4.277 0 6.418-1.924.52-3.853 1.032-5.773 1.555 0 5.228-.003 10.458 0 15.685 1.926-.511 3.846-1.035 5.773-1.546.003 2.138 0 4.277 0 6.415-1.924.524-3.85 1.032-5.773 1.555-.006 3.784 0 7.569-.003 11.353-.86 0-1.724 0-2.584-.003-.003-3.566.003-7.135 0-10.701a4542.12 4542.12 0 0 0-11.514 3.104c-.004 4.065.003 8.126-.004 12.191h-2.6c-.005-3.834.004-7.671-.002-11.505-1.92.511-3.834 1.035-5.754 1.543-.003-2.15-.003-4.302 0-6.452 1.917-.524 3.837-1.029 5.754-1.553 0-5.214.006-10.432 0-15.647-1.92.508-3.834 1.032-5.754 1.543-.003-2.141-.003-4.28 0-6.418 1.917-.524 3.837-1.029 5.754-1.552.003-3.788 0-7.578.003-11.368.866 0 1.733 0 2.603.003.003 3.569-.004 7.141 0 10.713 3.84-1.032 7.677-2.063 11.514-3.104M60.127 29.73c-.007 5.218-.003 10.436-.003 15.654l11.514-3.104c0-5.218.003-10.433-.003-15.651-3.837 1.029-7.671 2.07-11.508 3.101zM13.393 11.076c4.563-2.232 9.797-2.84 14.812-2.285 4.766.536 9.423 2.643 12.69 6.203 2.372 2.537 3.924 5.73 4.906 9.036a2269.88 2269.88 0 0 1-6.848 1.621c-1.207-3.877-3.507-7.683-7.25-9.55-4.162-2.051-9.158-1.874-13.497-.48-4.8 1.577-8.151 5.925-9.623 10.62-1.689 5.382-1.636 11.19-.67 16.703.773 4.445 2.968 8.772 6.714 11.418 4.102 3.008 9.626 3.535 14.46 2.31 3.703-.941 6.814-3.619 8.54-6.998.986-1.83 1.625-3.824 2.117-5.838 2.32.592 4.645 1.166 6.96 1.777-1.287 4.897-3.637 9.725-7.66 12.945-4.153 3.413-9.626 4.875-14.944 4.706-5.975-.059-12.315-1.717-16.539-6.184C3.325 52.492.962 46.39.255 40.236c-.586-5.776-.253-11.789 1.967-17.21 2.091-5.174 6.162-9.5 11.171-11.95z"/>
</svg>
