<svg xmlns="http://www.w3.org/2000/svg" viewBox="0 0 80 100">
    <path d="M6.406.188C3.006.188 0 3.013 0 6.313v.093c0 .2.313.488.313.688l6.78 61c.1.9.407 1.705.907 2.406.6 1.199 1.613 2.088 2.812 2.688l26.876 13.218c.9.398 1.818.594 2.718.594s1.788-.195 2.688-.594l26.812-13.218a6.177 6.177 0 0 0 3.406-5.782l6.594-60.5c0-.2.094-.519.094-.719v-.094c0-3.1-2.788-5.906-6.188-5.906H6.406zM28.188 20h5.406v4.75h-1.719c-2.344 0-3.879.317-4.594.938-.698.606-1.03 1.902-1.03 3.906v3.53c0 2.215-.378 3.811-1.126 4.813-.748 1.002-2.046 1.679-3.875 2.032 1.845.38 3.143 1.091 3.875 2.092.748 1.002 1.125 2.581 1.125 4.782v3.531c0 2.018.333 3.331 1.031 3.937.715.621 2.25.938 4.594.938h1.72V60h-5.407c-3.625 0-6.276-.633-7.938-1.875-1.663-1.242-2.5-3.214-2.5-5.937v-4.063c0-2.116-.446-3.588-1.344-4.406-.898-.833-2.514-1.25-4.875-1.25h-1.53V37.75h1.53c2.361 0 3.977-.4 4.875-1.219.898-.818 1.344-2.29 1.344-4.406V27.78c0-2.723.837-4.678 2.5-5.906C21.912 20.632 24.563 20 28.188 20zm18.218 0h5.406c3.625 0 6.275.633 7.938 1.875 1.662 1.228 2.5 3.183 2.5 5.906v4.344c0 2.115.446 3.587 1.344 4.405.897.82 2.514 1.22 4.875 1.22H70v4.718h-1.53c-2.362 0-3.979.417-4.876 1.25-.898.818-1.344 2.29-1.344 4.406v4.063c0 2.724-.838 4.696-2.5 5.938-1.663 1.241-4.313 1.874-7.938 1.874h-5.406v-4.75h1.75c2.328 0 3.833-.317 4.532-.938.714-.606 1.062-1.919 1.062-3.937v-3.53c0-2.202.377-3.78 1.125-4.783.748-1 2.061-1.712 3.906-2.093-1.845-.353-3.158-1.03-3.906-2.03-.748-1.003-1.125-2.599-1.125-4.814v-3.53c0-2.005-.348-3.3-1.062-3.907-.699-.62-2.204-.938-4.532-.938h-1.75V20z"/>
</svg>
