<svg xmlns="http://www.w3.org/2000/svg" viewBox="0 0 149.5 141.7">
    <path d="M48.5 87.5c0 .1 0 .1 0 0 0 .1-.1.2-.1.2.1 0 .1 0 .1-.2 0 .1 0 .1 0 0zm32.1 30.7c-.1.2-.3.4-.4.6.1-.3.3-.6.4-.6zm68.7-16.1v-.6c.1.2 0 .4 0 .6zM48.5 87.6zM71.3 110c0 .1 0 .1 0 0v.1c.1 0 .1 0 0-.1z"/>
    <path d="M71.4 110.1c-12.6 19.1-34.3 31.7-58.9 31.6H0v-31.1h12.6c15.7 0 29.4-9.2 35.8-22.6v-.1s0-.1.1-.1c0 0 0-.1.1-.1v-.1.1l-.1-.1c2.4-5.1 3.7-10.7 3.7-16.7 0-21.9-17.8-39.7-39.7-39.7H0V0h12.5c39.1 0 70.9 31.8 70.9 70.8-.1 14.5-4.4 28-12 39.3-.1 0-.1 0 0 0z"/>
    <path d="M139.5 70.7c6.2 7.5 10 17.1 10 27.6 0 1.2-.1 2.4-.2 3.6v-.3.9c-2 21.9-20.6 39.1-43 39.1h-3.1l-.1-.1H56c9.3-5.8 17.4-13.2 23.7-22 .2-.2.4-.5.5-.7.1-.2.3-.4.4-.6 1.7-2.5 3.3-5.1 4.7-7.6h21c6.6 0 12-5.4 12-12s-5.4-12-12-12H94c.9-5 1.5-10.2 1.5-15.4 0-5.4-.5-10.6-1.5-15.7h7.6l-.3-.3h5.1c6.6 0 12-5.4 12-12s-5.4-12-12-12H85.3C78.3 18.4 68 7.7 55.5 0h50.8c23.8 0 43.1 19.3 43.2 43 0 10.5-3.7 20.2-10 27.7zm9.9 30.8v.6c-.1-.2 0-.4 0-.6z"/>
    <path d="M80.2 118.7c-.2.2-.3.5-.5.7.1-.1.3-.4.5-.7zm-8.9-8.7c0 .1 0 .1 0 0v.1c.1 0 .1 0 0-.1z"/>
</svg>
