<svg xmlns="http://www.w3.org/2000/svg" viewBox="0 0 66.2 100" version="1.0">
    <path d="M66.136 8.75a32.946 8.75 0 0 1-65.892 0 32.946 8.75 0 1 1 65.892 0z"/>
    <path d="M.27 15.32s.316 2.206 7.153 4.523c1.862.632 5.481 1.445 8.286 1.938 4.467.785 10.077 1.281 17.087 1.285 3.685.002 7.066-.087 10.282-.378 4.525-.41 5.295-.563 8.888-1.152 3.435-.562 6.733-1.537 9.15-2.497 4.176-1.657 5.075-3.719 5.075-3.719v17.393s-3.046 3.944-11.38 5.53c-2.926.557-4.086 1.085-9.418 1.618-4.633.463-10.731.685-12.643.685-1.913.001-6.715.018-14.541-1.178-4.743-.725-9.326-1.701-11.616-2.612C1.99 34.924.27 32.713.27 32.713z"/>
    <path d="M.179 38.241s.317 2.206 7.154 4.523c1.862.632 5.48 1.445 8.285 1.938 4.467.785 10.077 1.281 17.087 1.285 3.685.002 7.066-.087 10.282-.378 4.526-.41 5.296-.563 8.888-1.152 3.435-.562 6.734-1.537 9.151-2.497 4.175-1.657 5.075-3.719 5.075-3.719v17.393s-3.047 3.944-11.381 5.53c-2.926.557-4.086 1.085-9.418 1.618-4.632.463-10.73.685-12.643.685-1.912.001-6.714.018-14.54-1.178-4.744-.724-9.326-1.7-11.617-2.611C1.9 57.846.18 55.635.18 55.635z"/>
    <path d="M0 61.774s.317 2.206 7.154 4.523c1.862.632 5.48 1.445 8.285 1.938 4.467.785 10.077 1.281 17.087 1.285 3.685.002 7.066-.087 10.282-.378 4.526-.41 5.296-.563 8.889-1.152 3.434-.562 6.733-1.537 9.15-2.497 4.175-1.657 5.075-3.719 5.075-3.719v17.393s-3.046 3.944-11.381 5.53c-2.926.557-4.086 1.085-9.418 1.618-4.632.463-10.73.685-12.643.685-1.912.001-6.714.018-14.54-1.178-4.743-.726-9.325-1.701-11.616-2.613C1.721 81.377.002 79.166.002 79.166z"/>
</svg>
