<svg xmlns="http://www.w3.org/2000/svg" viewBox="0 0 80.05 100">
    <path d="M46.859 100.038l-15.886-3.4L15 86.238l-11.504-17.7-3.062-16.1L0 39.068s1.726-8.984 2.61-10.753c.886-1.77 7.152-11.432 7.152-11.432l11.875-10.25L38.01-.002 49.072.44l11.17 2.356 9.184 4.724 7.523 11.062s1.327 5.752 1.77 7.522c.442 1.77 1.327 13.274 1.327 13.274L75.62 52.209 66.328 61.5 53.94 66.81l-12.832-3.983-7.965-7.08-3.097-11.061 3.097-10.177 7.965-7.08 9.336-.929 6.593 3.54 4.868 7.124-8.408-6.638-5.31-1.327-6.194 1.77-3.54 3.54-3.54 5.752v8.85l4.425 6.194 8.407 5.31h8.407l8.85-4.425 4.425-6.195s2.655-6.637 2.655-9.292c0-2.655 0-8.407-.885-10.619-.885-2.212-5.31-11.062-5.31-11.062s-3.982-3.54-5.752-4.424c-1.77-.885-7.558-3.206-7.558-3.206s-6.601-1.22-8.814-1.22-10.619 2.656-10.619 2.656l-9.292 4.867-8.407 6.195-5.752 10.177-1.77 10.177.443 9.734.884 7.522 3.54 7.965 4.425 8.85 6.637 7.08 6.637 7.079 10.001 5.31 6.371 2.212z" fill="#d5094a"/>
</svg>
