<svg xmlns="http://www.w3.org/2000/svg" version="1.0" viewBox="0 0 90 100">
    <path d="M10.588 5A10.564 10.564 0 0 0 0 15.588v68.824A10.564 10.564 0 0 0 10.588 95h68.824A10.565 10.565 0 0 0 90 84.412V15.588A10.564 10.564 0 0 0 79.412 5H10.588zm50.786 9.844C86.468 31.676 82.818 59.161 71 71.855c-27.635 29.685-60.196 1.558-61.123-6.509 0 0 23.135 14.187 43.25-4.244 21.449-19.654 8.247-46.258 8.247-46.258zM26 17.852h20.258c1.551 0 2.745 1.293 2.745 2.746v4.999c0 14.359-13.736 29.129-27.75 29.129h-6.278c-1.495 0-2.724-1.703-2.724-2.997V34.097c0-6.63 5.352-16.243 13.75-16.243z"/>
</svg>
