<svg baseProfile="basic" xmlns="http://www.w3.org/2000/svg" width="368" height="368" viewBox="0 0 368 368">
    <g fill="#9A0000">
        <path d="M136.854 122.23l94.291-.362s3.411-46.242-47.326-46.242c-24.59 0-46.965 23.121-46.965 46.603zm-83.453-51.3H4.991v226.153l55.274.361c0 .001-93.207-102.6-6.864-226.515z"/>
        <path d="M363.008 70.568l-.723 226.877h-44.797s28.18-32.514 31.792-45.52c-34.474-17.706-53.829-26.734-53.829-26.734s-25.33 56.21-84.898 58.887c-64.306 2.89-78.757-75.505-76.95-109.826 76.756 0 115.942 1.084 207.73 1.084 1.805-2.529 5.903-70.039-24.929-104.407 5.345-.48 46.604-.36 46.604-.36z"/>
    </g>
</svg>
