<svg xmlns="http://www.w3.org/2000/svg" viewBox="0 0 195.42 199.866" height="213.191" width="208.448">
    <path d="M99.98 197.617c-22.44-3.967-28.899-6.036-41.14-13.177-13.889-8.104-22.044-16.444-37.033-37.874C7.79 126.523 2.981 112.784 2.981 92.773c0-18.277 2.711-31.303 9.133-43.873l2.895-5.667-2.952-2.333C7.628 37.398 2.32 29.949 1.086 25.507-.11 21.204-.39 8.167.606 3.19 1.304-.3 4.011-.99 7.508 1.43c1.085.751 3.041 1.7 4.347 2.107 3.754 1.173 13.76 8.408 18.023 13.033l3.893 4.224 4.355-2.638c5.674-3.437 13.54-6.434 22.855-8.708 10.485-2.56 38.279-2.6 49-.07 8.915 2.102 23.713 7.95 30 11.856 7.401 4.598 8.563 4.904 14.108 3.715 11.058-2.372 20.477 1.971 27.363 12.616 2.86 4.423 2.732 13.063-.254 17.04l-2.283 3.04 3.905 8.46c5.604 12.144 11.012 29.844 12.133 39.709 1.932 17-2.186 37.962-11.227 57.153-7.395 15.695-25.566 28.797-48.193 34.746-11.015 2.896-18.74 2.875-35.552-.097zm37-13.979c15.373-5.409 26.832-15.044 37.551-31.572 5.879-9.064 8.884-16.983 10.532-27.749 1.293-8.44.307-18.254-3.692-36.75-2.277-10.535-7.36-18.208-13.86-20.924-6.572-2.746-16.836-1.341-17.824 2.44-.737 2.815-8.17 2.853-9.671.049-2.114-3.95-1.136-6.346 5.014-12.27 5.754-5.544 6.706-7.796 3.296-7.796-.845 0-2.844-.772-4.441-1.715-2.227-1.316-2.904-2.45-2.904-4.86 0-7.001-1.29-12.51-3.163-13.512-1.654-.885-2.224-.238-4.746 5.382-1.576 3.514-3.958 7.472-5.293 8.797-5.48 5.438-14.964 7.424-22.477 4.707-3.749-1.355-3.935-2.086-1.821-7.145 3.221-7.71 1.158-20.943-3.748-24.038-2.337-1.474-8.66.79-12.608 4.516l-3.355 3.167.385 10.6c.297 8.15.81 11.237 2.22 13.351 1.01 1.513 1.404 2.75.877 2.75-.868 0-11.106-6.82-18.84-12.551l-3.069-2.274.948-7.004c.522-3.852.657-8.166.3-9.587-.946-3.77-4.72-3.383-9.55.981C49.68 27.28 45.2 37.66 42.927 53.316c-.698 4.813-1.59 8.75-1.981 8.75-.392 0-.964-2.137-1.271-4.75-1.231-10.452-3.817-24.772-4.619-25.573-.804-.804-10.001 10.03-12.942 15.244-.75 1.332-2.42 4.31-3.71 6.62-1.288 2.31-3.367 7.97-4.618 12.579-1.945 7.17-2.275 10.835-2.282 25.38-.008 18.49.73 21.938 7.586 35.43 4.804 9.454 14.52 23.416 19.533 28.07 2.857 2.653 3.16 1.804.357-1-4.702-4.701-9-15.477-9-22.562 0-16.514 14.995-35.423 30.854-38.906l3.124-.686-3.454-3.258c-3.6-3.395-7.527-11.186-7.52-14.92.007-4.49 3.603-8.474 9.13-10.115 9.894-2.938 18.815-1.1 21.587 4.447 2.583 5.17 1.118 13.65-3.41 19.75l-2.413 3.25h4.392c14.213 0 40.648 5.892 56.21 12.527 8.179 3.488 20.412 15.026 24.634 23.234 3.385 6.583 3.361 17.942-.052 24.579-3.285 6.387-10.284 12.683-18.634 16.764l-6.948 3.396-20.5-.076c-15.914-.059-23.633-.568-34.5-2.274-19.55-3.07-29.524-5.151-32.86-6.855-5.293-2.702-1.74.419 5.092 4.472 19.065 11.312 34.491 16.557 54.768 18.621 7.638.778 23.015-.238 27.5-1.816zM111.416 91.19c-8.127-4.956-12.807-16.58-10.459-25.977 3.067-12.27 18.773-19.389 27.72-12.565 4.937 3.766 8.148 9.205 9.386 15.9 2.1 11.36-1.023 18.771-9.54 22.64-5.32 2.416-13.147 2.417-17.107.003zm14.372-16.37c.29-3.424-2.566-10.868-4.67-12.168-.49-.303-2.409.468-4.264 1.714-3.815 2.563-4.75 6.169-2.811 10.849 1.894 4.573 4.565 6.009 8.332 4.48 2.558-1.04 3.16-1.9 3.413-4.874zm15.565 85.814c13.94-6.923 19.937-19.161 14.558-29.706-2.336-4.578-8.45-11.521-14.056-15.961-4.663-3.693-19.708-9.083-34.873-12.494-9.47-2.129-14.327-2.614-27.5-2.746-15.889-.159-16.04-.14-21.719 2.783-6.722 3.46-9.632 5.994-13.541 11.796-8.26 12.258-8.1 22.81.508 33.54 6.114 7.62 12.316 9.526 46.252 14.206 9.183 1.266 18.456 1.804 29 1.68 14.936-.176 15.713-.289 21.37-3.098zm-17.155-12.127c-5.639-3.95-7.034-14.3-2.773-20.572 3.308-4.867 9.432-6.584 14.546-4.078 5.034 2.468 7.661 9.684 6.072 16.681-1.633 7.196-4.208 9.53-10.513 9.53-3.006 0-6.02-.642-7.332-1.561zM61.204 133.27c-2.463-1.896-3.86-7.533-2.856-11.53.807-3.218 6.791-6.092 10.95-5.26 7.595 1.519 10.197 9.444 5.094 15.51-2.136 2.538-3.317 3.072-6.75 3.054-2.402-.013-5.124-.763-6.438-1.774zm10.6-56.537c.245-1.264-.419-1.667-2.75-1.667-3.528 0-3.677.254-1.457 2.473 1.898 1.9 3.751 1.544 4.207-.806zm104.177-30.7c0-3.848-7.117-11.622-11.971-13.076-2.11-.632-5.372-.861-7.249-.51l-3.412.64 8.816 9.003c4.848 4.952 8.816 9.525 8.816 10.164 0 .638 1.125.104 2.5-1.188 1.462-1.374 2.5-3.462 2.5-5.033zM23.36 31.648c1.99-2.43 3.62-4.707 3.62-5.059 0-2.859-14.673-15.523-17.985-15.523-1.489 0-1.242 10.525.335 14.282 1.26 3.002 8.279 10.718 9.75 10.718.362 0 2.288-1.988 4.28-4.418z"/>
</svg>
