<svg xmlns="http://www.w3.org/2000/svg" version="1.0" viewBox="0 0 100 100">
    <path d="M50 0C22.398 0 .02 22.37 0 49.969v38.687C.015 94.923 5.105 100 11.375 100h38.656C77.637 99.989 100 77.607 100 50c0-27.615-22.385-50-50-50zm14.688 11.844c1.966 0 3.367.243 5.187.718 2.654.695 4.812 2.845 4.813 5.376 0 3.059-2.212 5.312-5.532 5.312-1.58 0-2.154-.312-4.468-.312-6.833 0-12.395 5.542-12.407 12.374v10.75c0 .965.784 1.75 1.75 1.75h8.157a5.449 5.449 0 0 1 5.468 5.469c.002 3.059-2.466 5.469-5.531 5.469h-9.844v12.438c0 12.959-10.509 23.468-23.469 23.468-1.966 0-3.336-.243-5.156-.718-2.654-.695-4.843-2.876-4.844-5.407 0-3.059 2.244-5.281 5.563-5.281 1.58 0 2.123.312 4.437.312 6.833 0 12.395-5.542 12.407-12.374v-10.75c0-.965-.784-1.75-1.75-1.75h-8.157a5.449 5.449 0 0 1-5.468-5.469c-.002-3.059 2.466-5.469 5.531-5.469h9.844V35.312c0-12.959 10.509-23.468 23.469-23.468z"/>
</svg>
