<svg xmlns="http://www.w3.org/2000/svg" viewBox="0 0 88.22 100">
    <path d="M44.073 1.966c-23.242 0-42.087 18.788-42.087 41.948s18.845 41.93 42.087 41.93 42.087-18.77 42.087-41.93a41.66 41.66 0 0 0-5.574-20.842c-2.014 3.529-3.889 6.307-4.61 7.029-2.166 2.165-7.845.009-12.674-4.82-4.83-4.83-6.987-10.508-4.821-12.674.732-.732 3.57-2.653 7.17-4.698a42.003 42.003 0 0 0-21.578-5.942z"/>
    <path d="M82.251.003c-1.705-.04-3.616.281-5.627.824-3.842 1.037-8.002 2.91-11.517 4.873C58.803 2.16 51.731.827 44.09.827c-7.748 0-14.995 2.093-21.28 5.68C17.389 3.437 10.48.08 5.491.108c-1.57.01-3.034.406-4.067 1.438C.305 2.665-.045 4.27.004 5.98c.05 1.71.484 3.624 1.14 5.627 1.25 3.819 3.338 7.944 5.311 11.428C3.007 29.23 1.004 36.33 1.004 43.914 1.004 67.684 20.318 87 44.09 87s43.086-19.315 43.086-43.086c0-7.524-1.009-13.88-4.453-20.088 1.975-3.554 3.776-7.895 4.75-11.92.51-2.105.803-4.105.737-5.872-.065-1.768-.467-3.379-1.577-4.488C85.535.448 83.955.043 82.25.003zm-.053 2.244c1.375.032 2.323.377 2.84.894.51.51.875 1.507.93 2.962s-.19 3.306-.667 5.277c-.954 3.942-2.834 8.43-4.803 11.867l-.315.56.333.561c3.469 5.977 4.417 11.982 4.417 19.545 0 22.558-18.285 40.843-40.843 40.843S3.247 66.471 3.247 43.913A40.605 40.605 0 0 1 8.68 23.58l.317-.56-.316-.544c-2.007-3.494-4.17-7.816-5.399-11.57-.614-1.876-.995-3.61-1.034-4.977s.262-2.279.771-2.788c.477-.476 1.281-.782 2.49-.788 4.006-.023 11.38 3.327 16.74 6.398l.56.315.561-.315c6.08-3.592 13.15-5.68 20.72-5.68 7.619 0 14.46 1.3 20.473 4.838l.561.333.561-.315C69.146 5.948 73.468 4.013 77.22 3c1.876-.506 3.603-.786 4.978-.754z"/>
</svg>
