<svg xmlns="http://www.w3.org/2000/svg" viewBox="0 0 218.68 229.258" height="244.542" width="233.259">
    <path d="M31.726 227.579c-16.48-4.303-28.5-17.68-31.138-34.656-2.5-16.081 2.695-27.61 21.038-46.682 6.242-6.49 15.824-15.697 21.294-20.46l9.945-8.662-11.294-5.974C19.613 99.529 11.816 93.1 7.042 82.672c-2.195-4.795-2.45-6.48-2.056-13.62.37-6.704 1.096-9.54 4.104-16.004C20.37 28.803 44.658 9.142 72.362 1.828c9.226-2.434 27.362-2.438 36.415-.007 28.558 7.67 79.224 45.625 100.226 75.083 6.661 9.342 8.838 14.62 9.483 23 1.222 15.86-2.963 23.807-23.182 44.028-26.618 26.62-61.625 51.886-94.946 68.53-30.125 15.047-51.156 19.679-68.632 15.116zm94.551-138.043c13.36-5.97 19.929-20.418 14.439-31.759-2.516-5.196-12.811-15.015-20.08-19.15-12.438-7.077-22.99-7.71-34.67-2.08C62 48.101 70.704 81.258 100.277 91.06c6.117 2.027 19.854 1.222 26-1.524zm-12.5-14.987c-3.584-2.079-5.877-2.625-11.271-2.684-8.436-.093-10.271-1.552-10.131-8.054.149-6.939 2.815-9.832 9.415-10.214 4.327-.251 6.497.276 11.724 2.85 10.068 4.956 13.04 12.005 7.513 17.818l-2.75 2.893-4.5-2.61z"/>
    <path d="M92.749 66.51s1.063 8.543 11.843 11.814c10.885 1.883 13.626-1.537 13.626-1.537" fill="none" stroke="#000" stroke-width=".6" stroke-linejoin="round"/>
</svg>
