<svg xmlns="http://www.w3.org/2000/svg" height="100" viewBox="0 0 91.3 100" width="91.3">
    <path d="M88.172 69.623c-2.523-5.838-5.664-13.104-5.664-26.07C82.508 19.691 65.832.279 45.337.279S8.167 19.692 8.167 43.553c0 16.334-3.563 25.502-5.921 31.568C.992 78.35 0 80.902 0 83.281c0 .604.177 1.022.54 1.283.359.258.926.389 1.685.389 1.905 0 4.729-.815 7.46-1.604 2.784-.806 5.663-1.638 7.684-1.638.226 0 .441.011.641.029 4.319.443 5.987 3.385 7.46 5.979 1.026 1.808 1.995 3.517 3.728 4.366.531.262 1.157.39 1.913.39 2.435 0 5.67-1.349 8.8-2.651 3.13-1.304 6.086-2.535 8.364-2.535 3.259 0 6.33 1.912 9.298 3.764C60.007 92.571 62.306 94 64.266 94a3.44 3.44 0 0 0 1.268-.229c3.508-1.359 4.442-3.081 5.436-4.904.783-1.438 1.592-2.925 3.68-4.131 1.914-1.105 4.825-1.197 7.404-1.197.419 0 .838.004 1.253.006.409.002.815.006 1.217.006 4.392 0 6.772-.438 6.772-2.739-.003-3.974-1.45-7.316-3.124-11.189zM50.023 41.937c-3.554 0-6.8-2.584-8.079-6.43a.49.49 0 0 0-.931 0c-1.278 3.846-4.525 6.43-8.08 6.43-4.771 0-8.652-4.494-8.652-10.016s3.881-10.015 8.652-10.015c3.556 0 6.802 2.581 8.08 6.42a.49.49 0 0 0 .931 0c1.277-3.84 4.523-6.42 8.079-6.42 4.771 0 8.651 4.493 8.651 10.015s-3.881 10.016-8.651 10.016z"/>
    <path d="M51.814 33.728a3.967 3.967 0 0 1-3.959 3.976 3.967 3.967 0 0 1-3.96-3.976 3.967 3.967 0 0 1 3.96-3.975 3.967 3.967 0 0 1 3.959 3.975zm-12.564 0a3.967 3.967 0 0 1-3.96 3.976 3.968 3.968 0 0 1-3.959-3.976 3.968 3.968 0 0 1 3.959-3.975c2.187 0 3.96 1.78 3.96 3.975z"/>
</svg>
