<svg xmlns="http://www.w3.org/2000/svg" width="497.192" height="497.197">
    <path d="M-288.697 716.322c.356-.092.85-.086 1.097.014.248.1-.043.176-.647.169-.603-.007-.806-.09-.45-.183zm6.217 0c.356-.092.85-.086 1.097.014.248.1-.043.176-.647.169-.603-.007-.806-.09-.45-.183zm26.233-10.49c0-.076.288-.364.64-.64.58-.455.593-.442.138.138-.477.61-.778.803-.778.502zm-33.005-135.418c.251-.102.662-.102.914 0 .251.101.046.184-.457.184s-.709-.083-.457-.184zm8.967-.012c.355-.092.85-.086 1.097.014.247.1-.044.176-.647.168-.604-.007-.806-.089-.45-.182zm-38.545-12.455c-.455-.58-.442-.593.138-.138.609.478.803.778.502.778-.076 0-.364-.288-.64-.64zm69.898-1.005c.472-.503.94-.915 1.041-.915.1 0-.203.412-.676.915-.472.502-.94.914-1.041.914-.101 0 .203-.412.676-.914zm3.474-3.475c.364-.402.744-.731.845-.731.1 0-.115.329-.48.731-.363.403-.744.732-.844.732-.1 0 .115-.33.479-.732zm-79.224-1.371c-.455-.58-.442-.593.138-.138.61.478.803.778.502.778-.076 0-.364-.288-.64-.64zm92.601-27.002c.018-.426.105-.513.221-.221.106.264.093.58-.029.701-.121.122-.208-.095-.192-.48zm-104.96-1.829c.018-.426.105-.512.221-.22.106.263.093.579-.029.7-.121.122-.207-.094-.192-.48zm105.355-1.615c0-.503.083-.708.184-.457.102.251.102.663 0 .914-.101.252-.184.046-.184-.457zm.013-7.863c.007-.603.09-.806.183-.45.092.356.086.85-.014 1.097-.1.248-.176-.043-.169-.647zm-105.368-1.493c.018-.426.105-.513.221-.221.106.264.093.58-.029.701-.121.122-.208-.095-.192-.48zm11.674-28.085c0-.076.288-.364.64-.64.58-.455.593-.442.138.138-.477.61-.778.803-.778.502zm80.41-1.599c-.454-.58-.441-.593.139-.138.609.478.803.778.502.778-.076 0-.364-.288-.64-.64zm-4.559-4.571l-.696-.823.822.697c.774.654.99.949.697.949-.07 0-.44-.37-.823-.823zm-69.268-.413c0-.076.288-.364.64-.64.58-.455.593-.442.138.138-.478.61-.778.803-.778.502zm177.097-51.33a26.745 26.745 0 0 1 3.475 0c.955.075.173.137-1.738.137-1.91 0-2.692-.062-1.737-.137zm-5.28-.347c.264-.106.58-.093.701.029.122.121-.094.208-.48.192-.426-.018-.512-.104-.22-.221zm13.166 0c.264-.106.58-.093.701.029.121.121-.095.208-.48.192-.426-.018-.513-.104-.221-.221zm29.326-13.465c.472-.502.94-.914 1.041-.914.101 0-.203.412-.676.914-.472.503-.94.915-1.041.915-.1 0 .203-.412.676-.915zm-73.36-1.737l-.697-.823.822.697c.774.655.99.95.697.95-.07 0-.44-.371-.823-.824zm76.651-1.554c.473-.503.941-.914 1.042-.914.1 0-.204.411-.676.914-.473.503-.941.914-1.042.914-.1 0 .204-.411.676-.914zm-79.772-1.92c-.455-.58-.442-.593.138-.138.352.276.64.564.64.64 0 .301-.3.107-.778-.502zm230.08-6.812c0-.076.289-.364.64-.64.58-.455.594-.442.139.138-.478.609-.778.803-.778.502zm-671.497-2.697c-.455-.58-.442-.593.138-.138.609.478.803.778.502.778-.076 0-.364-.288-.64-.64zm534.75-18.59c.017-.426.104-.513.22-.221.106.264.093.58-.028.701-.122.121-.208-.095-.193-.48zm-105.284-1.798c.007-.604.09-.806.182-.45.093.355.087.85-.013 1.097-.1.247-.176-.044-.169-.647zm105.705-3.84c0-.704.075-.992.167-.64.092.352.092.928 0 1.28s-.167.064-.167-.64zm147.735.183c.007-.604.09-.806.182-.45.093.355.087.85-.013 1.097-.1.247-.176-.044-.169-.647zm-693.028-1.097c.007-.604.089-.806.182-.45.092.355.086.849-.014 1.097-.1.247-.176-.044-.168-.647zm439.575-2.743c0-.503.083-.709.184-.457.102.251.102.662 0 .914-.101.251-.184.046-.184-.457zm105.296-2.042c.018-.426.105-.513.221-.221.106.264.093.58-.028.7-.122.122-.208-.094-.193-.48zm148.157-.335c.007-.604.09-.806.182-.45.093.355.087.849-.013 1.097-.1.247-.176-.044-.169-.647zm-693.042-1.646c0-.503.083-.709.185-.457.101.251.101.663 0 .914-.102.251-.185.046-.185-.457zm443.217-12.282c.017-.426.104-.513.22-.221.107.264.094.58-.028.7-.122.122-.208-.094-.192-.48zm239.102-12.13c-.455-.58-.442-.593.138-.138.352.276.64.564.64.64 0 .301-.3.108-.778-.502zm-672.137-.96c0-.076.288-.364.64-.64.58-.455.593-.442.138.138-.477.609-.778.802-.778.501zm521.115-2.697l-.886-1.005 1.006.886c.94.829 1.173 1.125.886 1.125-.065 0-.518-.453-1.006-1.006zm-3.657-3.657l-.886-1.006 1.005.887c.554.488 1.006.94 1.006 1.006 0 .287-.296.053-1.125-.887zm-71.47-29.44l-18.65-18.743 18.742 18.65c17.422 17.336 18.907 18.836 18.65 18.836-.05 0-8.485-8.434-18.742-18.743zm29.738 16.299c.264-.106.58-.093.701.029.122.121-.095.208-.48.192-.426-.018-.513-.104-.221-.221zm12.8 0c.264-.106.58-.093.701.029.122.121-.095.208-.48.192-.426-.018-.513-.104-.221-.221zm-7.52-.382a15.922 15.922 0 0 1 2.743 0c.754.078.137.143-1.372.143-1.508 0-2.125-.064-1.371-.143zm-183.727-57.425c-.455-.58-.442-.593.138-.139.61.478.803.779.502.779-.076 0-.364-.288-.64-.64zm90.881-16.354c-.113-.295-.135-.748-.049-1.006.086-.258.244-.016.35.537.206 1.08.036 1.346-.3.469zm2.086-10.648c.018-.426.105-.513.221-.221.106.264.093.58-.029.7-.121.122-.208-.094-.192-.48zm-104.96-1.463c.018-.426.105-.513.221-.221.106.264.093.58-.029.7-.121.122-.207-.094-.192-.48zm105.382-2.347c0-.704.075-.992.167-.64.092.352.092.928 0 1.28s-.167.064-.167-.64zm-.013-6.4c.007-.603.089-.806.182-.45.092.356.086.85-.014 1.097-.1.248-.176-.043-.168-.647zm-105.34-2.011c0-.503.083-.709.185-.457.101.251.101.662 0 .914-.102.251-.185.046-.185-.457zm91.71-30.263l-.888-1.006 1.006.887c.553.487 1.006.94 1.006 1.005 0 .287-.296.054-1.125-.886zm-3.848-3.84l-.697-.823.823.697c.773.654.99.949.697.949-.07 0-.44-.37-.823-.823zm-92.126-50.469L-380.772 99.8l39.588 39.496c21.774 21.723 39.589 39.538 39.589 39.589 0 .05-.042.092-.092.092-.05 0-17.866-17.815-39.589-39.589zm52.39 37.152c.25-.101.662-.101.914 0 .251.102.045.185-.458.185-.502 0-.708-.083-.457-.185zm8.41 0a1.42 1.42 0 0 1 .915 0c.251.102.046.185-.457.185s-.709-.083-.457-.185zM-316.59 34.746c0-.076.288-.364.64-.64.58-.455.593-.442.139.138-.478.61-.779.803-.779.502zm58.834-.867c-.455-.58-.442-.593.138-.138.61.477.803.778.502.778-.076 0-.364-.288-.64-.64zm-32.404-10.585c.356-.093.85-.087 1.097.013.248.1-.043.176-.647.169-.603-.007-.806-.09-.45-.182zm6.217 0c.356-.093.85-.087 1.098.013.247.1-.044.176-.647.169-.604-.007-.806-.09-.45-.182z" fill="#d2d2d2"/>
    <path d="M243.236 496.81c-4.022-.726-8.17-2.438-12.011-4.957-1.596-1.046-23.105-22.413-112.423-111.678-60.746-60.711-111.147-111.244-112-112.296-3.108-3.83-5.284-8.476-6.311-13.478-.49-2.383-.551-3.377-.45-7.235.1-3.787.228-4.876.827-7.104.84-3.117 2.742-7.227 4.657-10.06 1.09-1.614 17.192-17.865 76.77-77.482 41.466-41.492 75.512-75.44 75.658-75.44.146 0 12.798 12.532 28.115 27.85l27.85 27.85-.705 2.044c-2.762 8.001-2.8 16.894-.108 24.99 1.06 3.186 3.57 7.969 5.607 10.683 3.445 4.59 8.726 9.014 13.762 11.529l2.17 1.084v136.24l-2.853 1.483c-3.738 1.942-6.684 4.183-9.932 7.556-11.16 11.586-13.93 28.524-7.047 43.084 2.138 4.523 4.603 7.92 8.326 11.478 5.313 5.077 11.73 8.435 19.136 10.015 3.206.683 11.823.673 14.996-.018 15.621-3.4 26.94-14.735 30.378-30.418.68-3.105.827-9.802.289-13.224-1.853-11.789-8.71-21.856-18.894-27.739l-2.039-1.177v-66.933c0-36.813.09-66.933.198-66.933.11 0 11.497 11.3 25.307 25.11l25.11 25.11-.717 2.058c-1.931 5.549-2.525 12.853-1.52 18.722 4.418 25.825 32.176 39.912 55.542 28.187 10.693-5.366 18.187-15.365 20.562-27.436.743-3.774.796-9.856.118-13.609-2.906-16.087-15.11-28.347-31.335-31.48-3.263-.63-10.17-.628-13.417.004-1.303.254-3.112.68-4.021.95l-1.653.489-27.403-27.298-27.402-27.299.698-2.868c1.055-4.328 1.335-7.098 1.157-11.418-.272-6.565-1.993-12.431-5.276-17.983-5.927-10.026-16.295-16.925-27.918-18.577-4.541-.646-11.902-.107-16.043 1.175l-1.31.405-28.419-28.42-28.419-28.422 23.415-23.379c16.468-16.442 24-23.786 25.388-24.752 4.032-2.807 9.161-4.892 13.643-5.546 3.483-.508 9.574-.202 12.721.638 4.37 1.166 8.019 2.995 11.652 5.84 1.168.913 51.243 50.815 112.489 112.099 87.32 87.375 110.643 110.849 111.626 112.351 2.619 4.004 4.3 8.14 5.044 12.406.495 2.835.494 8.29 0 11.114-.759 4.327-2.72 8.99-5.408 12.86-1.968 2.835-221.046 221.913-223.88 223.881-3.87 2.689-8.534 4.65-12.86 5.408-2.76.484-8.666.467-11.435-.033z" fill="#7b7b7b"/>
</svg>
