<svg xmlns="http://www.w3.org/2000/svg" height="100" viewBox="0 0 329.49 523" width="63">
    <path d="M122.983 219.415c-63.299-6.663-52.667-104.848-1.665-131.593 33.789-17.72 79.406-16.946 109.94-4.998 57.914 22.668 73.289 51.637 81.621 108.278 8.33 56.634-19.578 206.45-86.625 223.209-59.968 14.991-83.108-14.079-76.626-41.645 6.663-28.318 39.505-65 41.644-89.951 4.998-58.303-68.297-63.3-68.297-63.3zM10.188 81.177c16.956 24.628 49.13 31.902 71.862 16.25 22.733-15.65 27.415-48.303 10.458-72.93S43.38-7.404 20.646 8.247C-2.084 23.9-6.768 56.552 10.188 81.178zM140.91 65.67c14.51 2.47 28.215-6.92 30.609-20.978s-6.87-35.186-21.38-37.657c-14.51-2.472-28.215 6.92-30.609 20.977-2.394 14.058 6.87 35.186 21.38 37.658zm47.054-10.151c8.217 11.655 20.257 13.897 32.287 5.416 12.031-8.48 14.861-32.669 6.645-44.325-8.217-11.653-20.256-13.896-32.287-5.414-12.031 8.48-14.86 32.668-6.645 44.323zm50.254 8.755c2.518 12.161 15.156 19.822 28.219 17.111 13.062-2.713 23.68-21.153 21.156-33.314-2.525-12.16-15.159-19.821-28.22-17.11-13.061 2.711-23.68 21.153-21.157 33.313zm53.06 17.415c-7.429 11.079-6.016 25.045 3.153 31.194 9.169 6.147 22.624 2.149 30.053-8.932 7.428-11.08 6.015-25.045-3.153-31.192-9.17-6.148-22.625-2.15-30.053 8.93z"/>
</svg>
