<svg xmlns="http://www.w3.org/2000/svg" viewBox="0 0 397.001 536.759">
    <path style="text-indent:0;text-align:start;line-height:normal;text-transform:none;block-progression:tb;marker:none;-inkscape-font-specification:Sans" d="M133.656 16.406l-.156.032C99.996 19.93 69.139 48.002 68.562 83.094v.031c-.437 15.366 2.54 31.45 10.594 45l.313.5.406.406c13.342 13.018 33.102 10.895 47.906 8.781h.063l.031-.03c28.613-4.886 57.879-22.145 68.031-51.376.008-.022.024-.04.031-.062.003-.01-.003-.022 0-.031 6.116-16.634 5.15-38.297-10.062-50.907-.082-.067-.137-.151-.219-.218l-.031.03c-13.892-12.84-33.018-19.615-51.844-18.812h-.125zm.75 8.907h.031c16.427-.625 33.385 5.435 45.344 16.593l.125.125.094.094c11.6 9.446 12.733 27.115 7.531 41.188v.062l-.031.031c-8.707 25.195-34.86 41.064-61 45.563-14.222 2.03-30.175 3.094-39.938-5.969-6.728-11.612-9.49-25.842-9.093-39.656v-.063c.474-29.844 27.836-54.92 56.937-57.969zm134.75 233.781l-.281.031-.313.031c-7.787 1.482-13.367 6.666-17 12.563-3.588 5.826-5.554 12.453-6.75 18.312-.014.07-.048.149-.062.219h.031c-1.09 4.36-1.218 9.315.313 14 1.524 4.666 5.203 9.142 10.843 10.656l.188.656c1.698 6.436 6.945 10.539 12.437 12.344 5.493 1.806 11.46 1.749 16.625.031l.344-.125.313-.156c5.32-2.779 8.303-7.596 10.187-12.219 1.884-4.622 2.923-9.3 4.188-12.875l.03-.156.063-.187c1.843-6.904 2.068-14.652 0-21.844-2.048-7.125-6.606-13.775-14-17.438v-.03c-.04-.023-.083-.041-.125-.063-.02-.011-.041-.02-.062-.032a32.667 32.667 0 0 0-16.969-3.718zm.813 8.937c4.195-.17 8.46.75 12.125 2.719l.062.063.094.03c4.982 2.413 7.933 6.66 9.469 12 1.535 5.34 1.414 11.679-.031 17.094-1.466 4.229-2.462 8.612-3.907 12.157-1.421 3.487-3.096 5.932-5.719 7.437-3.093.949-7.338 1.018-10.718-.093-3.107-1.022-5.212-2.726-6.219-5.25.116-.665.183-1.355.063-2.125-.253-1.61-1.37-3.12-2.375-3.875-2.011-1.513-3.393-1.501-4.25-1.75l-.094-.032-.094-.03c-2.683-.654-3.934-2.19-4.812-4.876-.878-2.687-.863-6.393-.125-9.25l.03-.094.032-.125c1.065-5.282 2.885-11.126 5.656-15.625 2.714-4.405 6.066-7.376 10.813-8.375zm-214.063 194.5a4.459 4.459 0 0 0-.437.031c-7.676.7-13.826 6.072-16.938 12.594-3.111 6.522-2.933 15.236 3.344 20.938a4.459 4.459 0 0 0 .906.625c15.194 8.118 32.926 5.775 47.657 1.937v-.031c3.59-.888 6.513-3.002 8.5-6.281 1.002-1.655 1.76-3.865 1.187-6.344-.566-2.45-2.5-4.47-4.75-5.594-.026-.013-.036-.05-.063-.062v.031c-10.646-5.482-21.466-9.112-30.718-14.938a4.459 4.459 0 0 0-.75-.375c-1.328-.516-3.83-2.517-7.938-2.53zm.125 8.969c.466.052 1.87.826 4.469 1.844.053.02.04.01.094.031 10.09 6.206 20.746 9.877 30.25 14.719-.715.74-2.06 1.785-2.563 1.906a4.459 4.459 0 0 0-.094.031c-13.617 3.548-28.75 5.127-40.593-.875-2.808-2.815-2.828-6.325-1-10.156 1.858-3.895 5.794-7.044 9.437-7.5z" font-weight="400" color="#000" fill="#040000" overflow="visible" font-family="Sans"/>
    <path style="text-indent:0;text-align:start;line-height:normal;text-transform:none;block-progression:tb;marker:none;-inkscape-font-specification:Sans" d="M176.094.031C134.725.773 91.299 17.273 65.78 51.406 39.791 48.415 12.453 64.338 5.187 90.25c-.026.096-.067.185-.093.281-5.84 16.927-9.263 39.467 4.562 55.375a4.459 4.459 0 0 0 .281.281c3.016 2.909 6.52 5 10.094 6.75-4.531 30.458-1.868 60.982-.375 90.75-.983 54.304-18.14 109.815-7.218 166.375a4.459 4.459 0 0 0 0 .063c5.966 28.596 21.134 57.671 47.812 73.031a4.459 4.459 0 0 0 .188.125c39.365 19.968 82.448 30.957 125.343 38.594 25.601 4.604 51.341 2.85 76.219 3.813a4.459 4.459 0 0 0 .25 0c24.946-.554 52.66-2.55 74.438-19.032l.03.031c16.654-12.264 26.57-30.443 33.876-48.468 4.38-.426 9.184-1.157 13.781-3.125 5.564-2.382 10.896-6.846 12.5-13.844a4.459 4.459 0 0 0 .125-1c.036-6.321-3.956-11.084-8.281-13.844-2.94-1.876-6.02-2.985-8.969-3.844 7.715-49.994-5.284-100.654-26.031-145.406-.015-.04-.016-.085-.031-.125-.03-.063-.065-.124-.094-.187C340.862 242.902 334.7 206 338.188 169.937l.03-.218c.002-.01 0-.021 0-.031 4.626-29.625 3.764-61.42-8.812-89.657 4.674-4.424 9.557-9.439 13.281-15.437 4.321-6.96 7.033-15.319 5.157-24.344a4.459 4.459 0 0 0-.094-.406c-2.76-9.138-9.87-15.395-17.969-18.563-7.878-3.081-16.803-3.426-24.812-1-.02.003-.042-.003-.063 0-.205.063-.42.09-.625.157-8.48 1.443-16.408 4.449-23.281 5.718C249.502 7.083 212.311-.437 176.125.031a4.459 4.459 0 0 0-.031 0zm.156 8.906h.031c35.464-.454 71.647 7.052 101.656 25.72a4.459 4.459 0 0 0 3 .624c8.98-1.348 17.603-4.951 25.407-6.187a4.459 4.459 0 0 0 .687-.188c6.04-1.962 13.407-1.727 19.5.657 6.04 2.362 10.685 6.596 12.594 12.718 1.229 6.242-.52 11.937-4.031 17.594-3.554 5.724-8.88 11.136-13.969 15.813a4.459 4.459 0 0 0-1.031 5.187c12.843 26.783 13.931 58.105 9.281 87.688a4.459 4.459 0 0 0-.031.25c-3.707 37.844 2.774 76.256 16.031 111.468a4.459 4.459 0 0 0 .125.313c20.888 44.952 33.524 95.53 24.875 144.437a4.459 4.459 0 0 0 3.438 5.125c3.272.704 7.323 1.963 10.125 3.75 2.631 1.68 3.92 3.31 4.062 5.844-.977 3.465-3.35 5.54-7.125 7.156-3.97 1.7-9.177 2.454-13.656 2.75a4.459 4.459 0 0 0-3.875 2.844c-7.127 18.152-16.65 35.74-31.938 47a4.459 4.459 0 0 0-.031.031c-19.118 14.499-44.701 16.673-69.312 17.219v.031c-25.419-.965-50.612.642-74.688-3.687a4.459 4.459 0 0 0-.031 0C144.89 505.535 102.7 494.689 64.5 475.312c-23.557-13.665-37.725-40.225-43.313-66.937-10.378-53.743 6.392-108.507 7.407-164.531a4.459 4.459 0 0 0 0-.281c-1.556-31.179-4.329-62.275.687-92.438a4.459 4.459 0 0 0-2.718-4.844c-3.88-1.59-7.428-3.703-10.25-6.375-10.432-12.169-8.132-31.158-2.72-46.719a4.459 4.459 0 0 0 .095-.28c6.031-22.023 31.137-36.27 53.406-32.5a4.459 4.459 0 0 0 4.375-1.813C94.655 25.996 136.366 9.66 176.25 8.937z" font-weight="400" color="#000" overflow="visible" font-family="Sans"/>
    <path style="text-indent:0;text-align:start;line-height:normal;text-transform:none;block-progression:tb;marker:none;-inkscape-font-specification:Sans" d="M238.875 490.719c-7.404.293-15.632 1.757-22.969 5.219-7.356 3.47-13.93 9.156-16.969 17.625l-.062.125-.031.125c-1.612 5.38.12 10.776 3.312 14.5a18.182 18.182 0 0 0 12.219 6.28c.233.021.453.083.688.094 17.545 3.494 35.557 2.057 52.437-.656l.906-.156.813-.531c5.11-3.318 6.363-9.353 5.687-14.032-.662-4.581-2.567-8.652-3.937-11.625-.029-.072-.065-.146-.094-.218h-.031c-1.764-4.356-4.524-8.517-8.344-11.657-3.703-3.043-8.541-4.991-13.906-4.78V491a65.82 65.82 0 0 0-9.5-.281c-.052.002-.104-.002-.156 0h-.063zm.375 7.812l.063 1.094c2.784-.133 5.601-.032 8.406.25l.406.031.406-.031c3.18-.257 5.842.782 8.313 2.813 2.47 2.03 4.58 5.094 5.844 8.28l.03.126.063.093c1.358 2.95 2.906 6.59 3.313 9.407.354 2.45.225 3.648-1.125 4.78-16.274 2.553-33.047 3.753-48.782.5l-.343-.062-.344-.03c-2.395-.115-5.006-1.429-6.594-3.282-1.58-1.844-2.165-3.836-1.5-6.094.003-.01-.003-.02 0-.03 2.133-5.728 6.522-9.644 12.313-12.376 5.867-2.768 13.08-4.124 19.562-4.375l-.031-1.094z" font-weight="400" color="#000" fill="#040000" overflow="visible" font-family="Sans"/>
    <path d="M69.626 153.833c-7.357 1.374-16.751 1.929-21.531 8.25-2.075 2.772-2.487 9.847 2.687 8.687 9.522-2.304 19.25-3.972 28.844-6.062-.355-5.4-3.652-11.77-10-10.875z" fill="none" stroke="#03324b" stroke-width="5.487" stroke-miterlimit="10"/>
    <path d="M307.876 32.208c-9.175 1.724-21.36 6.39-21.562 17.406-.055 5.636 8.569 10.548 11.78 4.531.817-3.604 7.916-3.133 7.188.97.56 4.761 6.72 6.589 9.813 2.75 5.76-3.435 13.358-10.454 9-17.782-3.336-5.336-10.116-7.992-16.219-7.875z" fill="#040000"/>
    <path style="text-indent:0;text-align:start;line-height:normal;text-transform:none;block-progression:tb;marker:none;-inkscape-font-specification:Sans" d="M136.125 16.594c-34.56 2.914-66.366 31.907-66.563 68.031v.031c-.232 15.094 2.798 30.932 10.657 44.188l.25.437.344.344c12.592 12.73 31.67 11.04 46.062 9.25H127c28.96-4.422 58.752-21.066 69.906-50.281h.031c.007-.018-.007-.045 0-.063 6.326-16.241 6.655-37.607-7.562-50.937-.05-.047-.075-.11-.125-.157l-.031.032c-13.744-13.983-33.44-21.318-52.844-20.875h-.25zm.656 8.218h.031c17.173-.324 34.77 6.331 46.688 18.532l.062.062.094.063c11.021 10.215 11.1 28.026 5.594 42.125v.031c-9.748 25.613-36.742 41.008-63.5 45.094-13.85 1.715-29.406 2.445-38.719-6.594-6.654-11.484-9.465-25.664-9.25-39.375v-.062c.155-31.243 28.62-57.297 59-59.876z" font-weight="400" color="#000" fill="none" overflow="visible" font-family="Sans"/>
    <path style="text-indent:0;text-align:start;line-height:normal;text-transform:none;block-progression:tb;marker:none;-inkscape-font-specification:Sans" d="M68.094 112.813l-.469.093c-2.172.346-4.125 1.498-5.344 2.875-1.218 1.378-1.808 2.784-2.281 3.938-.946 2.306-1.434 3.275-1.813 3.5l-.562.343-.438.5c-4.692 5.382-8.987 10.748-14 12-8.063-2.3-16.042 5.294-14.656 13.594-.26 6.091 1.737 12.154 5.469 16.906 3.586 4.567 9.034 7.841 15.375 8.094.383.016.735.133 1.125.125v-.062c1.468.144 2.998-.02 4.188-.719 1.495-.878 2.294-2.065 2.843-3.031.77-1.355.826-1.679.938-2.063 2.37-.585 4.484-1.455 6.187-2.062 1.33-.474 2.213-.643 2.938-.688.565.928 1.288 1.762 2.156 2.344 1.699 1.14 3.588 1.368 5.188 1.281 2.824-.152 5.088-1.194 7.03-2.531 14.59-6.504 22.553-24.806 15.594-39.719v-.031c-2.79-5.882-7.866-9.498-13.156-11.562-5.29-2.065-10.927-2.778-15.875-3.094l-.437-.031zm.594 8.312c4.347.313 8.947.984 12.75 2.469 3.982 1.554 6.956 3.775 8.687 7.406.004.009-.004.022 0 .031 4.723 10.17-1.344 24.146-11.531 28.688l-.438.218-.375.282c-.725.559-2.523 1.292-3.281 1.343l-.375-1.968-1.969-.875c-3.818-1.692-7.494-.62-10.281.375-2.787.994-5.182 2.016-6.531 2.156l-1.594.156-1.063 1.219c-1.708 1.965-1.924 3.236-2.187 3.938h-.188c-3.987.082-7.317-1.846-9.843-5.063-2.527-3.217-3.949-7.692-3.719-11.719l.031-.625-.156-.594c-.678-2.704 2.204-5.798 4.844-4.5l1.187.594 1.344-.25c9.515-1.662 14.85-9.704 19.281-14.812 2.78-2.143 3.647-5.129 4.313-6.75.37-.901.69-1.42.844-1.594.078-.089.204-.101.25-.125z" font-weight="400" color="#000" fill="#040000" overflow="visible" font-family="Sans"/>
    <path style="text-indent:0;text-align:start;line-height:normal;text-transform:none;block-progression:tb;marker:none;-inkscape-font-specification:Sans" d="M80.625 152.25l-3.594.656-1 .188-.844.156h-.03l-.032.031c-9.566 1.962-19.16 3.942-28.719 6l-2.718.594-.47 2.75c-.839 5.019-1.15 11.054.344 16.781 1.485 5.687 5.219 11.286 11.782 13.594v.031c.041.016.083.016.125.031 11.616 4.322 24.384-3.63 26.562-15.593h.031c.046-.155.051-.315.094-.47.01-.03.023-.061.031-.093 1.94-7.008 1.629-14.39-.468-21.156l-1.094-3.5zm-5.938 9.531c.836 4.477.76 9.077-.5 13.344l-.093.281-.031.281c-1.074 7.093-9.136 12.181-15.782 9.657l-.062-.031-.063-.032c-3.79-1.298-5.578-3.96-6.625-7.968-.836-3.202-.77-7.034-.406-10.625 7.849-1.678 15.693-3.29 23.563-4.907z" font-weight="400" color="#000" fill="#040000" overflow="visible" font-family="Sans"/>
    <path d="M25.751 79.02c-8.708 1.34-11.743 11.056-14.344 18.125.793 2.5-1.694 3.11-1.468 6-1.432 6.996-3.827 17.396 3.5 21.907 8.08 4.2 17.707-3.053 18.612-11.477 2.935-9.96 7.375-22.44.825-31.836-1.832-1.888-4.483-2.965-7.125-2.719zm83.781-35.25C89.158 45.166 76.715 71.1 85.69 88.614c7.118 10.179 24.068 7.496 29.906-2.812 8.058-10.388 12.799-26.905 3.375-37.875-2.336-2.627-5.863-4.426-9.438-4.157zm-57.75 67.657c-14.722-.274-23.44 16.61-20.812 29.78-.049 7.53 8.425 14.805 15.594 10.438 12.548-5.698 22.074-16.881 28.593-28.718 1.042-7.576-8.136-10.273-14.016-10.89-3.082-.51-6.223-.737-9.359-.61z" fill="#040000"/>
</svg>
