<svg xmlns="http://www.w3.org/2000/svg" viewBox="0 0 81.75 100">
    <path fill="#23233a" d="M45.469.344c-5.112.071-10.227.798-15.094 2.187-3.582 1.167-6.955 2.86-10.063 4.938-9.18 5.744-16.099 14.975-18.656 25.5C-1.001 43.162.542 54.177 4.469 63.844c2.855 6.243 6.572 12.745 13 15.937 12.569 7.313 27.96 8.382 41.969 5.219 5.645-1.128 11.155-2.76 16.718-4.22v-.374l1.063-.281v-20.47c1.397-1.384 2.79-2.77 4.187-4.155-7.826.056-15.642.132-23.468.188-2.852 1.607-5.712 3.205-8.563 4.812h.156l-1.22.688 16.127-.688c.054 6.103.1 12.21.156 18.312-12.011 4.089-26.426 2.929-36.188-5.656-8.4-6.66-14.177-16.64-14.812-27.375-1.912-9.46-.968-19.898 4.812-27.937 2.499-3.43 5.31-6.901 8.844-9.313.07-.048.149-.078.219-.125a17.459 17.459 0 0 1 4.5-1.844c6.103-1.662 12.74-2.254 18.937-.781 5.89 1.824 10.557 6.127 14.844 10.344-.894 1.552-1.762 3.105-2.656 4.656 1.563-.546 3.48-.474 4.687-1.625.604-.255 1.138-.633 1.53-1.25 2.58-2.652 5.173-5.285 7.75-7.937C68.012 3.295 56.715.187 45.47.344z"/>
</svg>
