<svg xmlns="http://www.w3.org/2000/svg" viewBox="0 0 81 100">
    <path fill-rule="evenodd" d="M40.457.054c-1.84.05-3.208 1.651-3.208 1.651S2.295 40.65.706 42.505c-.826.962-.792 1.925-.57 2.629v4.638c0 .542.436.979.978.979H5.77V90c63.108-.023 16.52 0 69.325 0V50.75h4.928a.977.977 0 0 0 .978-.98v-5.208a.991.991 0 0 0-.179-.578c-.146-.871-.672-1.481-.672-1.481s-6.217-6.923-11.046-12.297v-13.03c0-2.607-1.428-4.722-3.183-4.722H59.57c-1.515 0-2.78 1.576-3.098 3.685-6.162-6.877-11.7-13.073-12.867-14.435C42.513.43 41.42.028 40.457.054zM28.185 36.981h1.43v3.549h-1.566c-2.166 0-3.578.37-4.238 1.098-.661.728-.996 2.254-.996 4.587v6.153c0 2.598-.349 4.485-1.055 5.66-.692 1.174-1.885 1.969-3.575 2.382 1.705.447 2.909 1.26 3.6 2.434.691 1.175 1.03 3.053 1.03 5.634v6.153c0 2.333.335 3.868.996 4.596.66.728 2.072 1.089 4.238 1.089h1.566v3.574h-1.43c-3.825 0-6.387-.614-7.693-1.838-1.29-1.224-1.932-3.662-1.932-7.319v-5.932c0-2.498-.421-4.231-1.251-5.19-.83-.96-2.33-1.44-4.51-1.44h-1.413v-3.548h1.413c2.196 0 3.696-.47 4.51-1.413.83-.96 1.251-2.674 1.251-5.14v-5.957c0-3.657.641-6.085 1.932-7.293 1.306-1.225 3.868-1.839 7.693-1.839zm23.369 0h1.447c3.825 0 6.376.614 7.65 1.838 1.291 1.208 1.94 3.637 1.941 7.294v5.957c0 2.465.413 4.18 1.242 5.14.83.943 2.338 1.413 4.52 1.413h1.42v3.549h-1.42c-2.182 0-3.69.478-4.52 1.438-.83.96-1.242 2.693-1.242 5.191v5.932c0 3.657-.65 6.094-1.94 7.319-1.275 1.224-3.826 1.838-7.651 1.838h-1.447v-3.574h1.608c2.151 0 3.55-.353 4.196-1.064.66-.712.996-2.255.996-4.621v-6.153c0-2.581.338-4.46 1.03-5.634.69-1.175 1.894-1.987 3.6-2.434-1.706-.414-2.91-1.208-3.6-2.383-.692-1.175-1.03-3.062-1.03-5.66v-6.152c0-2.35-.335-3.876-.996-4.587-.645-.728-2.045-1.098-4.196-1.098h-1.608v-3.55zM30.236 45.96h11.778c3.502 0 6.191.838 8.06 2.519 1.88 1.668 2.816 4.051 2.816 7.148 0 3.111-.936 5.51-2.817 7.192-1.868 1.667-4.556 2.502-8.059 2.502h-4.68V75.6h-7.098V45.959zm7.098 5.54v8.28h3.923c1.376 0 2.442-.357 3.191-1.072.75-.728 1.124-1.757 1.124-3.08 0-1.324-.374-2.341-1.124-3.056-.75-.715-1.815-1.072-3.191-1.072h-3.923z"/>
</svg>
