<svg xmlns="http://www.w3.org/2000/svg" height="100" width="90" viewBox="0 0 72 80">
    <path d="M31.332 8.523a1.744 1.744 0 0 0-.256.019c-4.002-.016-8.009.023-12.011.028-2.206-.028-4.103 1.53-5.042 3.437l-5.497 9.21-7.453 12.04c-1.211 1.53-1.445 3.703-.456 5.42 4.482 7.338 9.01 14.645 13.51 21.972.89 1.784 2.577 3.2 4.634 3.313 3.795.058 7.588.02 11.384.038 1.83.008 3.695-.837 2.288-2.772-4.717-7.714-9.43-15.442-14.146-23.16-.174-.256-.342-.518-.513-.778l.038-.332c.032-.073.05-.194.057-.361.229-1.33.74-2.547 1.34-3.732 4.46-7.287 8.923-14.583 13.386-21.866.922-1.12.03-2.495-1.263-2.478zm10.16.037c-.805.069-1.956-.113-2.355.798-.292.775.175 1.525.551 2.174l14.403 23.252c.016.496.024 1.007-.01 1.51-.009.104-.014.21-.028.313v.01a6.295 6.295 0 0 1-.598 2.004 2.907 2.907 0 0 1-.038.066c-.034.067-.067.134-.104.2-.005.009-.014.02-.02.028a5.148 5.148 0 0 1-.313.484c-4.505 7.369-9.047 14.723-13.53 22.104-.802 1.215.113 2.425 1.443 2.383l12.286.067c2.137-.077 4.006-1.54 4.9-3.437 1.503-2.62 3.086-5.196 4.643-7.786l.683-1.13c2.69-4.135 5.161-8.414 7.786-12.599 1.086-1.61 1.07-3.835 0-5.45L57.469 11.205c-.938-1.572-2.71-2.619-4.548-2.611l-11.431-.03z"/>
</svg>
