<svg xmlns="http://www.w3.org/2000/svg" viewBox="0 0 100 100">
    <path d="M68.623 67.451c-.003-.2-.013-.315-.013-.315v.001a13.396 13.396 0 0 0-.529-3.075 12.2 12.2 0 0 0-1.966-3.802h.001l-.027-.033a9.663 9.663 0 0 0-.788-.918 19.116 19.116 0 0 0-1.228-1.19 33.654 33.654 0 0 0-2.245-1.824l-.035-.03c-3.352-2.735-5.066-2.793-5.066-5.831 0-1.228 1.1-3.173 4.094-5.476s5.3-5.271 5.295-8.917c-.004-3.603-1.395-6.47-1.395-6.47l-.002.004c-.78-1.847-1.993-3.441-3.516-4.722l.001-.002s-.204-.594.129-1.003c.332-.41 2.66-3.608 2.66-3.608s.41-.588.256-.895c-.153-.307-2.072-1.868-2.072-1.868s-.41-.128-.87.23c-.46.359-5.323 3.335-6.5 3.446-1.176.11-4.093.175-4.093.175v.007a18.15 18.15 0 0 0-4.493.658c-8.466 2.346-13.677 10.208-11.64 17.56 1.748 6.305 8.26 10.183 15.42 9.68-.387.62-.772 1.595-.772 3.018 0 2.474 1.962 4.785 2.499 5.37-.114-.005-.226-.01-.35-.01-1.343 0-4.682.038-7.617.504-.024.003-.047.008-.071.012a16.14 16.14 0 0 0-3.176.72 28.642 28.642 0 0 0-3.188 1.329c-.537.25-1.05.553-1.586.858a14.32 14.32 0 0 0-1.562 1.06c-.508.396-1.005.839-1.464 1.343-.232.25-.453.516-.67.792-.207.283-.407.575-.593.883a9.553 9.553 0 0 0-1.063 2.6c-.364 1.297-.72 3.186-.428 5.034.514 3.275 2.776 5.568 5.304 7.352.942.713 1.968 1.238 2.992 1.658 1.083.454 1.805.608 1.805.608l-.003-.005c.794.217 1.584.373 2.368.48l-.001.004s9.453 1.635 16.886-2.14a21.06 21.06 0 0 0 3.48-2.2c.329-.245.652-.498.963-.767 1.675-1.505 3.109-3.312 4.106-5.534a10.7 10.7 0 0 0 .33-.873c.058-.201.104-.367.143-.537.043-.171.073-.344.107-.518a12.687 12.687 0 0 0 .183-2.823zM41.528 37.996c-2.015-6.207.1-12.455 4.722-13.955 4.623-1.5 10.004 2.315 12.018 8.521 2.015 6.207-.1 12.455-4.722 13.955-4.622 1.5-10.004-2.315-12.018-8.521zM39.297 75.5a8.411 8.411 0 0 1-1.28-1.757c-.336-.623-.565-1.29-.742-1.988a8.289 8.289 0 0 1-.108-.533l-.037-.253-.024-.185-.006-.044.003.02-.001-.017-.005-.062a8.227 8.227 0 0 1-.03-.975 9.28 9.28 0 0 1 .245-1.94 5.88 5.88 0 0 1 .15-.51 6.25 6.25 0 0 1 .182-.528 8.724 8.724 0 0 1 2.1-3.087 10.127 10.127 0 0 1 2.19-1.565c.797-.427 1.64-.785 2.476-1.006.47-.119.946-.23 1.426-.334.48-.098.967-.18 1.453-.264.974-.16 1.955-.314 2.941-.43.836-.088 1.68-.18 2.516-.236h1.747l.068.052.059.048c.06.049.122.094.182.142 1.407 1.116 7.182 5.86 8.09 9.192 1.034 3.788-2.32 9.11-8.616 10.051a19.107 19.107 0 0 1-1.94.172 30.365 30.365 0 0 1-3.578-.072 22.717 22.717 0 0 1-2.77-.43c-1.795-.409-3.481-1.065-4.867-1.963a10.25 10.25 0 0 1-1.825-1.498z"/>
    <path d="M78.576 13.313c2.42 0 4.704.952 6.432 2.68a9.044 9.044 0 0 1 2.678 6.431v57.152a9.04 9.04 0 0 1-2.68 6.432 9.044 9.044 0 0 1-6.432 2.678H21.423c-2.42 0-4.704-.95-6.432-2.678a9.045 9.045 0 0 1-2.68-6.433V22.424c0-2.42.952-4.705 2.68-6.432s4.012-2.68 6.432-2.68h57.151m0-3.313H21.423C14.59 10 8.999 15.59 8.999 22.424v57.151C8.999 86.408 14.589 92 21.423 92h57.151C85.408 92 91 86.41 91 79.575V22.424c0-6.834-5.591-12.425-12.425-12.425z"/>
</svg>
