<svg xmlns="http://www.w3.org/2000/svg" overflow="visible" viewBox="0 0 506.882 509.942" height="509.942" width="506.882">
    <path d="M346.211 256.93c0-50.395-40.852-91.238-91.233-91.238-50.38 0-91.233 40.844-91.233 91.238 0 50.383 40.854 91.229 91.233 91.229 50.381 0 91.233-40.846 91.233-91.229"/>
    <path d="M254.977 509.942c127.36 0 232.89-93.383 251.905-215.406h-81.901l-74.143 128.422H159.117L63.255 256.93l74.536-129.088-41.7-72.225C37.554 102.344 0 174.254 0 254.971c0 140.816 114.162 254.971 254.977 254.971m251.75-295.395C487.355 92.942 382.036 0 254.977 0c-31.435 0-61.52 5.721-89.321 16.117l43.17 74.773h142.013l71.385 123.656h84.503z"/>
</svg>
