<svg xmlns="http://www.w3.org/2000/svg" viewBox="0 0 100 100">
    <path d="M49.289.185c-3.288.044-6.607.374-9.628.978-7.786 1.558-14.546 4.801-21.095 10.135-1.584 1.29-6.004 5.7-7.403 7.386-2.488 3.001-4.493 6.062-6.087 9.291-1.402 2.84-1.866 4.064-2.9 7.588-.85 2.892-.973 3.352-1.417 5.834-.47 2.628-.755 6.14-.759 9.241-.004 3.517.788 9.075 1.889 13.271.479 1.826 1.354 4.473 1.838 5.531.21.461.587 1.291.826 1.855a21.92 21.92 0 0 0 1.18 2.277c.414.682 1.08 1.775 1.468 2.428.882 1.486 1.901 2.918 3.406 4.789 9.146 11.377 20.638 17.75 34.383 19.055 2.957.28 8.779.171 11.77-.22 10.957-1.43 20.346-6.08 28.566-14.148 2.425-2.381 4.478-4.822 5.986-7.116a221.82 221.82 0 0 1 2.007-3.002c1.305-1.898 3.475-6.626 4.418-9.612 1.747-5.531 2.574-12.717 2.158-18.937-.196-2.933-.882-7.523-1.4-9.392a34.13 34.13 0 0 1-.455-1.838c-.375-1.825-2.83-7.515-4.435-10.251-2.127-3.626-4.838-7.078-8.127-10.37C77.48 6.951 68.135 2.219 57.233.658 55.151.36 52.936.212 50.69.186c-.468-.006-.93-.006-1.4 0zM27.385 28.7c4.905-.014 12.302-.01 22.276 0l29.493.017.034.556c.071 1.224-.637 4.659-1.316 6.34a38.794 38.794 0 0 0-.64 1.72c-.28.827-.72 1.655-1.872 3.525-2.173 3.523-6.042 7.245-9.882 9.494-1.802 1.055-4.237 2.166-5.564 2.546-.661.19-2.53 1.973-3.34 3.187a9.77 9.77 0 0 1-.64.86c-.376.42-1.098 2.203-1.332 3.271-.17.776-.215 1.408-.22 3.255-.002 1.256.027 2.522.068 2.816.297 2.13 1.912 6.775 3.423 9.814.264.531.576 1.162.675 1.4.099.237.393.797.657 1.247.545.929.584 1.217.237 1.737-.772 1.157-3.592 2.146-7.2 2.53-1.323.14-3.55.181-4.385.084l-1.35-.152c-2.201-.25-4.864-1.025-5.85-1.703-.579-.398-1.046-1.032-1.046-1.417 0-.147.632-1.515 1.4-3.035 1.875-3.712 2.2-4.578 3.288-8.667.644-2.421.766-5.872.287-8.044-.481-2.18-2.152-4.889-3.811-6.155-.933-.711-1.118-.81-1.788-1.045-1.874-.658-4.317-1.829-5.97-2.867-1.619-1.017-2.641-1.805-4.147-3.153-2.861-2.56-4.715-4.955-6.324-8.162-1.376-2.741-2.024-4.763-2.411-7.605-.252-1.846-.266-2.187-.118-2.31.045-.037 2.464-.07 7.369-.084zM9.679 40.976h11.365l.22.472c.113.264.528.932.927 1.484.399.552 1.065 1.49 1.484 2.074.909 1.268 3.548 3.878 5.042 4.992 2.39 1.78 4.908 3.201 6.981 3.929.727.255 1.315.482 1.315.522 0 .206-1.68 1-2.748 1.299-1.3.363-1.614.58-2.226 1.534-.494.77-1.04 2.437-1.164 3.524-.123 1.088-.035 2.094.371 3.98.4 1.85.763 2.826 1.855 4.991.552 1.095.995 2.075.995 2.176 0 .25-.581.813-1.13 1.079-.737.357-1.859.638-3.237.81-1.217.15-2.054.172-2.8.084-1.98-.236-3.11-.46-3.895-.793-.63-.266-1.23-.83-1.23-1.147 0-.142.457-1.187 1.028-2.327 1.609-3.214 2.229-5.379 2.226-7.858-.002-1.663-.204-2.58-.793-3.676-.889-1.652-1.219-1.919-3.1-2.477-1.622-.48-3.658-1.669-5.43-3.187-2.36-2.02-2.899-2.64-4.133-4.789a14.05 14.05 0 0 1-1.854-5.919l-.068-.775zm68.513.05h11.753l.034.388c.035.419-.084 1.065-.607 3.12-.289 1.133-.468 1.543-1.062 2.58-1.101 1.921-1.555 2.571-2.58 3.626-2.547 2.618-4.964 4.216-7.555 4.99-.604.182-1.205.388-1.332.456-.27.145-1.292 1.688-1.67 2.513-1.086 2.377-.328 7.04 1.839 11.264.499.973.91 1.863.91 1.973 0 .31-.365.687-.96 1.011-.671.365-1.287.557-2.547.776-2.657.462-5.889.161-7.622-.708-.603-.302-1.18-.856-1.18-1.13 0-.079.479-1.078 1.062-2.226 1.506-2.966 2.154-5.146 2.26-7.605.042-1.004.007-1.502-.136-2.141-.224-1.01-1.089-2.787-1.585-3.255-.332-.313-1.218-.694-2.664-1.163-.7-.228-2.087-1.023-2.04-1.164.018-.056.44-.235.944-.405 1.262-.424 1.965-.738 3.322-1.517 2.913-1.672 4.025-2.525 6.357-4.823 2.332-2.298 3.57-3.842 4.671-5.851l.388-.709z"/>
</svg>
