<svg xmlns="http://www.w3.org/2000/svg" viewBox="0 0 100 100">
    <path d="M52.994 86.826c4.494-.477 7.999-1.71 8.96-3.15.432-.647.384-.996-.293-2.152-.329-.56-.699-1.261-.822-1.557a40.3 40.3 0 0 0-.822-1.74c-1.881-3.785-3.906-9.576-4.275-12.228-.051-.366-.09-1.945-.086-3.509.005-2.3.057-3.073.268-4.039.292-1.33 1.203-3.555 1.672-4.079.167-.188.526-.673.797-1.08 1.008-1.512 3.324-3.723 4.147-3.958 1.653-.473 4.682-1.863 6.927-3.177 4.781-2.8 9.6-7.426 12.306-11.813 1.436-2.328 1.992-3.376 2.339-4.405.181-.538.538-1.496.793-2.128.844-2.095 1.739-6.378 1.65-7.902l-.04-.683-36.74-.034c-24.838-.023-36.793.01-36.905.103-.184.153-.16.588.153 2.887.483 3.539 1.28 6.06 2.993 9.474 2.004 3.993 4.311 6.97 7.874 10.157 1.875 1.679 3.16 2.65 5.176 3.918 2.057 1.292 5.1 2.756 7.434 3.575.835.293 1.055.423 2.216 1.309 2.066 1.577 4.153 4.936 4.751 7.65.597 2.704.442 7.005-.36 10.02-1.355 5.091-1.77 6.182-4.105 10.805-.956 1.893-1.738 3.591-1.738 3.774 0 .479.575 1.257 1.295 1.752 1.228.845 4.563 1.816 7.305 2.127l1.68.192c1.039.122 3.803.065 5.45-.108z"/>
    <path d="M24.971 75.399c1.717-.214 3.096-.558 4.014-1.003.683-.33 1.425-1.028 1.425-1.34 0-.125-.563-1.343-1.25-2.706-1.36-2.697-1.811-3.91-2.308-6.214-.506-2.348-.625-3.596-.472-4.95.153-1.354.844-3.43 1.459-4.39.763-1.188 1.16-1.461 2.777-1.913 1.33-.371 3.422-1.357 3.422-1.613 0-.052-.74-.352-1.646-.67-2.582-.905-5.712-2.664-8.688-4.882-1.86-1.386-5.148-4.644-6.28-6.223-.52-.727-1.354-1.884-1.85-2.572-.497-.687-1.018-1.519-1.16-1.847l-.255-.598H-.001l.079.974c.205 2.565.983 5.032 2.32 7.362 1.537 2.675 2.21 3.456 5.147 5.971 2.207 1.89 4.729 3.376 6.746 3.973 2.345.695 2.764 1.03 3.873 3.089.734 1.363.975 2.49.978 4.56.004 3.087-.757 5.784-2.76 9.787-.711 1.42-1.292 2.726-1.292 2.904 0 .393.748 1.086 1.531 1.417.977.414 2.385.703 4.852.996.928.111 1.983.078 3.498-.112zm55.631-.138c1.57-.273 2.34-.506 3.175-.96.743-.404 1.192-.883 1.192-1.27 0-.137-.508-1.239-1.13-2.45-2.697-5.26-3.649-11.075-2.295-14.036.47-1.027 1.746-2.939 2.082-3.12.158-.084.903-.337 1.656-.562 3.225-.965 6.235-2.953 9.406-6.214 1.277-1.313 1.859-2.128 3.23-4.52.74-1.29.948-1.805 1.308-3.216.651-2.56.811-3.37.767-3.891l-.04-.477H85.312l-.48.874c-1.37 2.502-2.909 4.431-5.813 7.293-2.903 2.862-4.305 3.923-7.932 6.005-1.69.97-2.55 1.365-4.123 1.894-.627.21-1.159.44-1.182.509-.058.175 1.67 1.15 2.541 1.433 1.801.585 2.904 1.07 3.318 1.46.617.583 1.7 2.8 1.979 4.056.177.796.214 1.415.16 2.665-.13 3.062-.935 5.775-2.81 9.469-.726 1.43-1.32 2.68-1.32 2.778 0 .341.712 1.022 1.462 1.399 2.159 1.082 6.181 1.456 9.49.88z"/>
</svg>
