<svg xmlns="http://www.w3.org/2000/svg" width="417.369" height="559.359">
    <path d="M167.483 555.144c-7.394-2.677-16.355-6.776-19.915-9.109-3.56-2.332-13.175-6.232-21.367-8.665-22.056-6.552-42.172-20.635-53.131-37.198-6.052-9.145-15.124-17.7-24.062-22.69-7.891-4.406-17.835-12.583-22.097-18.17-10.487-13.75-18.144-44.552-15.523-62.447 2.375-16.212 11.981-39.692 16.24-39.692 1.61 0 5.806 5.95 9.327 13.221 3.52 7.272 9.039 15.61 12.264 18.529 9.81 8.877 14.066 3.988 16.2-18.613 4.597-48.686.456-66.35-18.323-78.154-5.35-3.363-15.973-10.01-23.608-14.773C6.041 266.5 0 257.36 0 241.846c0-9.972 2.03-14.293 11.05-23.532 17.567-17.99 21.402-38.933 10.9-59.519-17.698-34.693-12.09-52.61 18.78-60.003 9.512-2.278 12.89-10.504 10.2-24.839-2.09-11.145-14.724-22.628-30.43-27.659-13.428-4.301-11.111-10.44 7.568-20.051 14.616-7.52 19.114-8.403 36.86-7.23 24.846 1.642 40.915 9.435 62.03 30.08 9.423 9.215 17.384 14.639 20.007 13.632 2.396-.92 5.9-7.801 7.787-15.293 3.32-13.188 16.28-32.298 21.902-32.298 1.517 0 2.758 2.613 2.758 5.807 0 17.732 9.482 20.317 16.932 4.617C201.431 14.838 217.687 0 224.344 0c2.051 0 3.499 4.907 3.499 11.86 0 22.911 4.363 25.801 22.657 15.007 5.993-3.536 11.673-5.653 12.622-4.704.95.949.067 8.638-1.96 17.087-2.905 12.111-2.899 16.31.037 19.839 6.14 7.399 12.204 5.212 28.632-10.324 20.083-18.994 37.682-27.856 59.191-29.806 19.828-1.798 36.19 2.584 51.012 13.663 10.245 7.657 10.245 7.657-8.096 15.983-18.383 8.344-27.879 19.345-27.879 32.297 0 9.479 8.477 18.198 19.746 20.312 21.343 4.005 27.609 28.053 13.584 52.141-5.669 9.736-6.982 17.592-6.408 38.333.255 9.234 2.725 13.969 12.154 23.304 14.208 14.067 17.415 25.578 11.243 40.351-4.397 10.522-12.365 17.228-42.167 35.49-21.227 13.006-24.354 22.48-21.66 65.604 1.589 25.422 3.283 34.944 6.432 36.153 5.795 2.224 14.05-5.789 22.632-21.966 3.925-7.398 8.132-13.45 9.35-13.45 1.217 0 5.291 5.788 9.054 12.864 5.473 10.294 6.838 17.733 6.832 37.237 0 30.472-8.628 49.626-28.531 63.407-7.213 4.994-18.03 14.346-24.038 20.782-31.316 33.542-36.342 37.648-52.237 42.668-8.91 2.814-24.955 9.426-35.657 14.693-17.595 8.66-22.522 9.655-51.457 10.382-23.475.59-35.58-.492-45.441-4.063zm75.903-12.47c28.292-9.047 58.166-45.74 62.323-76.55 1.112-8.246-.056-11.955-5.24-16.647-6.335-5.734-10.998-6.037-92.886-6.037-86.217 0-86.217 0-92.225 7.42-7.248 8.95-5.736 21.278 5.272 43.002 13.366 26.376 32.708 43.215 58.782 51.175 13.75 4.198 47.339 2.958 63.974-2.362zM138.15 485.602c-18.823-19.958-12.641-26.599 23.194-24.918 17.39.816 19.685 1.647 20.51 7.429.563 3.953-2.829 10.788-8.638 17.404-12.522 14.262-21.675 14.284-35.066.085zm108.76 4c-8.889-9.76-13.748-20.208-11.781-25.333 1.34-3.494 6.97-4.241 26.718-3.547 23.423.824 25.082 1.32 25.998 7.772 1.285 9.055-17.222 27.918-27.39 27.918-4.038 0-10.133-3.065-13.545-6.81zm-139.333 13.306c-7.22-9.706-20.064-12.891-18.463-4.578 1.34 6.96 21.616 21.001 23.25 16.1.644-1.931-1.51-7.116-4.787-11.522zm210.03 6.97c11.341-8.65 13.255-16.493 4.025-16.493-3.632 0-8.524 3.978-12.097 9.837-10.099 16.564-7.61 18.617 8.072 6.657zm-219.92-44.84c0-8.63 2.1-15.883 6.053-20.91 10.56-13.425 5.934-20.191-13.894-20.32-12.906-.085-42.599-17.88-50.989-30.558-4.459-6.738-9.732-11.714-11.718-11.058-5.862 1.934-6.214 37.851-.517 52.767 8.749 22.909 36.224 42.197 61.227 42.982 9.643.303 9.837.049 9.837-12.904zm250.899 8.79c31.279-11.037 45.736-32.368 45.736-67.487 0-23.926-4.218-30.586-11.814-18.658-13.205 20.737-32.913 32.169-64.615 37.482-13.048 2.187-14.476 7.295-5.297 18.963 3.575 4.546 6.053 12.28 6.053 18.891 0 6.158.908 12.103 2.018 13.213 3.288 3.288 14.529 2.32 27.919-2.405zm-65.257-51.575c-.282-3.33-3.83-16.95-7.886-30.27-4.057-13.318-8.284-29.663-9.395-36.322-1.853-11.107-1.647-11.633 2.486-6.373 2.479 3.154 9.614 18.641 15.857 34.415 11.352 28.68 11.352 28.68 30.056 27.178 10.288-.826 20.197-2.423 22.02-3.55 2.305-1.425 2.723-15.72 1.373-46.907-1.816-41.976-1.521-45.726 4.599-58.367 5.145-10.629 10.657-15.918 25.845-24.8 26.834-15.694 32.726-22.588 31.538-36.91-.776-9.356-2.358-11.903-8.247-13.28-9.868-2.306-16.09-20.018-16.559-47.14-.333-19.169.486-22.379 7.955-31.258 10.575-12.572 11.42-28.75 1.77-33.914-9.159-4.901-39.673-1.802-60.665 6.16-9.502 3.605-27.55 13.26-40.107 21.458-12.557 8.197-22.83 13.54-22.83 11.87 0-5.216 24.214-29.584 38.14-38.382 7.318-4.623 13.308-9.408 13.311-10.632 0-4.025-22.356-17.128-40.861-23.94-15.508-5.708-24.563-6.71-62.048-6.861-38.38-.156-46.36.697-63.565 6.792-10.82 3.834-25.088 10.505-31.704 14.825-12.03 7.855-12.03 7.855-1.75 15.686 19.34 14.734 42.535 37.463 42.535 41.68 0 2.693-6.634-.29-18.38-8.268-30.145-20.47-55.17-30.776-78.844-32.47-17.29-1.237-22-.552-26.942 3.921-8.658 7.835-7.648 21.289 2.334 31.106 7.756 7.628 8.308 9.838 8.09 32.401-.272 28.075-6.672 46.917-15.936 46.917-10.12 0-13.074 17.85-4.886 29.54 2.57 3.668 14.151 12.206 25.737 18.973 31.909 18.635 34.468 25.257 32.335 83.675-1.678 45.991-1.678 45.991 7.59 49.222 5.097 1.777 15.044 3.23 22.104 3.23 12.836 0 12.836 0 25.624-31.818 7.034-17.5 14.143-32.656 15.799-33.679 4.396-2.717.134 19.314-9.973 51.552-6.437 20.53-7.674 27.97-4.943 29.729 2.004 1.29 36.334 2.012 76.289 1.605 70.573-.72 72.63-.913 72.134-6.794zM152.124 270.52c-.075-14.096-3.122-16.58-15.623-12.744-21.818 6.696-46.487-4.145-57.195-25.135-3.584-7.026-9.047-14.911-12.14-17.523-4.499-3.8-5.26-7.325-3.802-17.614 1.823-12.864 1.823-12.864 15.803-12.835 19.154.04 41.406 11.052 63.644 31.497 15.937 14.651 20.004 16.904 30.521 16.904 15.5 0 16.273 6.842 1.74 15.417-6.621 3.907-11.085 9.286-12.301 14.823-1.05 4.78-3.865 10.314-6.255 12.298-3.604 2.99-4.354 2.122-4.392-5.088zm-16.799-22.24c11.225-4.269 9.656-9.924-6.874-24.767-25.482-22.88-39.846-26.527-39.846-10.116 0 26.364 23.324 43.778 46.72 34.882zm121.227 18.879c-3.415-8.137-9.183-15.069-15.773-18.957-13.038-7.693-11.475-13.132 4.395-15.293 9.392-1.279 16.488-5.506 30.023-17.886 21.656-19.808 43.109-30.314 61.983-30.354 13.942-.03 13.998.011 15.889 11.838 2.108 13.18.063 21.428-5.31 21.428-1.946 0-6.227 5.79-9.513 12.865-10.24 22.043-36.982 34.292-58.153 26.637-12.195-4.41-13.179-3.724-16 11.165-2.157 11.385-2.157 11.385-7.541-1.443zm51.4-20.23c11.618-4.854 19.778-18.042 19.778-31.965 0-18.06-11.983-15.576-39.04 8.092-16.92 14.8-19.015 20.881-8.634 25.054 9.836 3.953 16.258 3.681 27.895-1.18zm-109.673-48.802c-14.838-6.239-11.844-8.947 9.889-8.947 20.776 0 23.854 3.287 8.823 9.42-7.126 2.908-10.898 2.813-18.712-.473zM86.097 94.878c3.044-2.755 5.535-8.06 5.535-11.787 0-8.892-15.759-25.58-24.156-25.58-5.698 0-6.355 1.233-4.84 9.08l3.504 18.144c.963 4.984 4.027 10.391 6.81 12.016 6.71 3.914 6.76 3.907 13.147-1.873zm260.876-1.801c2.336-3.746 5.066-13.28 6.065-21.188 1.595-12.613 1.133-14.378-3.765-14.378-7.118 0-21.116 13.89-23.477 23.298-1.18 4.704.056 9.28 3.558 13.147 7.028 7.766 12.394 7.498 17.619-.879zm-228.38-21.606c7.163-8.631-23.945-34.749-47.138-39.577-12.892-2.683-31.28 1.008-31.28 6.279 0 2.917 3.938 4.224 12.864 4.27 16.546.086 34.344 8.427 47.511 22.266 11.635 12.228 13.062 12.763 18.043 6.762zm197.192-6.762c13.167-13.84 30.966-22.18 47.511-22.266 9.03-.047 12.864-1.34 12.864-4.34 0-6.008-20.89-8.963-35.515-5.025-22.298 6.005-46.07 27.679-41.999 38.29 2.517 6.558 5.765 5.295 17.14-6.66z" fill="#535353"/>
</svg>
