<svg xmlns="http://www.w3.org/2000/svg" viewBox="0 0 417.4 559.4">
    <path d="M304.125-1.094c-5.495 2.435-8.006 8.993-12.757 12.626-18.214 19.567-37.23 38.193-54.68 58.187-3.516 8.545-4.9 18.101-7.655 26.999-2.499 9.53-5.029 19.135-7.095 28.813-31.641.012-63.602.575-94.907 3.688-7.932 1.039-15.863 1.567-23.659 3.3-6.585 1.898-15.97 1.678-19.84 8.262-.971 5.606 6.57 7.274 10.492 8.745 31.264 9.32 64.335 11.566 96.882 13.183 35.17 1.114 70.547-1.091 105.219-6.615 12.06-2.707 25.138-3.996 35.813-10.438 3.711-2.35 1.901-7.756-1.97-8.844-9.204-3.46-19.102-5.393-28.874-6.187-8.729-1.81-17.599-1.659-26.405-2.87-8.387-.863-17.464.1-25.502-1.411 3.751-8.822 5.417-18.329 8.532-27.313.808-5.098 3.14-10.007 4.031-15.281 3.93-9.355 13.086-15.098 18.875-23.281 13.846-15.375 28.174-30.647 41.781-46.125.674-4.58-6.1-5.533-8.414-8.52-3.734-1.626-5.833-6.54-9.867-6.918zm1.813 14.188c2.394 2.849-1.74 6.636-3.72 8.562-11.844 13.17-24.06 26.575-35.75 39.469-3.413 2.383-4.842 6.363-7.906 9.094-4.794 6.506-7.729 14.512-9.156 22.187-3.557 10.224-6.586 20.886-8.25 31.563-.402 8.09 8.044 12.928 15.313 12.625 10.837.81 22.045.633 32.594 2.906 7.076 1.242 14.943.387 21.687 2.688.583 2.672-5.015 2.259-7.156 3.156-12.34 1.722-24.543 4.852-37.063 5.281-3.847 1.549-7.8-.565-11.687 1.156-1.713-.217-8.25 2.32-5.656-1.469 2.945-4.789-.507-11.555-6.375-11.093-6.524 1.039-13.141 2.19-19.75.812-3.67-.732-8.336-1.668-10.5 1.906-3.89 3.899 1.276 8.417 2.375 12.063-35.018-.052-70.542-1.97-104.657-9.375-1.82-.777-6.578-2.101-2.344-2.75 33.027-5.156 66.667-6.043 100.094-6.106 7.744.065 17.33.503 21.75-7.269 6.577-11.746 6.848-25.658 11.219-38.281 2.058-7.648 3.298-15.927 9.75-21.438 4.6-4.954 9.766-9.844 14.219-14.5C276.145 40.953 289.45 28.836 301.28 16c1.461-1.042 2.683-3.186 4.656-2.906zm-61.594 131.469c1.575 2.78-4.284 2.79-5.969 3.687-6.948 1.784-15.414 1.346-21.406-2.313-.497-3.115 3.37.983 4.656 1.282 6.023 2.414 13.408 1.807 19.438-.313 1.408-.386 1.864-2.365 3.28-2.344z"/>
    <path d="M330.688 147.188c-3.726 1.85-7.398 4.282-11.72 5.218-24.517 7.12-50.158 9.345-75.529 11.524-34.292 2.188-68.876.8-102.908-3.243-18.344-2.743-37.325-5.022-54.062-13.312-5.213.694-2.11 7.107-1.875 10.281a9847.217 9847.217 0 0 1 5.781 61.625c1.89 21.008 4.667 42.228 5.188 63.438-.447 3.154 3.578 6.166 5.406 2.625 4.185-10.937 7.589-22.423 14.562-32.156 8.135-11.97 18.661-24.58 33.438-27.688 9.842-1.145 19.336 6.398 22.437 15.094 1.097 2.618-.99 7.63-4.125 6.875-4.652-4.448-5.78-13.291-13.406-14.094-10.872-1.868-18.515 8.192-24.562 15.586-7.39 10.366-13.675 21.9-17.938 33.914-.388 3.098-2.612 5.75-2.438 9.031-2.044 7.492-2.923 16.512.532 23.75 3.915 4.756 10.887 2.371 15.125-.437 9.7-7.66 19.199-16.974 24.469-28.375 1.556-6.199 3.243-12.61 6.718-18.031 2.682-3.286 6.86 1.75 5.25 4.78-2.086 12.534-8.709 23.63-11.36 35.924-3.12 9.403-5.455 18.816-8.358 28.202-1.136 1.773-2.464 6.28-5.063 5.812-3.514-2.36-.36-7.588-.406-10.844 2.159-6.049 4.094-12.456 6.781-18 2.786-2.84-.122-9.061-4.063-5.875-7.864 7.953-16.205 18.682-28.375 18.844-3.07-.567-7.187-4.479-9.468-.219-.693 5.315 1.607 10.98 1.604 16.495 1.354 13.518 2.593 26.903 3.865 40.318 2.178 11.094.097 23.449 5.062 33.844 2.578 4.969 8.225 6.586 12.906 8.344 2.56 1.29 5.702.984 8.219 2.593 4.336-.206 7.823 2.745 12.125 2.5 12.705 2.92 25.74 3.917 38.813 4.75 22.797 2.688 46.016.19 68.843-1.375 9.08-1.998 18.603-2.555 27.438-5.406 4.96-.167 8.973-3.295 14.062-3.438 5.39-3.022 8.795-9.184 10.156-15.093.609-8.743 2.074-17.332 2.907-26.031 1.375-8.002 1.45-15.989 2.906-23.938 1.383-16.399 3.635-32.864 6.156-49.063.14-3.738-4.65-3.614-6.219-.968-7.951 7.427-17.504 17.547-29.562 15.5-6.599-.848-4.937-9.686-1.25-13.031 5.029-8.714 14.097-14.858 17.656-24.313.144-5.866-7.677-5.619-11.094-2.813-9.66 5.787-16.542 15.566-21.468 25.47-.39 1.794-2.443 3.083-2.375 5.25-1.251 3.594-3.876 6.214-4.281 10-3 6.762-6.238 13.51-8.094 20.593-1.26 2.615-1.744 5.284-3 7.875-1.105 3.372-6.924 9.217-9.25 4.281.04-7.578 4.418-14.307 7.375-21.062 3.015-7.562 8.185-14.49 10.625-22.219-.143-4.747-6.025-2.394-7.719.094-5.154 4.951-12.053 10.984-19.656 9.906-4.527-.454-3.171-8.85-8.281-6.781-4.843 3.072-9.61 7.877-15.844 6.812-4.306-1.495-2.376-7.532-1.813-10.906 1.151-3.5-3.275-6.497-5.25-2.781-5.141 8.65-16.024 17.14-26.375 12.437-4.201-3.145-2.84-9.684-1.812-13.969 3.586-10.726 7.314-21.82 12.687-31.78 1.115-3.442 7.338-4.725 7.656-.25-4.153 11.15-12.635 21.448-12.875 33.874-.104 6.262 8.72 5.54 12.063 2.406 7.5-5.193 12.873-13.401 16.594-21.375 3.13-5.264 3.743-12.083 7.531-17.156 1.776-3.28 5.856.945 4.375 3.469-2.707 11.386-10.772 21.663-11 33.844-.252 4.173 4.327 6.96 7.75 4.281 5.859-2.083 11.656-5.953 12.406-12.625 3.185-9.748 7.793-19.004 11.031-28.688 3.06-5.865 4.17-12.24 7.375-18.03 2.875-8.208 5.967-16.347 10-24.032 1.818-3.872 8.608-.564 6.25 3.125-2.98 8.135-7.495 15.847-10.187 23.937-4.46 11.454-9.615 22.873-14 34.375-1.532 6.402-7.137 12.62-5.469 19.47 2.74 4.312 8.42.965 11.531-1.126 6.73-5.375 14.188-10.468 19.532-17.25 3.429-5.876 3.295-14.593 8.781-18.781 3.95-.951 2.608 3.935 1.656 5.906-1.597 3.451 3.206 6.1 5.469 3.063 3.43-3.936 7.42-7.318 11.906-9.875 5.092-3.544 16.484-1.012 15.031 6.625-2.622 11.84-12.784 19.888-19.687 29.125-2.221 3.662 1.88 7.695 5.531 5.75 9.686-4.687 17.035-13.36 25.281-20 3.678-5.37 1.926-12.88 3.408-19.055.997-9.022 2.172-17.995 3.186-27.07.614-9.38 2.733-18.384 3.108-27.87 3.03-21.871 4.704-44.228 7.799-66.13-.072-3.055 3.964-11.546-2.125-12.282zm-11.594 14.593c1.889.486 3.463.626 2.656 3.25-1.53 18.532-4.551 36.884-5.938 55.5-2.453 17.112-3.046 35.235-6.875 51.719-5.235-3.971-11.942-6.75-18.5-4.313-5.528.91-9.868 6.102-15.718 3.72-6.915-2.44-13.886 2.107-16.531 8.406-3.155 5.995-6.365 14.04-11.594 17.562 5.412-17.702 13.894-34.174 20.375-51.313.71-3.82 3.42-7.198 1.562-11.28-1.928-4.71-6.536-9.567-11.781-10-8.094 1.446-14.276 8.1-16.188 15.905-3.04 4.69-3.517 10.346-6.53 15.125-2.84 7.159-5.1 15.119-9 21.532-2.236-5.49-8.346-11.3-15.032-8.813-5.585 1.498-7.926 7.952-11.625 11.719-1.035 2.122.175 4.62-2.125 6.25-1.272 1.702-2.542 6.524-3.25 6.688 2.196-5.497 6.4-12.15 2.75-17.97-2.883-5.715-10.75-10.68-16.531-5.687-3.323 2.045-6.563 5.063-8.875 7.781.478-6.307-1.483-13.103-7.344-16.28-8.24-4.743-16.915 3.663-19.469 11.093-2.587 6.19-4.26 13.215-8.947 18.485-3.895 5.503-8.349 10.354-13.897 13.984-1.49 1.05-3.683-.062-2.75-2.281-.403-6.838 2.547-13.055 4.063-19.47 5.97-13.606 12.662-28.26 24.938-37.343 2.652-1.421 5.828-2.06 7.593 1.156 4.474 4.732 10.966 11.729 18.031 7.594 5.803-3.015 9.053-9.597 7.32-16.087-1.631-9.567-9.977-16.877-18.445-20.57-14.212-4.826-29.581 1.704-39.445 12.188-3.928 4.205-8.927 8.197-11.898 13.188-2.234 2.123-3.595 7.046-6.156 8-1.521-11.138-2.324-22.499-3.63-33.748-1.486-16.745-3.459-33.416-4.714-50.221-.368-2.792.456-6.241 4.094-5.125 13.908 3.674 27.935 5.9 42.187 7.813 27.057 3.724 54.825 4.653 82.25 4.062 17.045-1.414 34.32-1.125 51.15-4.053 14.588-2.008 29.493-4.56 43.819-8.166zm-161.719 158.75c2.063 10.512 13.38 18.724 24 14.938 4.605-.424 8.511-4.331 13.031-4.094 5.096 2.764 10.708 6.764 16.656 3.75 3.99-1.318 8.759-3.56 12.282-.25 2.87 2.095 7.39.4 9.781 2.844-2.871 2.61-1.93 7.046-3.844 10.312-2.503 6.527-2.21 14.728 3.969 19.094 5.916 6.179 16.303 1.243 19.781-5.406 6.974-9.868 7.788-23.418 15-32.781 5.064 4.473 11.29 8.83 18.469 7.125 5.527-.194 10.624-4.062 15.656-4.75-.54 23.027-5.125 45.64-7.031 68.5-.161 3.226-1.944 6-1.813 9.125-1.542 3.18-1.744 6.987-5.406 8.875-11.416 7.758-26.135 7.323-39.24 10.008-29.837 3.09-60.245 2.742-89.978-.977-9.263-1.94-18.953-2.599-27.853-6.48-8.096-2.181-13.05-10.068-13.044-18.228-1.288-11.825-2.185-23.696-3.385-35.386-.57-9.373-2.72-19.031-1.468-28.281 3.818-1.632 8.61-3.756 12.343-3.938-.628 5.233.794 10.475 5.125 13.656 3.772 4.717 10.724 3.698 14.438-.53 4.075-2.88 6.28-7.267 7.312-11.97 2.135-4.883 2.704-10.478 5.219-15.156z"/>
    <path d="M116.594 422.875c-4.837 2.316 1.493 7.458 2.781 10.406 3.631 6.731 8.924 12.422 11.906 19.469 1.492 27.622 3.935 55.242 5.938 82.813-.45 3.373 2.598 4.61 5 5.437 12.728 7.538 26.526 13.043 40.969 16.188 13.656 2.847 28.2 4.603 42.187 1.812 15.034-2.049 29.473-6.99 42.406-14.719 3.872-2.758 10.413-4.277 9.846-10.245 1.32-17.946 1.978-35.93 3.138-53.874 1.427-9.85.493-20.146 1.622-29.783 4.35-7.87 10.996-14.771 14.082-23.192-.167-3.984-5.109-3.25-6.75-.906-8.158 3.833-16.979 6.347-25.844 7.125-14.862 3.483-30.652 3.235-45.968 4.65-16.584.857-32.998-1.059-49.438-1.993-8.93-.918-17.439-2.751-26.188-4-5.907-2.156-12.488-2.757-18-6.094-2.555-.988-4.823-3.474-7.687-3.094zm20.906 15.5c15.689 2.53 31.39 6.055 47.434 6.126 30.798 2.082 62.284-.252 92.222-5.845-7.373 16.047-4.272 34.342-7.094 51.313-1.221 13.68-.198 28.16-3.375 41.281-4.21 6.216-12.42 8.263-18.718 11.719-5.443 1.044-10.411 4.646-16.219 4.562-11.46 3.525-24.076 1.643-36 1.469-16.449-1.765-32.752-6.944-46.469-16.406-5.206-4.41-2.358-12.468-3.75-18.438-1.281-18.764-2.955-37.418-4.245-56.211-.26-7.028-3.727-13.167-5.661-19.757l.995.099.88.088z"/>
</svg>
