<svg xmlns="http://www.w3.org/2000/svg" viewBox="0 0 100 100">
    <path d="M50.644 4.886a.634.634 0 0 0-.154.03c-1.144.281-2.088.538-2.932.865a.634.634 0 0 0-.771-.525c-1.206.29-2.045.551-2.685 1.142-.64.591-.964 1.407-1.327 2.593a.634.634 0 0 0 .679.802c-.374.833-.708 1.745-1.049 2.932a.634.634 0 0 0 1.173.463c1.949-3.918 3.26-5.14 7.346-7.068a.634.634 0 0 0-.278-1.234zm13.365.802c-3.51-.22-7.173.762-11.45 2.562-4.06 1.709-6.112 4.143-8.519 7.345-1.435.114-2.707.513-4.259 1.883a54.5 54.5 0 0 0-3.179 3.055c-7.817 1.26-12.903 2.85-18.147 7.5-2.128 1.886-3.658 3.995-4.876 6.327-1.116 1.233-2.18 2.41-3.457 2.9-.186.072-.299.09-.4.124-.005-.01-.027-.02-.032-.03.502-.539.841-1.154.988-1.822.1-.454.088-.906.123-1.357.157.238.334.513.587.833a.634.634 0 0 0 1.11-.278c.166-.737.325-1.663.217-2.592-.087-.741-.483-1.439-1.08-1.976.2-.525.407-1.04.617-1.635a.634.634 0 0 0-.71-.835c-.715.124-1.582.533-2.562 1.142-.98.609-2.036 1.403-2.901 2.346-.865.943-1.556 2.047-1.76 3.24-.184 1.09.213 2.23 1.112 3.24.016.019.014.044.03.062.254 1.026.437 1.8.803 2.562a3.858 3.858 0 0 0 2.47 2.068c.684.186 1.391.139 2.098 0-.349 2.058-.443 4.288-.185 7.283.068.79.193 1.571.34 2.346-.368.995-.74 1.987-1.112 2.994l-2.932 2.9c-.534.53-.916.818-1.173 1.328-.257.51-.227 1.049-.092 1.852a10.472 10.472 0 0 0 2.932 5.678 14.139 14.139 0 0 0 3.765 2.654c1.108.526 2.311.863 3.487.741-.163.492-.303.965-.524 1.45-.471 1.034-.562 1.99-.309 2.778.254.79.838 1.365 1.512 1.79 1.35.852 3.166 1.218 4.599 1.605 1.202.325 3.308.928 5.308 1.05 1 .06 1.987.02 2.84-.309.852-.328 1.585-1.018 1.851-2.006.37-1.373.414-2.262.309-3.518.705-1.564.893-1.797 1.512-2.716.453-.671.715-1.196.803-1.79s0-1.156-.093-1.945c-.009-.072-.022-.17-.03-.247 1.675.206 3.328.253 4.968.186-.128.066-.204.115-.34.185-.822.423-1.327 1.118-1.481 1.882-.154.765-.026 1.577.216 2.346.484 1.537 1.452 3.018 2.037 3.92 1.23 1.895 2.387 3.567 3.92 4.505 1.532.939 3.457 1 5.647-.185a4.235 4.235 0 0 0 1.575-1.42c.324-.483.563-.985.925-1.543.18-.114.357-.23.618-.432.328-.255.71-.575 1.142-.926.739-.6 1.544-1.238 2.222-1.79.314.206.635.372 1.018.463.605.144 1.32.189 2.13.247.93.067 4.046.087 4.876.093 1.287.008 2.389-.058 3.302-.587.914-.528 1.436-1.567 1.543-3.055.089-1.235-.05-1.836-.586-2.84-.038-1.42-.086-2.843-.124-4.258-.045-1.694-.404-2.785-1.049-4.321-.53-1.259-.883-2.404-1.512-3.704.013-.08.018-.166.03-.247l1.698 1.636c.82.789 1.594 1.52 2.531 2.068a5.973 5.973 0 0 0 3.395.833c2.904-.137 6.046-2.273 6.913-5.123.202-.666.41-1.335.617-2.006 3.893.64 8.325.443 11.759-1.389 5.254-2.804 7.65-8.403 8.24-14.227.482-4.757-.374-12.49-2.685-16.913-.454-.868-1.407-1.541-2.5-1.975-.546-.217-1.146-.359-1.728-.34-.583.02-1.186.224-1.636.68-1.086 1.1-1.716 2.522-2.592 3.27-.543.465-1.294.73-2.006 1.02-.688-1.587-1.56-2.93-2.624-4.198-1.007-1.199-1.992-1.81-3.24-2.592-2.392-1.498-4.298-3.432-6.574-5.309-3.468-2.859-6.765-4.316-10.277-4.537zm-.186 2.747c3.045.132 5.886 1.338 9.104 4.043 1.343 1.128 2.59 2.198 3.92 3.24-.246.072-.47.08-.74.186a.634.634 0 0 0 .37 1.204c.692-.132 1.599-.003 2.469.154.222.14.456.3.679.432 1.222.72 1.73.996 2.5 2.068.539.751.947 1.539 1.388 2.314-.132-.026-.275-.08-.4-.092-.601-.058-1.171.107-1.668.37-.01.003-.021-.002-.03 0a.968.968 0 0 0-.093.031c-.007.003-.025-.003-.03 0-.012.007-.02.024-.032.031-.621.298-1.659.65-2.222.74a.634.634 0 0 0-.123 1.204c.291.101.613.142.957.155h.03c-.006.044-.026.079-.03.123-.05.509.088.975.277 1.42-.125.052-.245.1-.37.154a.634.634 0 0 0 .339 1.206c.902-.138 1.728-.157 2.561-.154a7.13 7.13 0 0 0-1.265.154c-1.789.408-2.685 1.277-3.148 2.315-.463 1.037-.61 2.14-1.327 3.456a.634.634 0 0 0 1.05.71c.869-1.063 1.245-2.113 1.697-2.87.304-.51.698-.863 1.203-1.142-.035.077-.095.136-.123.216-.389 1.098-.48 2.088-.556 2.994-.075.905-.144 1.724-.493 2.561a.635.635 0 0 0 1.141.556c1.055-1.828 1.08-3.488 1.883-5.123.076-.156.408-.543.772-.834.364-.29.804-.461.864-.462.115.883.234 1.788.185 2.469-.116 1.612-.597 4.136-.833 5a.634.634 0 0 0 1.11.555c1.086-1.395 1.412-3.782 1.79-5.432.433-1.886.302-4.075-.061-6.018-.051-.274.042-.334.062-.494.395.129.792.256 1.203.34a3.865 3.865 0 0 0 2.1-.155c2.548-.909 3.947-2.866 4.721-5.123.158.194.404.382.463.525 1.697 4.106 2.517 10.82 2.068 14.968-.506 4.668-2.8 9.716-6.79 11.944-5.139 2.868-11.303 1.158-16.666-.648-1.052-.355-1.81-.895-2.84-1.543a.634.634 0 0 0-.246-.093c.493-.243 1.236-.549 1.76-.833A.634.634 0 0 0 72 44.085c-.582.099-1.542.318-2.037.402-.764.129-1.362.3-1.759.771-.397.472-.472 1.036-.586 1.76-.103.648-.263 1.474-.37 2.16a.634.634 0 0 0 1.203.308c.28-.75.641-1.624.957-2.315.16-.35.244-.469.34-.555.03-.028.161-.088.215-.123a.634.634 0 0 0-.03.339c.262 1.184.35 2.405.03 3.487-.29.983-.676 2.334-.648 3.611.014.639.126 1.27.494 1.821.082.124.233.2.34.309-.73-.439-1.407-1.027-2.16-1.698-.966-.858-1.897-1.662-2.81-2.469a.634.634 0 0 0-.247-.153c-2.468-.778-4.386-1.676-6.667-3.364a.634.634 0 0 0-.864.926c1.542 1.813 2.823 2.96 4.876 3.92-.375 3.118-1.449 5.54-2.438 8.734-.08.26-.39.908-.802 1.667s-.912 1.67-1.45 2.53c-.54.86-1.101 1.675-1.575 2.315-.237.32-.44.604-.617.802s-.345.312-.34.309c-.295.17-.66.468-1.203.895-.542.427-1.22.948-1.883 1.481-.662.533-1.334 1.083-1.882 1.513-.549.43-.99.762-1.111.833a.634.634 0 0 0-.186.185c-.692.92-1.265 1.956-1.944 2.315-1.245.658-2.032.384-2.932-.37-.9-.755-1.754-2.068-2.53-3.303-.35-.555-.966-1.603-1.297-2.561-.165-.48-.246-.938-.216-1.235s.092-.425.34-.555c1.442-.765 2.365-1.423 3.672-2.284.221.28.464.602.587.802a.634.634 0 0 0 1.172-.432c-.06-.485-.125-.969-.185-1.448-.103-.83-.099-1.456-.03-2.315.067-.86.118-1.716.184-2.561a.634.634 0 0 0-1.234-.247c-.22.765-.71 1.654-.988 2.623-.045.159-.077.314-.123.463-3.37.647-6.692.708-10.06.155-.22-1.216-.465-2.486-.68-3.395a.636.636 0 0 0-1.266.123c-.079 1.24-.025 4.378-.03 6.142-.005 1.36-.001 1.565-.68 2.685-.643 1.061-.937 1.359-1.882 3.24a.634.634 0 0 0-.093.309c.077 1.157.103 1.81-.185 2.84-.049.174-.182.305-.648.4s-1.15.084-1.883 0c-1.466-.167-3.106-.613-3.796-.802-.878-.24-2.133-.51-2.993-.957-.43-.223-.725-.507-.864-.74s-.196-.443-.031-.864c.797-2.044 1.284-4.166 1.666-6.975a.634.634 0 0 0-.092-.463c-3.051-4.396-5.914-10.486-6.45-15.74-.424-4.162-.17-6.617.71-9.104 1.422-4.018 3.397-7.455 6.543-10.215 3.858-3.385 7.488-4.887 12.778-5.864-1.159 1.342-2.309 2.706-3.55 4.166-1.738 2.046-2.728 4.101-3.796 6.265-.75 1.524-1.186 2.662-1.11 3.827.075 1.166.663 2.204 1.666 3.55 1.643 2.205 2.457 3.17 3.148 5.154-.535 1.207-.767 2.358-.957 3.95a.634.634 0 0 0 .155.494c2.07 2.263 3.665 3.914 5.894 4.444 2.06.49 3.918.377 5.803-.586 3.957-2.024 7.469-4.467 11.634-4.568a.634.634 0 0 0 .587-.401c2.089-5.136 1.883-9.515.895-14.413-.659-3.265-.904-6.358-1.111-9.722a.636.636 0 0 0-1.265-.123c-.841 3.537-.998 6.705-.37 10.246.719 4.064 1.198 8.426-.587 11.82-4.02.448-7.384 2.767-10.803 4.537-1.295.672-2.62.716-4.104.309-1.246-.342-2.1-1.154-3.55-2.809.015-1.557.31-2.306 1.112-3.888 1.351-2.664 2.827-5.14 4.475-7.778a.634.634 0 0 0-1.019-.74c-1.773 2.14-3.44 4.037-4.938 6.172-.62-1.244-1.368-2.232-2.5-3.765-.684-.926-.99-1.527-1.049-2.068-.06-.54.109-1.156.617-2.222 1.06-2.221 1.912-4.088 3.642-5.956 3.143-3.394 5.962-7.135 9.32-10.4.89-.866 1.44-1.233 2.068-1.451.628-.22 1.413-.306 2.655-.494a86.82 86.82 0 0 0 6.697-1.296.634.634 0 0 0-.216-1.235c-1.684.157-3.326.192-4.97.247 1.515-1.867 2.759-3.163 5.494-4.352 4.148-1.8 7.477-2.754 10.524-2.622zm1.76 10.246a.634.634 0 0 0-.155.031c-2.349.588-3.874 1.392-4.722 2.562-.848 1.17-.896 2.61-.586 4.166a.634.634 0 0 0 1.234.031c.483-2.137 1.222-3.979 4.506-5.555a.634.634 0 0 0-.278-1.235zm-13.55.247a.634.634 0 0 0-.03.031c-1.843.208-3.687.412-5.525.587-.767.072-1.274.085-1.79.277-.517.193-.913.519-1.482 1.08-1.02 1.009-1.813 2.881-2.5 4.815a48.86 48.86 0 0 0-1.48 5.062.634.634 0 0 0 1.203.4c.418-.962 1.119-2.716 1.913-4.413a22.41 22.41 0 0 1 1.513-2.746c-.048.734.034 1.46.216 2.623a.634.634 0 0 0 1.234 0c.307-2.351 1.05-3.227 2.407-5a38.865 38.865 0 0 0 4.568-1.481.634.634 0 0 0-.247-1.235zm41.387 1.173c-.813 1.422-1.952 2.587-3.334 3.488-.315.205-.549.507-.895.679-.232.115-.396.073-.586.123.485-.183 1.012-.432 1.481-.802 1.281-1.01 2.052-2.448 2.994-3.364.12-.117.225-.12.34-.124zm-21.975 4.136a.634.634 0 0 0-.277.061c-.642.297-1.373.43-2.16.587-.788.156-1.647.35-2.408.864-.707.478-1.358 1.297-2.037 2.13-.678.833-1.36 1.691-1.852 2.13a.634.634 0 0 0 .648 1.049c.642-.249 1.181-.682 1.729-1.08.057.192.036.402.123.586.264.553.686.955 1.142 1.296-.295.45-.607.883-.802 1.42a.634.634 0 0 0 1.08.617c2.076-2.46 5.166-4.328 7.994-5.122a.64.64 0 0 0-.186-1.265c-.714-.01-1.523.19-2.346.4-.053-.184-.068-.375-.154-.555-.264-.552-.684-.956-1.143-1.296.369-.23.762-.42 1.08-.71a.634.634 0 0 0-.431-1.11zM6.11 26.922a.634.634 0 0 0-.402.123c-.959.676-1.744 1.272-2.407 1.883a.634.634 0 0 0-.926-.215c-1.019.712-1.698 1.28-2.068 2.068-.37.787-.34 1.667-.246 2.9a.634.634 0 0 0 .925.494c-.042.914-.023 1.887.093 3.118a.634.634 0 0 0 1.235 0c.385-4.363 1.128-6.007 4.228-9.29a.634.634 0 0 0-.432-1.081zm77.125.34c.245.01.492.005.741.03.02.092.043.186.062.278-.264-.122-.525-.276-.803-.309zm-74.41 4.505c-.237 1.037-.23 2.019-.308 2.778-.087.844-.263 1.446-1.08 2.099a.634.634 0 0 0-.093.092c-.51-.529-.67-1.04-.648-1.574.023-.535.26-1.134.648-1.728.389-.594.926-1.168 1.482-1.667zm2.778 7.283c-.06.179-.127.343-.185.525-.007.022-.024.04-.03.062-.628.24-1.315.473-1.853.463-.617-.012-.96-.17-1.234-.74-.03-.064-.034-.153-.062-.217.081.098.112.22.216.309.3.252.723.4 1.142.37.42-.03.87-.18 1.42-.401.23-.092.376-.258.586-.37zm64.719 15.555c-.3.385-.66.714-1.08 1.019a.634.634 0 0 0-.062-.216 3.639 3.639 0 0 0 1.142-.802zm-64.07 1.821a42.606 42.606 0 0 0 4.505 9.26c-.117.446-.223.86-.432 1.141-.26.348-.54.44-.988.432-.448-.009-1.037-.2-1.635-.494-1.197-.587-2.432-1.588-2.932-2.098-1.152-1.177-1.93-2.587-2.1-3.797-.067-.478-.024-.567 0-.617.024-.05.189-.245.556-.617.954-.966 1.914-1.934 2.87-2.901a.634.634 0 0 0 .123-.216c.012-.031.02-.062.031-.093zm51.324 2.84c.061.172.078.314.154.494.561 1.33.795 2.028.833 3.394.043 1.521.08 3.044.124 4.568a.634.634 0 0 0 .092.278c.48.84.485.696.402 1.635-.083.93-.259 1.237-.432 1.358-.174.122-.658.17-1.513.155-.408-.007-1.39.013-2.376 0s-1.983-.033-2.315-.062c-.604-.052-.687-.118-.987-.185.836-.893 1.693-2.063 2.5-3.395 1.071-1.77 1.978-3.57 2.314-4.63.404-1.272.803-2.423 1.204-3.61z" fill-rule="evenodd"/>
</svg>
