<svg xmlns="http://www.w3.org/2000/svg" viewBox="0 0 80 100">
    <path d="M73.8.2H6.4C3 .2 0 3 0 6.3v.1c0 .2.3.5.3.7l6.8 61c.1.9.4 1.699.9 2.4.6 1.199 1.6 2.1 2.8 2.699L37.7 86.4c.9.398 1.8.6 2.7.6s1.8-.201 2.7-.6l26.8-13.2c2.199-1.1 3.5-3.4 3.399-5.799L79.9 6.9c0-.2.1-.5.1-.7v-.1C80 3 77.2.2 73.8.2zm-50 41.6L34 52c2 2 2 5.299 0 7.299s-5.3 2-7.3 0L11.8 44.401l-.2-.101c-.8-.8-1.6-1.7-1.6-2.7 0-.3.1-.6.1-1 0-1.3.6-2.7 1.6-3.7l.1-.1 4.8-4.8 10.2-10.2c2-2 5.3-2 7.3 0s2 5.3 0 7.3L22.7 40.7l1.1 1.1zM70 44.3l-4.8 4.8L55 59.299c-2 2-5.3 2-7.3 0S45.7 54 47.7 52L59 40.7l-1.2-1.2-10.2-10.2c-2-2-2-5.3 0-7.3s5.301-2 7.301 0L69.8 36.9l.101.1c.8.8 1.199 1.7 1.399 2.7 0 .2 0 .4.101.5v.4C71.5 42 71 43.3 70 44.3z"/>
</svg>
