<svg xmlns="http://www.w3.org/2000/svg" height="100" viewBox="0 0 43.45 100" width="43.45">
    <path d="M36.676.62h-1.098V.449A.445.445 0 0 0 35.134 0H28.26a.45.45 0 0 0-.449.448V.62H7.508A6.78 6.78 0 0 0 .735 7.394v2.341H.448a.449.449 0 0 0-.448.449v3.442c0 .247.201.448.448.448h.287v3.676H.448a.448.448 0 0 0-.448.447v2.298c0 .248.201.449.448.449h.287v3.67H.448a.449.449 0 0 0-.448.449v2.298c0 .246.201.447.448.447h.287v52.42A6.78 6.78 0 0 0 7.508 87h29.168a6.78 6.78 0 0 0 6.772-6.773V7.394A6.78 6.78 0 0 0 36.676.62zm-17.98 6.672h6.216c.468 0 .85.331.85.74s-.386.738-.85.738h-6.215c-.469 0-.85-.33-.85-.739s.381-.739.85-.739zm-3.232.024a.716.716 0 1 1-.001 1.432.716.716 0 0 1 .001-1.432zm6.342 75.774a4.196 4.196 0 1 1 .002-8.391 4.196 4.196 0 0 1-.002 8.391zm19.068-11.823H2.74V14.064h38.135v57.203z"/>
    <path d="M22.71 77.22h-1.844a.727.727 0 0 0-.727.725v1.871c0 .401.325.726.727.726h1.845a.729.729 0 0 0 .73-.726v-1.87a.73.73 0 0 0-.73-.726z"/>
</svg>
