<svg xmlns="http://www.w3.org/2000/svg" height="100" viewBox="0 0 48.26 100" width="48.26">
    <path d="M35.963.002c-2.063.062-1.955 1.586-2.022 3.51-.077 2.199.295 3.772 1.295 7.554-3.398-2.568-3.152-8.185-6.12-7.093-2.967 1.091-2.182 3.643-1.12 6.426 1.06 2.783 2.47 5.46 4.884 7.874-2.706.446-6.33 1.633-5.345 4.431.984 2.798 3.239.687 5.345.84s3.612 2.263 5.719 2.417c2.106.153 2.587 4.243 2.402 7.487-.17 2.978-3.85 5.087-5.772 3.19C26.502 22.094 15.16 11.942 10.43 9.298c1.43 2.994.952 20.226-.36 31.804-1.841 9.517-6.844 10.9-7.107 15.195-.277 4.504 1.455 4.935 1.348 9.102C4.204 69.565.5 71.253.054 73.513c-.446 2.26 1.908 2.983 3.277 2.983.4 0 .8-.513 1.18-1.334-.13 1.463-.237 2.902-.306 4.304-.216 4.213.43 5.872 3.183 5.872 4.858 0 11.025-10.24 18.758-10.01 7.749.23 10.212 11.748 13.84 11.671 3.628-.077 6.549-1.337 6.58-12.545.031-9.932-2.418-19.309-6.093-27.7l-.007-.02c-.954-3.264-.519-7.115 1.302-9.69 1.968-2.782.309-8.976 1.354-11.697 1.046-2.722 3.474-1.951 4.258-6.18.784-4.228-2.55-7.132.033-12.498 2.585-5.367-1.478-5.338-3.262-4.032-1.783 1.307-2.23 4.488-2.969 6.994C38.753 6.986 40.106.499 36.984.068a6.165 6.165 0 0 0-1.02-.066zM23.098 31.739c2.516-.072 4.938.898 6.04 3.036.014-.003.03-.003.046-.006.19.397.324.814.407 1.24v.007c.056.24.099.493.127.754.012.233.013.461.006.688v.033c.001.168 0 .34-.006.507a7.073 7.073 0 0 1-.36 1.649l-.007.02c-.015.043-.03.09-.047.133-.015.043-.037.084-.053.127l-.06.153c-.067.17-.134.34-.214.508-.676 1.413-1.79 2.508-3.116 3.256-.021.013-.046.021-.067.033a8.428 8.428 0 0 1-4.278 1.155h-.033a9.522 9.522 0 0 1-.607-.007 6.2 6.2 0 0 1-3.357-1.16l-.046-.034c-.006-.004-.009-.01-.014-.014-.073-.053-.149-.103-.22-.16-.004-.003-.01-.003-.013-.006a5.93 5.93 0 0 1-1.669-1.982l.007-.007a6.283 6.283 0 0 1-.74-3.723c.363-3.21 4.314-5.716 7.28-6.12.33-.045.663-.07.994-.08zm8.368 2.696c4.782 7.457 12.87 24.383 12.64 37.636-.232 13.254-1.657 12.409-3.825 12.486s-5.679-11.688-14.58-11.764c-8.887-.077-14.312 10.484-18.125 10.069s3.672-33.211 4.871-39.084c.554-.373 1.128-.766 1.708-1.161.086.165.171.331.267.494 1.85 3.13 5.947 4.166 9.303 3.383 4.592-1.071 7.986-5.088 7.687-9.863a7.364 7.364 0 0 0-.527-2.142c.195-.02.387-.041.58-.054zM7.342 53.16c.261.007.4.373.314 1.254a233.51 233.51 0 0 0-1.502 8.135c-.56-1.636-1.348-3.022-1.348-4.531 0-1.879 1.774-4.879 2.536-4.858z"/>
</svg>
