<svg xmlns="http://www.w3.org/2000/svg" height="100" width="62.6" viewBox="0 0 156.5 250">
    <path fill="#5382a1" d="M50.482 166.45c-4.693 1.233-13.115 4.334-10.832 10.682 4.361 6.896 13.693 7.901 21.064 9.392 18.691 2.619 38.105-.185 55.152-8.312-5.856-1.84-11.341-5.317-16.744-7.441-15.737 3.208-32.53 4.558-48.19.36.801-1.87 7.98-6.166 1.988-4.86l-2.438.179zm-5.042-22.84c-4.691 1.888-13.044 4.138-12.243 10.682 2.9 6.55 11.62 7.15 17.752 8.58 23.301 3.384 47.197.406 69.566-6.57-4.937-1.848-10.208-3.592-13.863-7.591-19.824 3.93-40.76 5.905-60.583 1.71-2.788-1.47 2.856-4.214 3.169-5.698 5.596-4.792-1.953-.702-3.8-1.113z"/>
    <path fill="#e76f00" d="M124.27 47.59c-16.51 4.983-34.399 11.813-44.199 26.766-6.98 10.881-1.913 24.851 6.271 33.517 5.673 5.58 3.436 14.736-2.37 19.294-6.085 5.315.94 4.383 4.47 1.83 8.63-5.328 18.269-15.062 14.584-26.166-2.9-8.385-13.784-15.334-9.94-25.133 7.47-13.478 23.03-19.407 34.75-28.557 4.508-3.01-1.826-1.13-3.571-1.54z"/>
    <path fill="#5382a1" d="M28.907 181.54c-9.889.964-20.481 3.55-27.696 10.802-3.577 4.208 1.497 9.016 5.791 9.512 36.582 6.886 74.7 7.896 111.44 1.47 9.592-2.496 21.058-3.595 27.996-11.342 3.236-5.486-4.375-9.504-8.835-9.85-1.843.46 3.273 3.727 3.134 6.13-4.492 4.958-12.444 4.82-18.724 6.39-31.204 4.047-63.371 5.316-94.55.451-3.383-.855-7.613-1.409-10.262-3.27 7.208-4.792 16.09-6.035 24.605-4.862-3.99-2.892-7.64-6.163-12.903-5.43zm23.345-61.72c-11.971.667-24.3 3.61-34.297 10.292-3.537 3.346.868 7.688 4.531 8.132 21.119 5.265 43.459 4.047 65.05 2.46 9.878-1.542 20.689-1.479 29.501-6.511 3.555-1.922 7.317-3.43 10.262-6.302-11.535-.69-22.817 3.106-34.293 3.512-18.638 1.143-37.734 3.273-56.206-.27-2.857-.662 2.323-2.151 3.06-2.731 6.645-2.954 13.985-3.613 20.375-7.202-2.65-.603-5.219-1.723-7.982-1.38z"/>
    <path fill="#5382a1" d="M136.18 117.84c-6.062-.025-11.883 2.874-14.345 8.697-2.84 3.851 4.758-1.764 7.294-1.706 8.093-3.358 17.896 5.447 14.043 13.744-3.98 10.08-14.766 14.919-22.865 20.704-6.736 5.519-4.585 5.775 2.605 3.163 13.018-3.808 28.621-9.904 32.892-24.078 3.078-11.667-8.265-21.607-19.624-20.524z"/>
    <path fill="#e76f00" d="M97.021 7.202c4.039 13.114-2.184 26.86-12.302 35.317-11.355 11.264-27.675 18.966-34.448 34.148-4.428 12.986 5.833 24.837 14.042 33.704 5.648 5.726 11.383 11.538 17.975 16.286-3.007-15.24-19.979-25.06-18.454-41.443 3.028-15.734 19.524-22.64 28.987-33.997 9.899-10.479 17.879-26.68 10.739-40.839-1.83-4.057-5.333-6.969-8.099-10.382l1.56 7.202z"/>
    <path fill="#5382a1" d="M152.77 194.92c-7.29 7.071-18.359 8.425-27.886 10.815-33.504 6.428-68.173 5.778-101.86 1.218 9.405 9.112 23.432 8.497 35.528 9.932 27.612 1.192 55.972 1.443 82.518-6.872 7.573-2.462 17.246-8.42 15.125-17.85.628-5.644-2.223 1.782-3.422 2.757z"/>
</svg>
