<svg xmlns="http://www.w3.org/2000/svg" version="1.0" viewBox="0 0 100 100">
    <path d="M12.107 26.772c-1.146 0-2.235.865-2.493 1.982L5.946 44.62c-.344 1.494.96 3.133 2.493 3.133h21.413c1.146 0 2.235-.866 2.493-1.982l3.659-15.868c.344-1.49-.955-3.128-2.485-3.132zM6.226 52.243c-1.146 0-2.235.865-2.493 1.982L.066 70.101c-.345 1.493.96 3.133 2.493 3.132h21.413c1.145 0 2.235-.865 2.492-1.982l3.66-15.875c.344-1.491-.955-3.128-2.485-3.132zm56.615-40.612c-.967 0-1.909.601-2.317 1.478L31.025 76.357c-.728 1.551.604 3.645 2.317 3.643h10.786c.967 0 1.909-.601 2.317-1.478l29.491-63.255c.72-1.55-.608-3.634-2.317-3.635zm23.873 0c-.967 0-1.909.601-2.317 1.478L54.899 76.357c-.728 1.551.603 3.645 2.317 3.643h10.786c.967 0 1.909-.601 2.317-1.478L99.81 15.267c.72-1.55-.608-3.634-2.317-3.635z"/>
</svg>
