<svg xmlns="http://www.w3.org/2000/svg" version="1.0" viewBox="0 0 84 100">
    <path d="M48.968 1.207l-14.757 1.42v60.792l14.599-2.207V35.293L68.455 64.05l15.387-4.888-20.117-27.653L84 5.433 68.297 1.838 48.811 27.914l.157-26.707z"/>
    <path d="M15.514 16.027c-.167.017-.347.063-.473.19l-5.802 5.801a.741.741 0 0 0-.095.914l6.78 11.194a28.902 28.902 0 0 0-2.87 6.496L.599 43.207a.778.778 0 0 0-.6.757v8.198c0 .346.265.643.6.725l12.077 2.933a29.16 29.16 0 0 0 2.964 7.536l-7 10.658a.755.755 0 0 0 .094.946l5.802 5.802a.74.74 0 0 0 .914.094l10.973-6.653a29.048 29.048 0 0 0 6.937 2.901l2.554 12.297a.743.743 0 0 0 .726.598h8.199a.743.743 0 0 0 .725-.567l3.027-12.36a28.817 28.817 0 0 0 7.126-2.996l10.815 7.095a.757.757 0 0 0 .946-.095l5.77-5.802a.744.744 0 0 0 .126-.914l-3.941-6.496-1.293.41a.46.46 0 0 1-.504-.189s-2.49-3.662-5.74-8.419c-3.885 7.603-11.81 12.802-20.936 12.802-12.97 0-23.491-10.522-23.491-23.49 0-9.54 5.705-17.735 13.874-21.41v-6.055a28.957 28.957 0 0 0-4.288 1.892c-.003-.002.002-.03 0-.032l-11.067-7.25a.69.69 0 0 0-.473-.095z"/>
</svg>
