<svg baseProfile="basic" xmlns="http://www.w3.org/2000/svg" width="100" height="100" viewBox="0 0 100 100">
    <path d="M62.624 79.668c.758 1.094 1.22 1.01 1.81.758.589-.253 30.893-10.48 31.819-10.817.926-.337.631-.631.337-1.094S86.194 54.33 85.689 53.531c-.505-.8-.758-.631-1.557-.379l-32.124 8.359c-.001 0 9.859 17.063 10.616 18.157zm36.197-13.972V49.635l-9.99 2.66a6234.08 6234.08 0 0 1 9.99 13.401zM88.8 32.515c-.495.112-11.458 2.093-12.133 2.183-.675.09-.45.473-.18.855l9.647 13.236s11.795-2.926 12.516-3.084l.171-.04v-1.753c-2.144-2.719-7.985-10.121-8.49-10.812-.608-.832-1.036-.697-1.531-.585z"/>
    <path d="M19.824 11.724c2.374-.108 2.59.432 3.633 1.979L49.66 57.508l32.945-7.892a12384.887 12384.887 0 0 0-10.913-15.457c-.9-1.261.022-1.846 1.486-2.093 1.463-.247 14.069-2.363 15.149-2.521 1.081-.158 1.936-.54 3.692 1.576.898 1.083 3.944 4.875 6.802 8.43V19.06c0-5.008-1.778-9.291-5.335-12.848S85.647.877 80.638.877H20.031c-5.008 0-9.291 1.778-12.848 5.335-2.04 2.04-3.492 4.32-4.362 6.838 5.939-.488 15.342-1.25 17.003-1.326z"/>
    <path d="M65.596 85.563c-2.778.842-4.024 1.259-5.833-1.266-1.355-1.891-8.685-15.093-12.278-21.6-6.801 1.781-19.248 5.03-22.838 5.892-3.503.842-4.999-1.259-5.575-2.553-.404-.908-10.674-23.051-17.223-37.26v50.891c0 5.009 1.778 9.291 5.335 12.848 3.556 3.556 7.839 5.335 12.848 5.335H80.64c5.008 0 9.291-1.778 12.848-5.335 3.556-3.557 5.335-7.839 5.335-12.848V73.69c-7.442 2.721-31.356 11.306-33.227 11.873z"/>
    <path d="M24.732 63.489c.985-.225 19.437-4.642 19.831-4.726.394-.084.647-.31.225-1.041-.422-.731-24.597-42.459-24.597-42.459-.223-.383-.16-.511-.766-.479-.541.029-14.219 1.249-17.386 1.514-.093.659-.15 1.332-.174 2.019 3.215 6.581 21.667 44.636 21.77 44.946.113.338.113.451 1.097.226z"/>
</svg>
