<svg xmlns="http://www.w3.org/2000/svg" viewBox="0 0 97.05 100">
    <g fill-rule="evenodd">
        <path d="M54.165 22.16c-3.41 0-6.44 1.266-8.874 3.726-2.433 2.457-3.71 5.526-3.71 8.988v17.503h7.939V34.874c0-1.327.433-2.365 1.38-3.322.951-.96 1.958-1.395 3.265-1.395 1.335 0 2.326.433 3.28 1.395.947.957 1.38 1.995 1.38 3.322v17.503h7.939V34.874c0-1.327.433-2.365 1.38-3.322.953-.962 1.945-1.395 3.28-1.395 1.307 0 2.314.435 3.264 1.395.948.957 1.381 1.995 1.381 3.322l.043 20.452c0 4.363-4.154 8.04-9.492 8.04l-25.6-.1c-4.119 0-7.637-4.01-7.637-9.162V15.59h-7.507v39.995c0 4.243 1.552 7.964 4.573 10.974 2.582 2.548 5.687 4.2 9.176 4.573H68.13c4.38 0 8.228-1.628 11.333-4.789h.014c2.64-2.713 4.184-5.963 4.56-9.622l-.03-21.847c0-3.462-1.277-6.53-3.71-8.988-2.434-2.46-5.464-3.725-8.874-3.725-3.347 0-6.275 1.244-8.643 3.523-2.362-2.275-5.27-3.523-8.615-3.523z"/>
        <path d="M45.165 87c-18.046 0-33.706-13.68-33.706-31.71l-.016-21.89v-5.583H.002V.001l48.247.227L63.34.261c18.062 0 33.706 13.664 33.706 31.71V87H45.165zm44.53-14.761V31.97c0-13.453-11.798-24.36-26.355-24.36H48.231v-.03L7.368 7.401v13.064h4.577c3.108 0 6.848 2.92 6.848 7.206l.032 27.604c0 13.453 11.798 24.359 26.34 24.359h35.9c4.603 0 8.63-2.915 8.63-7.395z"/>
    </g>
</svg>
