<svg xmlns="http://www.w3.org/2000/svg" viewBox="0 0 87.422 99.575" version="1.0">
    <path d="M0 5.953h37.01v3.588h-3.59v3.952L0 16.399V5.953zm52.543 10.693a8.507 8.507 0 0 0 8.522-8.525c0-4.711-3.81-8.547-8.522-8.547a8.55 8.55 0 0 0-8.549 8.547c.001 4.727 3.821 8.525 8.549 8.525"/>
    <path d="M58.999 16.167a6.276 6.276 0 0 1 8.821 0l18.466 18.441a3.88 3.88 0 0 1 1.136 2.75V92.69c0 3.812-3.072 6.885-6.882 6.885s-6.937-3.073-6.937-6.885V47.044L56.391 29.817 49.509 36.7a4.238 4.238 0 0 1-3.281 1.539 4.237 4.237 0 0 1-3.125-1.384l-11.855-11.88c-1.51-1.794-1.382-4.518.402-6.03 1.793-1.51 4.466-1.253 5.978.53l9.014 9.051 12.357-12.359zm-35.897 2.622a1.795 1.795 0 0 0-3.525.052l-2.88 16.478v63.83h24.366v-9.051H26.109l-.103-54.779-2.904-16.53z"/>
</svg>
