<svg xmlns="http://www.w3.org/2000/svg" viewBox="0 0 100 100">
    <path fill-rule="evenodd" fill="#002b64" d="M97.81 13.606c-1.545.05-1.07.497-4.41 1.32-3.371.829-7.479.577-11.11 2.1-10.84 4.546-13.027 20.076-22.882 25.641-7.366 4.161-14.794 4.504-21.475 6.598-4.391 1.376-9.199 4.193-13.177 7.62-3.088 2.663-3.163 5.013-6.39 8.351-3.45 3.572-13.715.055-18.366 5.521 1.498 1.516 2.15 1.938 5.104 1.545-.612 1.16-4.213 2.132-3.507 3.837.742 1.794 9.456 3.012 17.378-1.77 3.69-2.228 6.633-5.432 12.378-6.199 7.435-.99 15.993.634 24.6 1.875-1.275 3.806-3.832 6.327-5.884 9.358-.636.684 1.273.76 3.454.347 3.925-.97 6.76-1.748 9.722-3.472 3.639-2.118 4.182-7.54 8.646-8.715 2.488 3.823 9.257 4.724 13.455 1.666-3.684-1.042-4.699-8.888-3.455-12.343 1.177-3.27 2.338-8.506 3.524-12.83 1.273-4.643 1.74-10.482 3.281-12.846 2.319-3.559 4.876-4.782 7.1-6.788 2.225-2.007 4.269-3.968 4.202-8.56-.022-1.478-.781-2.301-2.188-2.256zm-.433.85c.122-.015.229 0 .347 0 .118 0 .247.004.364.018.101.01.183.023.26.052.16.112.37.197.487.382a.957.957 0 0 1 .121.243c.079.327.152.634.14 1.007v.19c-.019.175-.042.369-.07.556-.045.052-.019.085-.07.14-.06.062-.13.16-.208.208-.089.009-.155.077-.278.069-.244-.019-.558-.029-.798-.052-.223-.026-.428-.066-.47-.07-.29-.054-.65-.095-.92-.277-.06-.043-.112-.081-.225-.157-.097-.115-.216-.227-.295-.364-.052-.115-.118-.216-.174-.33-.067-.14-.215-.339-.104-.504.301-.183.648-.402.938-.59l.243-.19c.063-.045.147-.088.243-.157.132-.055.186-.16.469-.174zm-3.212 2.691c.125.004.098.203-.087.417-.756.8-3.214 3.444-3.993 5.85-.138.412-.549.588-.347-.051.785-2.345 2.95-4.869 4.045-5.99.181-.168.307-.228.382-.226zm.33.556c.124-.013.135.178-.018.417-.636.897-2.709 2.975-3.142 5.468-.078.427-.457.661-.347 0 .448-2.432 2.234-4.343 3.16-5.607.155-.192.272-.27.347-.278zm.399.486c.123-.023.15.167.017.417-.559.948-1.913 2.688-2.135 5.208-.041.432-.383.685-.33.017.242-2.46 1.319-3.991 2.135-5.33.14-.204.24-.298.313-.312zm.451.382c.12-.034.145.156.035.417-.474.993-1.371 2.279-1.371 4.809-.004.434-.342.721-.348.052.025-2.473.694-3.543 1.39-4.948.12-.216.222-.31.294-.33zm-8.507 1.198c.31-.008.627.006.973.035.668 3.076-3.063 4.324-4.844 2.777.42-1.804 1.704-2.758 3.872-2.812zm-7.413 40.954c.15 2.403 1.546 7.174 2.778 8.333-2.412.586-6.555-.382-7.621-2.084.548-2.456 3.385-4.706 4.844-6.25z"/>
</svg>
