<svg xmlns="http://www.w3.org/2000/svg" viewBox="0 0 70.189 95.96" version="1.0">
    <path d="M2.662-.018C-.872 2.892.48 7.855.405 11.772c-.09 2.845 3.644 5.583 1.504 6.475-.25 4.055.82 8.005 1.063 12.036-.28 3.053 5.183 5.462 5.38 5.591-2.199-.711-5.779-5.033-4.884-.185 1.521 3.837 2.362 7.083 2.873 11.367-.183 1.865 2.374 3.72.241 4.075.235 3.493 1.565 9.886.883 11.439.57 3.7 1.471 7.325 1.912 11.113-.75 2.183 3.317 4.282 2.776 3.613-4.189.906 5.215 3.709.532 3.191-3.691.42 2.39 2.214-1.358 2.513-2.675 1.642 6.125-1.616 1.704 1.309-2.228 2.051 4.542-1.455 1.599 1.079-1.787 2.386-7.607 6.217-6.972 7.494 3.516-1.044 7.201-6.582 9.888-6.258.174 2.361-1.389 7.409-.015 8.02.913-1.848 1.41-7.882 2.477-6.986.287 2.558 2.268 3.838 1.227.515-.096-2.2-.094-5.2.326-1.223-.139 1.112 1.147 3.673 1.15.974 3.614 3.157-1.428-4.645 2.447-1.792 3.26.333-5.121-5.013-.985-2.753 2.436 2.008-.1-1.32 2.267.018 3.68-.14 5.47-2.968 7.513-5.02-2.286.023 3.35-1.604 3.627-3.514.517-1.832 5.208-4.507 3.785-5.45 1.296-.79 4.13-5.094 5.134-7.794-1.574.817-4.47 1.123-1.108.463 1.597-.82 4.183-4.334 3.706-5.205-4.547 1.846 2.032-.216 1.5-2.989 2.74-4.003 2.966-6.01 5.39-9.804.584-1.78 2.714-4.863-.762-2.471 1.233.392 4.466-3.104 3.943-4.79 1.444-2.514 4.082-8.233 3.24-9.72-2.543 1.964 2.823-2.173 2.398-4.003 1.298-2.634-.892-1.674-.597-1.707 1.568-2.027 2.288-5.496 2.732-6.137 1.67-2.745 2.638-6.173 2.727-9.442-2.245 4.15 3.39-6.16-1.945-4.839-3.09 1.787-6.14 4.024-7.985 7.178-3.312 2.681-1.68 7.114-1.278 10.698-.662-1.945-.357-9.866-2.413-4.512-.734 1.665 1.05 9.088-.017 4.343.127-1.687-.234-5.09-1.594-1.706-3.892 2.437-5.224 7.19-8.366 10.352-2.338 2.66-.214 8.24.312 9.449-1.319-1.68-1.06-6.437-2-6.785-2.012 2.11-3.414 4.992-4.062 7.463-.501-.775-2.476 4.052-3.646 5.434-1.767 1.688-3.324 6.401-2.46 7.107.412-3.009-1.033-3.462-2.385-.763-1.898 1.943-3.385 4.458-1.95 7.248-.597-2.137-.638-5.09-2.259-1.344-2.428 3.974-1.974-5.832-3.679-1.233 2.115-1.774-.253-7.734-.609-5.544.301-3.723-1.423-7.14-2.442-10.923-.872-3.402-1.854-6.897-3.101-10.13-1.304-3.577-3.347-6.834-4.48-10.469-2.773-3.033-3.131-7.104-4.915-10.605C6.658 4.113 5.487.808 2.662-.017zm.717 1.303c.356 2.257-.1 3.025-.068.271l.057-.229zm-1.299.059c1.034.92.66 1.085 0 0zm66.58.554c-.967 1.683-3.855 6.392-3.397 5.842 1.135-2.185 2.025-4.155 3.397-5.842zm.494.557c-.872.845-2.08 1.922 0 0zM3.294 3.953c.742 2.998 1.073 4.62 0 0zm65.097.479c-.945.762-1.323.768 0 0zm-6.118.81c-.568 1.927.352 5.4-.27 1.573a4.265 4.265 0 0 1 .27-1.573zm1.188.817c.196 1.55-.092 1.24 0 0zM.33 6.787c.717.723 1.835 2.47.5.702zM65.562 8.22c-.206 1.778-.898 1.054 0 0zm-60.47.474c.207.657.137.434 0 0zm1.112.026c.269 2.012-.957 3.344-.443.709.193-.2.284-.483.443-.71zm2.395.447c-.47 1.767-.106.398 0 0zm59.638.28c-2.022.49-5.536 3.881-5.427 4.13.768-2.452 3.633-2.747 5.427-4.13zm-8.46 1.433c.357 2.511.307 3.707 0 0zm-57.65.967c1.285.952 2.253 1.944 0 0zm64.804 1.29c-1.245.932-4.05 2.693-1.222.83l.612-.412zM2.47 14.796c1.66 1.406 5.307 4.04 1.475 1.26a23.28 23.28 0 0 1-1.475-1.26zm59.5.752c-.682 2.019-2.813 5.508-.75 1.538l.75-1.538zm-50.092.465c.179.625.082 2.237.006.667zm41.809 3.677c-.534 2.05 2.397 7.721.245 2.752-.24-.893-.344-1.83-.246-2.752zm-42.702.666c-.543 1.132-.726.982 0 0zm1.045 1.635c-.498 1.263-.675.813 0 0zm-7.636.006c2.042 1.16 3.593 2 .62.463l-.62-.463zm9.224.371c-.964 1.849-2.93 4.683-.794 1.345.28-.439.551-.884.794-1.345zm2.783 2.696c.272 2.066-1.816 5.277-.2 1.626a6.391 6.391 0 0 0 .2-1.626zm-11.013.072c2.36.822 4.037 1.424.723.291l-.723-.291zm5.363 1.498c.744-.052-.27.88 0 0zM60.25 28.19c-.538.2-.757.28 0 0zm-11.61.08c.985 1.748 2.752 6.608 2.105 6.69 1.077-2.518-2.1-4.269-2.104-6.69zm10.913.178c-1.925.696-6.005 1.982-1.766.55.59-.18 1.181-.354 1.766-.55zm-54.23 1.049c1.65 1.012 7.456 2.718 2.451 1.159a18.199 18.199 0 0 1-2.452-1.159zm41.343.533c.32 1.877 1.538 5.066.288 1.534a8.92 8.92 0 0 1-.288-1.534zM5.068 31.785c1.79 1.092 3.194 1.917.578.436-.206-.128-.385-.29-.578-.436zm38.309 1.065c-.505 2.392 1.786 6.895 1.77 7.498-.876-2.408-2.081-4.862-1.77-7.498zM16.006 35.2c-.511 1.023-1.057 1.41 0 0zm3.79.168c.006 2.196-.468 2.58 0 0zm-15.275.12c.964 1.702 7.702 4.482 2.75 2.269-1.026-.607-2.001-1.333-2.75-2.27zm13.032.415c-1.016 1.977-3.276 6.383-1.097 1.887.357-.634.732-1.257 1.097-1.887zm-2.51 1.17c.193 1.965-1.083 1.888-1.135.032-.157 1.686 1.07 1.036 1.135-.032zm27.475 1.537c.712 1.764 2.342 6.878.873 2.568a61.86 61.86 0 0 1-.873-2.568zM7.584 39.705c1.782.814 5.82 2.97 1.667.863l-.838-.423zm10.656.254c-1.02 1.503-3.575 5.257-1.318 1.606.437-.538.899-1.055 1.318-1.606zm-6.246.105c1.643 1.286 1.794 2.145 0 0zm8.381.221c-.892 1.935-2.018 2.968-.27.555zm20.01.64c-.487 2.282 4.67 9.23 1.3 4.28a11.249 11.249 0 0 1-1.3-4.28zm14.023 1.061c-1.922.567-9.591 4.138-4.216 1.597 1.389-.576 2.823-1.033 4.216-1.597zm-16.084.436c.143 2.116 2.328 5.85.256 1.834a5.88 5.88 0 0 1-.256-1.834zm7.58.135c.174 2.234-.547 1.843 0 0zm-32.32.32c.357-.015.082.534 0 0zm41.887.674c-1.511 2.462-7.555 3.69-8.07 3.668 3.001-.282 5.834-1.676 8.07-3.668zm-45.6.334c2.42.653 4.335 1.416.81.376zm6.031.566c.587 1.8.853 3.335.14.561zm5.9.262c-1.107 2.124-2.613 3.22-.362.676zm-14.27.324c2.013.899 3.824 1.776.715.49-.257-.135-.48-.32-.716-.49zm6.952 1.688c1.268 1.504-.864.603 0 0zm20.979.459c-.46 2.2 5.153 7.82 1.301 3.557-.73-1.045-1.247-2.272-1.301-3.557zm16.664.996c-1.4.859-4.83 1.32-1.342.557l.68-.255zm-37.385.078c.458 2.154.119 1.32 0 0zm2.022.096c.98 1.465-.113 2.19 0 0zm25.049.724c.67.502.538 1.198 0 0zm3.056.44c-.881 2.184-1.667 2.276-.08.1zm-35.941.433c1.753 1.14 8.119 1.363 2.64.953-.923-.168-1.835-.46-2.64-.953zm33.224.092c-.692 1.236-1.239 1.772 0 0zm-7.625 1.068c.334.747.46 1.027 0 0zm-17.226.008c.632.222-.263.717 0 0zm23.789.418c-.78 1.595-1.248 1.998 0 0zm-32.053.393c2.171 1.015 2.495 1.14 0 0zm26 .261c.297.486.973 1.59 0 0zm-16.055.204c-1.207 1.694-2.317 1.08 0 0zm3.045.53c-.968 1.125-4.177 2.962-1.306 1.093l.664-.533zm27.795.065c-1.849 1.06-5.724.952-1.611.563a9.196 9.196 0 0 0 1.611-.563zm-34.16.72c1.892 2.88-5.415.211-.447 1.337.646-.022.9-.913.447-1.336zm6.83 1.597c-1.333.966-2.184 1.532 0 0zm-4.474.341c.258 1.53.2 2.002 0 0zm23.957.256c1.516.274 4.788.169 1.447.186l-.726-.077zm-9.358.424c2.021 2.727 1.438 2.177 0 0zm-5.037.115c-.059 2.65 4.188 6.339 4.363 6.83-1.875-1.942-3.95-4.034-4.363-6.83zm-15.748.387c2.01.294 3.61.78.605.135zm3.723.547c1.124-.34.673.898 0 0zm-7.239.086c1.199.529 1.088 1.151 0 0zm33.006.07c.761-.02 2.6.368.77.124zM23.05 57.6c-1.293.795-1.243.789 0 0zm-6.57 1.607c.912 1.132-1.238-.117 0 0zm18.613.201c1.17.717-.247 1.572 0 0zm3.619.438c2.037.472 6.347.41 1.82.336a10.403 10.403 0 0 1-1.82-.336zm-28.582.935c1.965.79 8.456 1.068 2.94.682-.999-.126-1.993-.332-2.94-.682zm23.353.215c1.262.554.709 1.707 0 0zm-6.5.883c1.407 1.52 5.818 5.753 1.886 2.112-.672-.663-1.335-1.342-1.886-2.112zm-8.205.03c.434 2.12.332 5.572.148 1.54-.037-.514-.106-1.026-.148-1.54zm20.453.341c2.217.266 3.599.51 0 0zm-28.363 1.355c1.628.186 8.379.517 3.382.302-1.131-.013-2.281-.001-3.382-.302zm9.52 1.444l-.17.08zm-3.15.318c.045.44.032.312 0 0zm16.751.444c2.501-.02-.614.85 0 0zm1.375.46l.88.303zm-18.006.3c.757 1.583-.623 1.306 0 0zm5.254.038l-.08.063zm10.66.162c-.706 1.19-.878.89 0 0zM9.69 68.491c1.28 1.023 6.548 1.698 2.381 1.096-.848-.224-1.668-.58-2.38-1.097zm18.975.98c.12.87-1.266.87 0 0zM17 69.51c.059.901-1.298-.28 0 0zm23.596.228c-.759.228-1.097.33 0 0zm-14.54.838l.048.054zm-11.472.727c4.187.296-4.794.112-.3.003l.236-.003h.064zm10.037.486c.213.092-.225.123 0 0zm7.434.16c1.882.729 5.514.848 1.572.493a9.274 9.274 0 0 1-1.572-.493zm-3.05.328c1.61.65-1.014.472 0 0zm-7.644.7c.459.23-.336.075 0 0zm4.504.189c-.11.405-.882.35 0 0zm2.053.406c1.17 1.85 5.058 2.12 1.084 1.056-.352-.065-2.082-.346-1.084-1.056zm-11.092.33c.357.235-.401.072 0 0zm-3.59.094c1.067-.006 2.597.21 0 0zm24.455.399c-.544.17-.736.229 0 0zm-14.31.125c.207.184-.525-.02 0 0zm13.644.066l-.849.08zm-10.845 1.14c.717 1.95 5.061 2.606.925 1.225-.428-.22-1.204-.599-.925-1.224zm-1.528 2.03c.594.461-.493.132 0 0zm-.232.139c-.621 1.164-.808.433 0 0zm.414.18c1.678 1.118 5.575 2.546 1.516.944a10.634 10.634 0 0 1-1.516-.945zm6.078.134c1.12.1 1.113.092 0 0zm1.756.064l-.176.008zm-18.426.78l-.224.027zm2.803.187c.648.167.475.122 0 0zm.598.137c.544-.06-.09.658 0 0zm12.359.852l.494.062zm-13.095 1.36c-11.271 9.58-5.636 4.79 0 0zm4.646-.198c1.124.635-.593.517 0 0zm-.676.656c.775 1.248.255 1.384 0 0zm-1.258 1.431c-13.08 8.321-6.54 4.16 0 0z" fill-rule="evenodd"/>
</svg>
