<svg xmlns="http://www.w3.org/2000/svg" height="100" viewBox="0 0 55.79 100" width="55.79" version="1.0">
    <path d="M2.14 54.864l21.597 12.472-2.14 3.705L0 58.568z"/>
    <path d="M43.637 78.138c6.239-5.891 10.189-14.167 10.189-23.404 0-11.38-5.975-21.646-15.271-27.412L48.969 9.297l-1.636-.942 2.568-4.467L43.168 0l-2.575 4.46-1.722-.995-25.6 44.348 2.236 1.292-3.175 5.49 5.626 3.25 3.174-5.495 2.232 1.29 10.765-18.642c6.6 4.207 10.838 11.58 10.838 19.739 0 12.904-10.508 23.404-23.413 23.404H2.69V87h53.1v-8.86H43.638z"/>
</svg>
