<svg xmlns="http://www.w3.org/2000/svg" viewBox="0 0 100 100">
    <path d="M33.504 70.703h5.45c.332 0 .63-.3.63-.633v-5.41a.63.63 0 0 0-.63-.636h-5.45a.63.63 0 0 0-.629.636v5.41c0 .333.3.633.63.633zm-15.15 0c.37 0 .633-.3.633-.633v-5.41a.611.611 0 0 0-.634-.636h-5.411a.63.63 0 0 0-.631.636v5.41c0 .333.297.633.63.633h5.412zm4.884-9.803h5.415a.632.632 0 0 0 .633-.63v-5.416c0-.332-.3-.63-.633-.63h-5.415c-.331 0-.63.3-.63.63v5.417c0 .36.299.629.63.629zm-4.885 29.334a.61.61 0 0 0 .634-.629v-5.417a.632.632 0 0 0-.634-.629h-5.411a.655.655 0 0 0-.631.63v5.416c0 .365.297.63.63.63h5.412zm.634-35.382a.63.63 0 0 0-.634-.63h-5.411c-.334 0-.631.3-.631.63v5.417a.63.63 0 0 0 .63.629h5.412c.37 0 .634-.268.634-.63v-5.416zM38.955 80.47c.33 0 .629-.3.629-.632v-5.414c0-.331-.3-.629-.63-.629h-5.45c-.331 0-.629.3-.629.63v5.413c0 .333.3.632.63.632h5.45zm-6.08-25.618v5.417c0 .361.3.629.63.629h5.45a.63.63 0 0 0 .629-.63v-5.416c0-.331-.3-.63-.63-.63h-5.45c-.33 0-.629.3-.629.63zm8.402-24.982c0-3.12-2.39-5.614-5.315-5.614H13.9c-2.92 0-5.316 2.491-5.316 5.614v11.926c0 3.091 2.394 5.583 5.316 5.583h22.062c2.924 0 5.315-2.492 5.315-5.583V29.87zM12.94 73.793c-.333 0-.631.3-.631.63v5.413c0 .333.298.632.63.632h5.412c.37 0 .635-.3.635-.632v-5.413a.63.63 0 0 0-.635-.63H12.94zm16.347-9.135c0-.371-.3-.636-.632-.636h-5.417a.63.63 0 0 0-.63.636v5.41c0 .333.3.633.63.633h5.415c.333 0 .633-.3.633-.633v-5.41zm-6.678 9.765v5.413c0 .333.3.632.629.632h5.415c.333 0 .633-.3.633-.632v-5.413c0-.332-.3-.63-.633-.63h-5.415a.651.651 0 0 0-.63.63zm0 15.18c0 .365.3.63.629.63h5.415a.63.63 0 0 0 .633-.63v-5.416c0-.328-.3-.63-.633-.63h-5.415a.655.655 0 0 0-.63.63v5.417zm16.975-5.416c0-.328-.3-.63-.63-.63h-5.45a.655.655 0 0 0-.629.63v5.417c0 .364.3.629.63.629h5.45a.63.63 0 0 0 .629-.63v-5.416zm8.507-60v67.478c0 3.387-2.757 6.11-6.217 6.11H9.32c-3.39 0-6.18-2.723-6.18-6.11V24.187c0-3.355 2.79-6.078 6.18-6.078h.065V3.423c0-.898 1.46-1.658 3.29-1.658.896 0 1.726.196 2.29.495.599.296.965.702.965 1.163V18.11h25.946c3.458 0 6.215 2.723 6.215 6.078z"/>
</svg>
