<svg xmlns="http://www.w3.org/2000/svg" width="63.64" height="99.997" viewBox="0 0 63.64 99.997">
    <path d="M32.995 45.957V35.609a3.103 3.103 0 0 0 1.348-2.559 3.132 3.132 0 0 0-3.119-3.119 3.124 3.124 0 0 0-3.119 3.119c0 1.058.527 1.989 1.322 2.552v10.273H9.473a2.888 2.888 0 0 0-2.884 2.875v48.369a2.884 2.884 0 0 0 2.884 2.878h22.865a2.88 2.88 0 0 0 2.884-2.878V48.75c0-1.357-.951-2.49-2.227-2.793zm-2.187 25.856a2.893 2.893 0 0 1-2.878 2.884H13.418a2.89 2.89 0 0 1-2.884-2.884v-17.07a2.881 2.881 0 0 1 2.884-2.884H27.93a2.884 2.884 0 0 1 2.878 2.884v17.07z"/>
    <path d="M60.117 31.826C60.078 16.191 47.448 3.558 31.81 3.525 16.185 3.558 3.542 16.191 3.503 31.826a1.76 1.76 0 0 1-1.758 1.768C.781 33.594 0 32.796 0 31.826 0 14.261 14.245 0 31.81 0c17.579 0 31.83 14.261 31.83 31.826 0 .97-.794 1.768-1.765 1.768-.97 0-1.758-.798-1.758-1.768z"/>
    <path d="M50.983 31.826c-.032-10.599-8.574-19.147-19.173-19.157-10.586.01-19.16 8.558-19.18 19.157 0 .97-.775 1.768-1.751 1.768-.97 0-1.758-.797-1.758-1.768 0-12.523 10.156-22.669 22.689-22.705 12.54.036 22.689 10.182 22.689 22.705 0 .97-.788 1.768-1.758 1.768s-1.758-.798-1.758-1.768z"/>
    <path d="M43.021 31.826c-.014-6.191-5.02-11.195-11.211-11.211-6.178.016-11.205 5.02-11.217 11.211 0 .97-.788 1.768-1.758 1.768s-1.758-.797-1.758-1.768c0-8.145 6.602-14.723 14.733-14.736 8.131.013 14.713 6.592 14.733 14.736 0 .97-.781 1.768-1.758 1.768a1.769 1.769 0 0 1-1.764-1.768z"/>
</svg>
