<svg xmlns="http://www.w3.org/2000/svg" height="100" viewBox="0 0 96.29 100" width="96.29">
    <path d="M95.068 0H33.693c-.673 0-1.22.557-1.22 1.247v27.294c-1.027-.34-1.431-.476-1.431-.476l-3.598-1.187c-5.585-1.848-10.858-2.982-12.805 2.904L.407 72.792c-1.79 5.415 2.646 8.633 6.751 9.99l5.206 1.724 5.21 1.722c4.103 1.357 9.582 1.423 11.374-3.995l3.524-10.649v13.978c0 .685.547 1.246 1.221 1.246h61.375c.673 0 1.22-.556 1.22-1.246V1.247A1.234 1.234 0 0 0 95.068 0zM65.14 3.315c.896 0 1.626.743 1.626 1.659 0 .915-.731 1.658-1.626 1.658-.896 0-1.62-.743-1.62-1.658 0-.917.725-1.659 1.62-1.659zm-39.12 25.63l8.458 2.797c.197.065.31.282.244.481-.067.203-.288.312-.42.267l-8.46-2.8c-.26-.085-.373-.304-.305-.505a.382.382 0 0 1 .483-.24zm-9.323 53.3c-.077.235-.521 1.219-1.53.889l-2.114-.702s-1.175-.39-2.112-.699c-1.012-.334-.782-1.388-.702-1.626.13-.394.555-.356 1.37-.086l2.02.67 2.022.67c.812.269 1.175.49 1.046.883zm10.419-.333L2.072 73.628l14.687-44.385 25.044 8.286-14.687 44.383zm37.264 1.683c-1.03 0-1.867-.852-1.867-1.903 0-1.05.833-1.903 1.867-1.903s1.867.854 1.867 1.903c0 1.051-.835 1.903-1.867 1.903zm28.201-8.363c0 .688-.544 1.245-1.22 1.245H37.402a1.23 1.23 0 0 1-1.22-1.245V60.37l6.997-21.147c1.764-5.333-2.1-7.666-6.997-9.433V9.815c0-.688.546-1.246 1.22-1.246H91.36c.675 0 1.22.558 1.22 1.246v65.417z"/>
</svg>
