<svg xmlns="http://www.w3.org/2000/svg" viewBox="0 0 82.24 100">
    <path d="M33.338 0c-.302-.035-5.14 1.706-8.25 2.97-4.213 1.71-7.487 3.354-9.504 4.77-.657.462-1.46 1.243-1.743 1.676l-.007-.023s-.04.06-.075.165c-.002.004-.006.01-.007.015a1.167 1.167 0 0 0-.038.142c-.023.102-.036.21-.037.321l.022.023c.01.151.044.326.12.516.175.436.693.962 1.271 1.518 0 0 6.056 5.904 6.798 6.76 3.355 3.873 4.816 7.689 4.95 12.952.087 3.378-.564 6.346-2.146 9.797-2.835 6.185-8.81 13.003-18.037 20.587l.112-.037c-.055.044-.118.099-.172.142-1.101.878-2.737 2.503-3.575 3.544C1.775 67.388.8 69.04.38 70.311c-.753 2.286-.383 4.6 1.07 6.737 1.856 2.731 5.545 5.508 9.841 7.396 2.192.964 5.895 2.201 8.668 2.902 4.621 1.167 13.552 2.436 18.47 2.625.998.038 2.325.04 2.386 0 .108-.072.877-1.528 1.765-3.343 3.023-6.176 5.21-11.964 6.387-16.908.712-2.994 1.263-6.985 1.623-11.719.1-1.326.137-5.75.06-7.253-.127-2.446-.335-4.438-.681-6.394a4.204 4.204 0 0 1-.053-.367c10.948-3.253 23.05-6.204 31.071-7.433l1.25-.187-.195-.299c-1.091-1.696-1.834-2.743-2.73-3.851-2.618-3.238-5.788-5.882-9.672-8.058-5.332-2.985-12.252-5.304-20.997-7.043-1.649-.328-5.253-.94-8.196-1.398l-.291-.524c-1.607-2.836-3.382-6.345-4.413-8.72-.798-1.838-1.563-3.954-1.989-5.488-.252-.912-.278-.971-.419-.988zm-.232.696c.012-.002.02-.002.022 0 .01.011.064.393.12.845.232 1.905.656 3.755 1.323 5.743.503 1.498.509 1.409-.09 1.242-1.39-.388-7.615-1.455-12.122-2.08a33.01 33.01 0 0 1-1.346-.201c-.057-.057 3.253-1.793 4.72-2.476 1.88-.874 7-3.006 7.373-3.073zM19.974 6.798l.53.18c2.894.985 10.148 2.374 14.157 2.707.452.037.826.071.837.082.012.01-.372.216-.852.456-1.934.969-4.061 2.152-5.534 3.074-.349.218-.66.395-.8.456-.442-.075-.888-.156-1.331-.232l-1.294-1.256a568.533 568.533 0 0 0-5.013-4.801l-.703-.666zm-.531.426l1.914 2.393a318.517 318.517 0 0 0 2.348 2.902c.22.262.376.473.39.509a108.185 108.185 0 0 1-3.934-.74l-.277-.06-.165-.038c-.18-.04-.366-.084-.575-.135a46.338 46.338 0 0 1-.643-.157 34.04 34.04 0 0 1-.973-.269c-.005-.001-.01-.006-.015-.007-.186-.055-.372-.107-.553-.165-.028-.009-.053-.013-.082-.022-.11-.036-.216-.076-.322-.113-.131-.051-.282-.11-.426-.164v-.15c.01-.918 1.168-2.277 3.134-3.663l.18-.12zm16.317 3.26c.058.005.115.122.285.494.464 1.019 1.916 3.782 2.265 4.315.03.044.057.077.06.098a885.29 885.29 0 0 1-7.784-1.257c.012-.023.137-.104.299-.194a26.773 26.773 0 0 0 4.158-2.88c.306-.258.596-.5.65-.545.022-.019.048-.032.067-.03zm-18.419 2.312c.009-.008.239.063.516.157.511.173 1.182.379 1.967.598.55.154 1.16.315 1.802.479.82.21 1.495.394 1.503.404.091.102 1.468 4.492 1.937 6.176.18.644.312 1.177.3 1.19-.013.012-.166-.223-.337-.524-1.592-2.8-4.114-5.643-7.03-7.934a10.005 10.005 0 0 1-.658-.546zm6.708 1.854c.07-.004.373.048.733.128a223.37 223.37 0 0 0 9.139 1.764c.444.075.807.155.807.18 0 .024-.164.13-.366.232-.448.225-2.259 1.307-2.864 1.712-1.512 1.012-2.87 2.097-3.86 3.081-.397.396-.729.718-.74.718s-.083-.233-.157-.516c-.494-1.897-1.52-4.699-2.438-6.67-.147-.318-.269-.596-.269-.621 0-.003.005-.007.015-.008zm11.808 2.244c.078.026.219.488.479 1.518.498 1.972.735 4.188.658 6.237-.022.57-.06 1.096-.082 1.174l-.045.142-.703-.225a175.15 175.15 0 0 0-5.853-1.727c-1.155-.32-2.102-.6-2.102-.628 0-.085 1.684-1.776 2.408-2.416 1.384-1.223 5.11-4.12 5.242-4.076zm.935.135c.042-.04 5.637.933 8.181 1.42 1.896.363 4.643.933 4.809 1.002.08.034-.204.195-1.114.606-3.603 1.625-6.276 3.07-8.93 4.846-.698.468-1.273.853-1.285.853-.013 0-.023-.391-.023-.868-.002-2.587-.518-5.197-1.466-7.403-.102-.238-.182-.447-.172-.457zm14.478 2.864c.043.043-.14 1.15-.3 1.802-.495 2.03-1.812 5.043-3.432 7.874-.285.5-.539.911-.568.92-.03.01-.395-.18-.815-.426-1.584-.926-3.378-1.805-5.347-2.617-.55-.227-1.023-.427-1.047-.45-.09-.083 4.29-2.982 6.61-4.374 1.856-1.114 4.847-2.781 4.899-2.73zm1.032.164c.126 0 2.605.678 3.888 1.062 3.198.956 6.888 2.301 9.28 3.388l.995.448-.695.165c-5.855 1.345-10.878 2.899-15.712 4.86-.401.164-.745.3-.77.3-.024 0 .098-.316.277-.696 1.453-3.086 2.396-6.32 2.64-9.07.022-.251.064-.457.097-.457zm-24.677 5.669c.04-.04 1.93.406 2.961.695 1.55.435 4.844 1.538 4.846 1.623 0 .016-.364.332-.807.703-1.783 1.491-3.498 3.052-5.557 5.04-.61.59-1.133 1.07-1.159 1.07-.026 0-.037-.09-.022-.195.31-2.29.244-5.226-.187-8.218-.055-.38-.089-.705-.075-.718zm39.791.037c.028.029-.88 1.444-1.443 2.251-.822 1.178-2.012 2.727-4.726 6.14a1936.497 1936.497 0 0 0-3.575 4.51c-.542.686-.997 1.248-1.01 1.248-.013 0-.188-.247-.388-.546a28.435 28.435 0 0 0-5.512-6.095 39.38 39.38 0 0 0-1.01-.822c-.151-.113-.275-.216-.276-.232-.002-.037 2.31-1.032 4.075-1.75a138.75 138.75 0 0 1 10.418-3.71c1.657-.508 3.422-1.019 3.447-.994zm1.04.277c.05-.01.381.147.777.374 3.312 1.897 6.557 4.337 9.109 6.842.725.713 2.501 2.558 2.475 2.573-.007.004-.618.049-1.361.105-5.738.431-13.076 1.652-20.139 3.35-.48.115-.893.217-.92.217-.026 0 .5-.532 1.167-1.174 4.148-3.988 6.037-6.502 8.263-11 .332-.67.617-1.252.629-1.287zM38.13 29.15c.19.043 1.956.865 3.29 1.534 1.222.611 3.072 1.596 3.164 1.682.012.011-.642.351-1.45.756a92.107 92.107 0 0 0-7.038 3.888c-.653.4-1.201.726-1.219.726-.057 0-.036-.049.33-.718 1.219-2.233 2.2-4.903 2.766-7.508.05-.233.115-.369.157-.36zm-1.78.315c.037.037-.427 1.724-.717 2.625-.558 1.727-1.502 3.9-2.408 5.534-.213.383-.533.945-.718 1.249l-.337.545-.77-.732c-.888-.861-1.611-1.402-2.535-1.877-.363-.187-.658-.356-.658-.382-.002-.112 2.326-2.23 4.12-3.746 1.285-1.087 3.99-3.249 4.023-3.216zm10.829 4.457l.665.426a53.179 53.179 0 0 1 4.704 3.47c.771.643 2.265 1.986 2.573 2.31l.172.173-1.107.306c-6.242 1.732-11.065 3.28-16.691 5.347-.625.23-1.16.42-1.197.42-.078 0-.155.064 1.249-1.227 3.599-3.312 6.778-6.957 9.153-10.507l.479-.718zm-2.85.71c.033.033-1.845 2.666-2.96 4.15-1.335 1.777-3.712 4.746-5.348 6.679-.683.807-1.262 1.477-1.293 1.488-.035.012-.06-.188-.06-.501a11.427 11.427 0 0 0-1.16-4.906c-.31-.63-.363-.78-.298-.837.256-.233 4.227-2.503 6.73-3.844 1.72-.922 4.357-2.261 4.39-2.229zm-17.203 4.214c.034 0 .349.163.703.36.87.48 1.652 1.01 2.34 1.585.028.022-.33.31-.792.643a141.903 141.903 0 0 0-4.397 3.328c-1.202.956-1.242.984-1.107.777.9-1.376 1.352-2.16 1.825-3.156a25.42 25.42 0 0 0 1.137-2.849c.124-.38.257-.688.291-.688zm4.584 3.597c.062-.007.148.108.516.658.777 1.161 1.372 2.711 1.526 3.971l.03.27-1.862.725c-3.343 1.297-6.417 2.578-8.495 3.53-.582.266-1.611.756-2.281 1.092-.67.335-1.212.597-1.212.583s.42-.33.935-.703c4.079-2.961 7.596-6.204 10.245-9.445.283-.347.536-.653.568-.673.009-.005.021-.006.03-.008zm-2.116.524c.054.054-1.508 1.822-2.558 2.894-2.627 2.682-5.23 4.78-8.457 6.828-.404.256-.775.487-.823.515-.089.052.026-.078 1.443-1.622a39.67 39.67 0 0 0 2.356-2.79c.51-.663.605-.753 1.353-1.293 2.017-1.456 6.632-4.586 6.686-4.532zm18.27 1.63c.193.784.55 4.317.65 6.663.024.564.018.928-.015.928-.108 0-2.313-1.294-3.874-2.274-1.347-.846-3.874-2.529-4.33-2.879 2.382-.81 4.93-1.634 7.568-2.438zm-9.012 2.932c.187.091.47.265.942.56 2.813 1.762 6.625 3.88 8.256 4.592.506.221.567.136-.598.927-2.484 1.687-5.578 3.349-9.37 5.033-.66.294-1.219.531-1.241.531s.053-.336.164-.748c.919-3.397 1.436-6.829 1.45-9.58.004-.673.007-1.01.023-1.188.123-.043.25-.084.374-.127zm-2.109.747c.05.545-.007 3.1-.097 3.852-.238 1.992-.625 3.835-1.249 5.93-.149.5-.292.931-.314.957-.054.063-1.915-1.749-2.535-2.468-1.059-1.228-1.895-2.447-2.505-3.649-.262-.515-.652-1.448-.74-1.75a241.683 241.683 0 0 1 6.042-2.356c.449-.168.93-.345 1.398-.515zm-8.863 3.465c.038.068.11.24.187.45.434 1.178 1.41 2.924 2.258 4.045.926 1.223 2.131 2.529 3.14 3.395.325.278.63.537.674.576.086.076.114.062-2.109.905a182.052 182.052 0 0 1-8.607 2.998 483.47 483.47 0 0 0-2.304.748c-.122.046-.082-.03.277-.59 1.6-2.5 4.021-7.387 5.377-10.844.235-.6.46-1.197.5-1.331a.913.913 0 0 1 .046-.12l.56-.231zm-2.834 1.204c-.155.388-.728 1.573-1.293 2.677-1.319 2.572-2.774 5.107-4.704 8.197a78.342 78.342 0 0 1-.68 1.076c-.07.1-.096.07-.307-.351a12.391 12.391 0 0 1-1.047-3.156c-.198-1.067-.164-2.915.075-4.06.095-.46.143-.661.224-.786a158.966 158.966 0 0 1 7.732-3.597zm23.549.815v.576c-.003 3.04-.33 7.208-.8 10.245-.083.533-.152.974-.157.98-.006.005-.39-.11-.853-.255a35.1 35.1 0 0 1-6.267-2.677c-1.325-.726-3.239-1.905-3.185-1.96a39.5 39.5 0 0 1 1.249-.665c2.675-1.389 5.233-2.882 7.455-4.367.834-.557 2.079-1.462 2.356-1.705l.202-.172zm-33.77 4.054c.015.052-.01.207-.075.583-.06.349-.125 1.003-.15 1.458-.11 1.993.215 3.462 1.204 5.474.276.56.49 1.03.479 1.04-.1.083-9.11 2.716-11.943 3.492-.84.23-1.577.438-1.637.456-.099.03-.103.006-.068-.224.31-2 1.833-4.625 3.964-6.828 1.2-1.24 2.2-2.057 3.649-2.946.683-.394 1.491-.843 2.602-1.45.648-.355 1.31-.706 1.975-1.055zm21.228 3.78c.009-.01.342.166.74.397 2.912 1.683 6.977 3.26 10.44 4.053l.314.075-.434.24c-1.809 1.003-7.764 3.482-13.85 5.765a268.8 268.8 0 0 0-1.921.725c-.17.067-.314.118-.314.105 0-.013.253-.501.56-1.077 1.71-3.194 3.418-7.073 4.293-9.766.09-.275.164-.506.172-.516zm-2.168.711c.009.01-.093.29-.232.628-1.188 2.872-2.742 6.008-4.727 9.527-.504.896-.933 1.624-.95 1.623a19.547 19.547 0 0 1-.912-.538c-2.89-1.77-5.447-3.947-7.126-6.065l-.24-.3 1.25-.343c4.444-1.218 8.209-2.521 11.957-4.136.53-.228.97-.405.98-.396zm13.468 4.696c.006.002.007.01.007.015 0 .303-.69 3.101-1.264 5.13-.48 1.702-.883 3.04-1.63 5.4-.33 1.041-.611 1.888-.628 1.884s-.099-.023-.18-.037c-4.048-.733-7.67-1.754-11.067-3.119-.95-.382-2.328-.99-2.4-1.062-.025-.024.798-.404 1.824-.852 6.204-2.707 12.631-5.79 14.83-7.112.264-.159.463-.256.508-.247zm-31.08 1.062c.032.032-1.705 2.523-4.129 5.915-.842 1.18-1.832 2.562-2.198 3.081-.367.52-.92 1.346-1.234 1.833l-.569.882-.613-.516c-.716-.601-1.966-1.871-2.535-2.58-1.17-1.458-1.968-2.995-2.28-4.404-.145-.651-.146-.984-.008-1.025.198-.06 3.833-.914 7.246-1.705 1.896-.44 4.09-.955 4.876-1.144.785-.19 1.435-.344 1.443-.337zm1.742.673l.44.486c1.964 2.187 3.959 3.82 6.395 5.228.43.248.76.468.733.486-.102.062-8.423 3.018-12.272 4.36a446.63 446.63 0 0 1-3.963 1.368 3.328 3.328 0 0 1-.27-.18l-.254-.179.396-.56c1.278-1.85 2.884-3.89 6.395-8.116l2.402-2.893zm10.88 7.77c.01-.012.618.203 1.354.479a43.3 43.3 0 0 0 5.055 1.57c2.315.58 5.654 1.157 7.635 1.324.304.025.46.059.412.09-.092.058-2.093.732-3.567 1.196-2.342.736-9.497 2.846-15.33 4.524-1.083.312-2.009.573-2.057.584-.13.027-.59-.089-.59-.15 0-.03.327-.445.724-.92a82.594 82.594 0 0 0 5.534-7.44c.445-.678.82-1.245.83-1.257zm-2.408.067c.018.018-.954 1.57-2.654 4.248a1160.04 1160.04 0 0 0-1.81 2.857 50.442 50.442 0 0 0-.905 1.495l-.396.696-.21-.052c-.488-.133-3.928-1.352-4.838-1.713a31.67 31.67 0 0 1-3.17-1.458c-1.084-.586-2.464-1.454-2.356-1.488.03-.01 1.897-.518 4.142-1.13 5.973-1.628 9.275-2.562 11.442-3.238.405-.126.747-.224.755-.216zm16.961 3.979c.013-.003.021-.003.022 0 .057.141-2.16 6.27-2.968 8.21-.181.436-.243.536-.337.532-.229-.01-3.436-.454-5.377-.748-3.395-.515-9.084-1.51-10.52-1.838l-.336-.075 2.042-.456c4.364-.983 6.458-1.51 8.585-2.161a62.05 62.05 0 0 0 8.016-3.096c.424-.197.785-.347.875-.367z"/>
</svg>
