<svg xmlns="http://www.w3.org/2000/svg" height="100" width="94.94" viewBox="0 0 75.952 80">
    <path d="M4.525-.025C2.717-.057 1.145.65.325 2.8c-1.382 3.618 2.067 7.167 3.3 9 .865 1.286 1.982 2.729 2.6 4.175.407.95.477 1.894.825 2.9.856 2.478 1.592 5.185 2.7 7.475.56 1.159 1.167 2.364 1.875 3.4.434.636 1.182.918 1.3 1.9-.727 1.093-.766 2.79-1.175 4.175-1.84 6.234-1.153 13.986 1.525 18.6.822 1.416 2.764 4.44 5.425 3.275 2.328-1.018 1.809-4.166 2.475-6.95.15-.631.055-1.102.35-1.525v.125c.707 1.518 1.418 3.058 2.125 4.575 1.569 2.714 4.34 5.536 6.7 7.45 1.224.993 2.253 2.296 3.775 3.3 2.69 1.697 1.197 2.402 20.175 9.25.231.182 7.499 2.585 11.35 3.825 5.272 1.697 9.88 2.065 10.3 2.225v-.125c-.379-.519-.502-1.235-.85-1.775l-1.5-1.65c-1.497-2.135-3.405-3.994-5.425-5.55-1.61-1.243-5.228-2.937-5.9-4.95-.04-.043-.085-.084-.125-.126 1.143-.138 2.496-.572 3.55-.875 1.771-.51 3.346-.393 5.175-.9.825-.253 1.65-.497 2.475-.75v-.5c-.924-1.019-1.592-2.378-2.6-3.3-2.637-2.412-5.51-4.815-8.475-6.825-1.644-1.114-3.658-1.83-5.4-2.775-.586-.317-1.613-.495-2-1.025-.915-1.253-1.42-2.84-2.125-4.3a167.896 167.896 0 0 1-4.25-9.6c-.894-2.194-1.486-4.357-2.6-6.325-5.349-9.444-11.108-15.148-20.026-20.75-1.897-1.192-4.16-1.66-6.575-2.275l-3.9-.25c-.791-.355-1.608-1.397-2.35-1.9C11.202 2.196 7.539.028 4.524-.026zm13.125 8.75c.85-.018 1.381.701 2.075 1.225 2.236 2.062 1.093 5.688-1.35 7.075-.868-1.995-1.559-4.096-3.075-5.625-1.697-1.113.179-2.952 1.95-2.625.136-.036.279-.047.4-.05z" fill="#00618a"/>
</svg>
