<svg xmlns="http://www.w3.org/2000/svg" height="100" width="94.91" viewBox="0 0 75.928 80">
    <path d="M69.919 61.915c-4.142-.12-7.305.293-10.01 1.518-.769.348-1.994.357-2.12 1.392.423.475.488 1.185.824 1.77.646 1.123 1.736 2.627 2.709 3.415 1.063.862 2.158 1.784 3.298 2.53 2.027 1.327 4.29 2.085 6.241 3.415 1.15.784 2.293 1.77 3.415 2.656.554.437.927 1.117 1.648 1.39v-.126c-.379-.517-.476-1.23-.824-1.77l-1.53-1.645c-1.498-2.134-3.398-4.008-5.418-5.564-1.61-1.242-5.216-2.92-5.888-4.933l-.118-.127c1.142-.138 2.48-.582 3.534-.885 1.77-.51 3.353-.378 5.181-.885l2.473-.76v-.505c-.924-1.019-1.583-2.367-2.591-3.288-2.637-2.412-5.515-4.821-8.479-6.83-1.644-1.115-3.675-1.84-5.417-2.783-.586-.318-1.615-.483-2.002-1.012-.915-1.253-1.414-2.841-2.12-4.3-1.479-3.056-2.93-6.395-4.24-9.611-.894-2.194-1.477-4.357-2.59-6.324C40.546 19.21 34.79 13.512 25.874 7.91c-1.897-1.191-4.181-1.662-6.595-2.276l-3.886-.253c-.791-.355-1.614-1.394-2.355-1.898C10.085 1.48 2.509-2.88.32 2.851-1.061 6.47 2.385 10 3.618 11.831c.865 1.286 1.972 2.728 2.59 4.174.407.95.477 1.903.825 2.909.856 2.477 1.6 5.172 2.708 7.462.56 1.158 1.177 2.379 1.885 3.415.434.635 1.177.915 1.295 1.897-.728 1.093-.77 2.79-1.178 4.174-1.84 6.233-1.146 13.98 1.531 18.592.822 1.416 2.757 4.453 5.417 3.289 2.327-1.019 1.807-4.173 2.473-6.957.15-.631.058-1.095.353-1.517v.126l2.12 4.553c1.57 2.713 4.353 5.55 6.713 7.463 1.223.992 2.186 2.708 3.768 3.288v-.127H34c-.306-.513-.786-.725-1.177-1.138-.922-.97-1.947-2.177-2.709-3.288-2.146-3.13-4.042-6.554-5.77-10.119-.825-1.702-1.542-3.58-2.238-5.312-.268-.668-.265-1.678-.824-2.024-.762 1.27-1.884 2.296-2.473 3.795-.942 2.395-1.064 5.317-1.413 8.347-.206.08-.115.025-.236.127-1.64-.425-2.216-2.239-2.826-3.794-1.542-3.935-1.828-10.27-.471-14.798.35-1.172 1.937-4.863 1.295-5.945-.306-1.08-1.318-1.705-1.884-2.53-.7-1.02-1.4-2.363-1.884-3.542-1.262-3.067-1.851-6.51-3.18-9.612-.635-1.482-1.708-2.982-2.59-4.3-.977-1.459-2.07-2.534-2.827-4.3-.269-.627-.634-1.631-.235-2.276.127-.436.306-.617.706-.759.684-.566 2.586.188 3.297.506 1.889.842 3.465 1.644 5.065 2.782.768.547 1.544 1.605 2.472 1.898h1.06c1.658.409 3.515.127 5.064.632 2.738.893 5.19 2.283 7.419 3.794 6.788 4.603 12.337 11.156 16.134 18.972.61 1.259.875 2.46 1.413 3.795 1.085 2.692 2.452 5.462 3.532 8.094 1.078 2.626 2.128 5.277 3.651 7.462.801 1.15 3.894 1.766 5.3 2.403.985.448 2.599.914 3.532 1.518 1.783 1.155 3.51 2.53 5.182 3.795.836.632 3.405 2.019 3.533 3.161z" fill="#00618a"/>
    <path d="M15.386 14.498c-.853-.017-1.457.1-2.095.25v.125h.116c.407.898 1.126 1.476 1.63 2.25l1.164 2.625.116-.125c.72-.546 1.051-1.418 1.047-2.75-.288-.327-.331-.736-.581-1.125-.333-.52-.977-.814-1.397-1.25z" fill-rule="evenodd" fill="#00618a"/>
</svg>
