<svg id="svg2" xmlns="http://www.w3.org/2000/svg" height="100" width="88.19" version="1.0" viewBox="0 0 88.19 115.814">
    <style id="style4" type="text/css"/>
    <path id="path10" fill="#000" d="M-5.673 6.565c-.198 0-.432.059-.717.213-.945.513-.457 1.46-.457 1.46l17.773 36.79h.09l15.359 31.954h-.01l13.506 27.95s1.36 2.634 4.28 1.18c2.92-1.455 1.448-3.734 1.448-3.734L32.154 76.982h-.085L15.154 45.029h.085L-4.853 7.082s-.227-.52-.82-.519z"/>
    <path id="path14" fill="#000" d="M95.158 4.562C78.307-3.355 63.061.426 46.009 5.42c-17.166 5.026-32.436 7.746-49.589.895 1.869 3.269 2.804 4.903 4.674 8.169 1.716 3.004 3.435 6.008 5.152 9.01l4.674 8.168c13.657 3.779 24.968-1.121 37.104-7.06 14.574-7.128 27.738-13.54 44.389-9.825-14.072-6.897-26.828-5.187-41.542-1.28C65.276 6.32 78.839.737 95.158 4.563"/>
</svg>
