<svg xmlns="http://www.w3.org/2000/svg" viewBox="0 0 80 100">
    <path d="M6.406.188C3.006.188 0 3.013 0 6.313v.093c0 .2.313.488.313.688l6.78 61c.1.9.407 1.705.907 2.406.6 1.199 1.613 2.088 2.812 2.688l26.876 13.218c.9.398 1.818.594 2.718.594s1.788-.195 2.688-.594l26.812-13.218a6.177 6.177 0 0 0 3.406-5.782l6.594-60.5c0-.2.094-.519.094-.719v-.094c0-3.1-2.788-5.906-6.188-5.906H6.406zM63.25 20h4.188v4.719h-1.313c-1.81 0-3.01.292-3.563.906-.539.6-.812 1.895-.812 3.875v3.469c0 2.188-.266 3.79-.844 4.78s-1.587 1.651-3 2c1.426.377 2.435 1.072 3 2.062.578.991.844 2.575.844 4.75v3.47c0 1.994.273 3.275.812 3.874.553.614 1.752.938 3.563.938h1.313v4.687H63.25c-2.799 0-4.84-.616-6.125-1.843-1.284-1.227-1.906-3.183-1.906-5.875v-4c0-2.092-.338-3.566-1.03-4.374-.695-.824-1.959-1.22-3.783-1.22H49.22v-4.657h1.187c1.824.001 3.088-.409 3.782-1.218.693-.809 1.031-2.252 1.031-4.344v-4.312c0-2.692.622-4.63 1.906-5.844C58.41 20.615 60.451 20 63.25 20zm-35.844 2.438c2.877 0 5.463.58 7.813 1.78 2.35 1.185 4.327 2.911 5.906 5.156a15.618 15.618 0 0 1 2.187 4.47c.501 1.59.75 3.241.75 5 0 3.778-1.063 6.72-3.156 8.811s-5.03 3.125-8.844 3.125h-.75v-3.219c-.385.991-1.014 1.786-1.874 2.344-.848.544-1.858.813-3 .813-2.209 0-3.989-.865-5.376-2.594C19.688 46.381 19 44.102 19 41.311c0-2.789.676-5.037 2.062-6.78 1.387-1.744 3.18-2.626 5.376-2.626 1.142 0 2.152.286 3 .844a4.726 4.726 0 0 1 1.874 2.312v-2.75h4.032v14.5c1.592-.264 2.838-1.074 3.75-2.468.911-1.409 1.343-3.217 1.344-5.406 0-1.395-.159-2.693-.532-3.907a10.999 10.999 0 0 0-1.718-3.375c-1.22-1.7-2.727-3.017-4.563-3.937-1.823-.92-3.806-1.375-5.937-1.375-1.49 0-2.92.224-4.282.656a13.081 13.081 0 0 0-3.78 1.844c-1.9 1.367-3.373 3.137-4.438 5.312-1.053 2.162-1.594 4.507-1.594 7.032 0 2.078.35 4.047 1.031 5.874.693 1.814 1.672 3.418 2.97 4.813a13.143 13.143 0 0 0 4.436 3.094 13.147 13.147 0 0 0 5.313 1.093c1.618 0 3.257-.313 4.875-.968 1.618-.656 2.982-1.54 4.125-2.656l2.062 3.374a17.729 17.729 0 0 1-5.25 3.094C31.27 59.63 29.358 60 27.406 60c-2.375 0-4.644-.455-6.75-1.375-2.106-.907-3.98-2.225-5.625-3.969-1.643-1.743-2.889-3.775-3.75-6.062-.86-2.3-1.28-4.77-1.28-7.406 0-2.538.438-4.948 1.311-7.25.874-2.301 2.101-4.32 3.72-6.062a17.253 17.253 0 0 1 5.656-4.031 16.53 16.53 0 0 1 6.718-1.406zm-.28 13.343c-1.13 0-2.039.51-2.72 1.5-.668.977-1 2.313-1 4 0 1.716.332 3.073 1 4.063.681.99 1.595 1.469 2.75 1.468 1.143 0 2.07-.478 2.75-1.468.681-1.004 1-2.361 1-4.063 0-1.687-.338-3.023-1.03-4-.682-.99-1.595-1.5-2.75-1.5z"/>
</svg>
