<svg xmlns="http://www.w3.org/2000/svg" viewBox="0 0 143.4 131.75">
    <path d="M41.6 58.998l-23 8.4c.3 3.7.9 7.3 1.8 10.9l21.9-8c-.7-3.6-1-7.4-.7-11.3m101.8-25.4c-1.6-3.3-3.5-6.5-5.6-9.5l-23 8.4c2.7 2.7 4.9 5.8 6.8 9.1-.1-.1 21.8-8 21.8-8z"/>
    <path d="M92.7 27.098c4.8 2.2 8.9 5.3 12.4 8.9l23-8.4c-6.4-8.9-15.1-16.4-25.7-21.4-32.8-15.4-72.1-1.1-87.4 31.8-5 10.6-6.8 22-5.9 32.9l23-8.4c.4-5 1.6-10 3.8-14.8 9.9-21.3 35.4-30.6 56.8-20.6m-70.8 50.7l-21.9 8c2 8 5.5 15.6 10.3 22.3l23-8.4c-6-6-9.9-13.7-11.4-21.9m95.4-8.7c-.4 5-1.6 10-3.9 14.8-10 21.4-35.5 30.7-56.9 20.7-4.8-2.2-9-5.3-12.5-8.8l-23 8.4c6.4 8.9 15 16.4 25.7 21.4 32.9 15.3 72.2 1.1 87.5-31.9 5-10.6 6.8-22 5.9-32.9l-22.8 8.3z"/>
    <path d="M122.9 40.998l-21.9 8c4.1 7.3 6 15.7 5.4 24.1l23-8.4c-.7-8.2-2.9-16.3-6.5-23.7"/>
</svg>
