<svg xmlns="http://www.w3.org/2000/svg" viewBox="0 0 96.25 100">
    <path d="M48.123 0C39.1 0 16.421 2.014 6.15 9.278-4.12 16.544-.806 33.4 10.762 31.048c13.026-2.65 15.725-9.16 8.807-15.478 0 0 12.015-5.344 28.554-5.344"/>
    <path d="M48.123 0c9.024 0 31.703 2.014 41.974 9.278s6.955 24.122-4.612 21.77c-13.026-2.65-15.726-9.16-8.807-15.478 0 0-12.016-5.344-28.555-5.344"/>
    <path d="M88.138 59.2c-.958-8.623-5.323-10.382-12.281-19.934-6.257-8.592-7.844-14.92-8.457-23.863 0 0-2.366-1.124-5.633-1.124 0 0 .96 10.322-13.645 10.322-14.606 0-13.645-10.322-13.645-10.322-3.267 0-5.633 1.124-5.633 1.124-.612 8.942-2.2 15.271-8.458 23.863C13.43 48.818 9.064 50.577 8.106 59.2 5.997 78.201 32.3 80 48.124 80c15.823 0 42.127-1.799 40.015-20.8zm-40.015 3.937c-8.595 0-15.562-6.97-15.562-15.564S39.528 32.01 48.123 32.01s15.563 6.97 15.563 15.563-6.968 15.564-15.563 15.564z"/>
</svg>
