<svg baseProfile="basic" xmlns="http://www.w3.org/2000/svg" width="100" height="100" viewBox="0 0 100 100">
    <path fill="#020202" d="M97.171 71.134c-1.213-17.91-2.92-44.237-3.308-50.924-.383-6.625-.614-7.821-1.956-9.803-.956-1.41-3.026-2.945-4.541-3.401-.62-.185-4.47-.83-8.549-1.421-19.344-2.803-24.742-3.577-27.132-3.47-.798.035-1.266.186-1.792.373-3.311 1.172-4.753 3.723-4.752 8.406 0 1.325.385 14.576.862 29.432a39142.26 39142.26 0 0 1 1.21 38.233c.245 8.122.434 11.643.674 12.784.594 2.808 2.435 4.89 5.053 5.728.685.222 1.908.416 2.725.423 1.616.013 34.978-5.618 36.842-6.221 1.56-.501 3.396-2.321 4.239-4.165 1.312-2.859 1.317-2.801.425-15.974zm-5.031-.977c-.591 2.032-2.587 3.796-5.03 4.444-.478.128-6.61.815-13.626 1.542-7.014.722-13.259 1.306-13.855 1.301-1.962-.016-3.842-.956-4.866-2.445-1.198-1.737-1.373-2.641-1.583-8.544-.105-2.997-.491-13.686-.86-23.774-.623-16.897-.638-18.425-.328-19.49.444-1.507 1.464-2.736 2.84-3.376.581-.273 1.146-.425 2.402-.465 2.086-.068 6.095.202 15.392.909 11.296.858 12.659 1.001 13.485 1.422 1.382.703 2.549 1.9 3.188 3.213.565 1.151.594 1.384 1.094 10.037.284 4.883.878 14.558 1.304 21.492.715 11.653.747 12.683.443 13.734z"/>
    <path d="M41.298 71.81c-4.507.454-5.638.39-7.01-.323-1.248-.654-2.255-2.135-2.63-3.868-.114-.518-.396-9.488-.606-19.929-.43-21.414-.482-20.177 1.234-21.727 1.344-1.214 2.074-1.309 6.847-1.001 2.279.146 4.373.308 4.658.373l.537.139-.138-4.774c-.074-2.623-.19-5.555-.256-6.518l-.14-1.77-6.031-.606c-3.642-.373-5.092-.521-6.009-.491-.552.019-.915.103-1.421.234-1.841.475-2.767 1.068-3.539 2.282-1.322 2.08-1.256-1.021-.607 34.555.588 32.156.641 34.121 1.258 35.513.89 2 2.426 3.218 4.658 3.7.756.166 1.569.294 1.817.304.615.026 12.131-1.465 12.251-1.581.093-.096-.368-14.8-.466-14.905-.033-.03-2.015.154-4.407.393zm26.621-50.645l-5.217-.419c-2.313-.179-3.902-.272-5.029-.257-1.878.025-2.508.36-3.356 1.164-.9.859-1.321 1.965-1.329 3.471 0 1.057-.267.955 4.589 1.371 3.077.263 4.314.766 5.475 2.166 1.207 1.46 1.219 1.724 2.003 19.724.795 18.248.825 17.807-.373 19.373-.321.419-1.173 1.033-1.956 1.421-1.21.593-1.822.727-4.75 1.023-1.845.187-3.38.381-3.427.42-.043.039.039.577.187 1.211.555 2.401 1.921 3.903 3.939 4.309.526.105 1.302.165 1.72.116.42-.049 2.782-.313 5.243-.561 2.456-.248 4.533-.499 4.611-.58.076-.083-.419-12.261-1.095-27.058l-1.235-26.894z"/>
    <path d="M25.206 64.662c-.02-.029-1.441.053-3.143.184-3.814.295-4.802.169-5.844-.745-1.455-1.275-1.407-.829-1.749-15.974l-.324-13.76.465-.909c.35-.684.72-1.021 1.468-1.351.925-.41 1.261-.426 4.821-.279l3.82.163-.14-4.421c-.081-2.435-.257-4.493-.373-4.565-.312-.191-7.278-.766-9.061-.744-2.479.029-4.193 1.276-4.588 3.329-.084.434-.032 7.453.116 15.603.442 24.3.628 30.746.932 31.762.367 1.228 1.649 2.461 2.957 2.863 1.39.428 2.099.409 6.589-.093 2.099-.236 3.949-.439 4.099-.442.213-.003.225-1.141.116-5.283-.073-2.911-.14-5.309-.161-5.338zm14.38-3.121l-.435.699c-.989 1.055-2.192 1.54-4.455 1.7l-1.925.14-.043 1.19c-.157 2.613.729 4.466 2.482 5.261.484.219 1.33.377 1.869.373 1.472-.009 6.271-.514 6.431-.673.197-.197.157-4.909-.206-21.305-.476-21.242-.535-21.949-1.421-22.425-.5-.267-4.053-.43-6.194-.373-.713.02-1.281.065-1.513.14-1.664.55-2.464 2.319-2.212 4.821l.14 1.443 2.421.116c2.901.129 3.743.553 4.674 1.957l.387.906v26.031-.001z"/>
    <path d="M9.718 57.091l-2.025-.113c-3.204-.175-2.975.423-3.052-8.406-.071-8.247-.096-8.143 1.489-8.569.513-.137 1.131-.176 1.808-.092l.923.139v-4.818l-.713-.139A7.644 7.644 0 0 0 7.046 35a24.021 24.021 0 0 0-1.542.024c-1.81.076-2.156.11-2.768.791l-.856.696v9.199c0 5.06.322 10.618.403 12.339.131 2.855.317 3.172.784 3.727.28.335.944.714 1.392.84.45.126 1.195.336 1.617.283.42-.051 1.456.05 2.267.05h1.49l-.07-2.94-.045-2.918zm6.776.268h-.648v1.549c0 1.063.099 2.256.175 2.63.134.666.19.678 1.393.675 1.404 0 2.508-.476 3.152-1.351.422-.574.43-.762.169-11.757-.231-9.648-.312-11.275-.628-11.921-.582-1.191-1.182-1.626-2.92-1.723l-1.338-.093v3.837h.324c.882 0 2.099.98 2.42 1.564.376.675.521 14.033.165 14.897-.29.689-1.358 1.693-2.264 1.693z"/>
</svg>
