<svg xmlns="http://www.w3.org/2000/svg" viewBox="0 0 80 100" xmlns:xlink="http://www.w3.org/1999/xlink">
    <path d="M73.8.2H6.4C3 .2 0 3 0 6.3v.1c0 .2.3.5.3.7l6.8 61c.1.9.4 1.699.9 2.4.6 1.199 1.6 2.1 2.8 2.699L37.7 86.4c.9.398 1.8.6 2.7.6s1.8-.201 2.7-.6l26.8-13.2c2.199-1.1 3.5-3.4 3.399-5.799L79.9 6.9c0-.2.1-.5.1-.7v-.1C80 3 77.2.2 73.8.2z"/>
    <path id="a" fill-rule="evenodd" fill="#FFF" d="M11.567 50.923l4.43-22.43h10.247c4.43.277 6.646 2.492 6.646 6.37 0 6.645-5.262 10.522-9.97 10.245h-4.984l-1.108 5.815h-5.26zm7.477-9.969l1.384-8.307h3.6c1.939 0 3.323.83 3.323 2.492-.277 4.707-2.492 5.538-4.984 5.815h-3.323z"/>
    <path fill="#FFF" d="M31.228 45.108l4.43-22.43h5.262l-1.108 5.815h4.985c4.43.277 6.092 2.493 5.538 5.262l-1.938 11.354h-5.538l1.938-10.246c.277-1.385.277-2.216-1.662-2.216h-4.153l-2.493 12.461h-5.261z"/>
    <use xlink:href="#a" transform="translate(37.349 .004) scale(.99375)" height="160" width="300" fill="#fff"/>
</svg>
