<svg xmlns="http://www.w3.org/2000/svg" viewBox="0 0 76.02 100">
    <path d="M29.958 33.001c-.728 3.196-1.514 6.109-2.358 8.738a195.36 195.36 0 0 1-2.69 7.776l-3.564.054c.221-2.582.504-5.165.847-7.748.353-2.622.893-5.53 1.622-8.727l2.445-10.73 6.143-.093L29.958 33m-4.82 25.724c-.235 1.028-.807 1.927-1.718 2.7-.91.772-2 1.167-3.27 1.186-1.27.02-2.187-.346-2.75-1.095-.564-.75-.73-1.639-.495-2.666.234-1.027.806-1.927 1.717-2.7s2-1.167 3.27-1.186c1.27-.02 2.187.346 2.751 1.096.564.75.729 1.638.495 2.665M20.924-.032c.18-.008-.73.103-.807.1a.909.909 0 0 0-.092.024c-.104.04-.645.22-.53.174.133-.054-.725.37-.6.297.125-.073-.668.464-.554.372.114-.091-.608.58-.507.472.1-.109-.524.668-.439.546.086-.123-.414.73-.345.595.068-.135-.327.789-.277.645.045-.133-.15.609-.162.62 0 0-.025.061-.023.05l-8.58 40.211L.122 80.912c.032-.149-.128.848-.115.695s.008.848 0 .695c-.009-.154.12.87.092.719s.21.814.161.67c-.048-.145.344.805.277.67s.43.719.346.595c-.084-.124.538.655.438.546-.1-.11.598.564.485.47-.114-.092.678.448.553.373-.124-.075.733.353.6.298-.133-.055.762.257.622.223-.139-.034.811.111.67.1-.143-.013.788-.013.645 0-.142.01.808-.131.669-.1-.14.032.756-.251.623-.198-.134.053.725-.346.6-.273L73.6 47.374a3.794 4.08 0 0 0 .024-.025c-.112.065.587-.402.484-.322-.103.08.554-.49.461-.397-.092.093.473-.577.392-.472-.08.106.414-.636.346-.52-.067.115.33-.67.277-.546-.053.124.269-.726.23-.596-.038.13.161-.754.139-.62-.022.135.076-.756.07-.62-.007.136-.034-.756-.024-.62.01.136-.095-.779-.069-.645.026.134-.203-.725-.161-.595.041.129-.288-.718-.231-.596.056.122-.37-.66-.3-.546.07.114-.43-.599-.346-.496s-.51-.537-.415-.446c.087.083-.401-.352-.415-.372-.014-.01-.032-.015-.046-.025C57.287 26.257 40.56 13.595 23.83.935c.02.016-.07-.06-.093-.074-.12-.073-.62-.387-.507-.322.134.076-.79-.352-.646-.298.144.054-.841-.228-.692-.199.15.03-.843-.079-.692-.074a3.794 4.08 0 0 0-.276 0z" font-size="84.907" font-family="Ubuntu" letter-spacing="0" word-spacing="0"/>
</svg>
