<svg xmlns="http://www.w3.org/2000/svg" viewBox="0 0 76.02 100">
    <path d="M20.922 0c.179-.009-.73.102-.807.099.02-.005-.075.018-.093.025-.104.04-.644.219-.53.173.133-.053-.725.371-.6.298.125-.073-.667.464-.553.372.114-.092-.608.58-.508.471.101-.108-.523.669-.438.546.085-.123-.414.73-.346.595.068-.134-.326.789-.277.645.046-.132-.15.61-.161.62-.001.001-.026.062-.023.05l-8.58 40.212L.118 80.944c.033-.15-.127.847-.115.694s.008.848 0 .695c-.008-.153.12.87.092.72s.21.814.162.67c-.048-.145.343.804.277.669s.43.72.346.595c-.085-.123.538.656.438.546-.1-.11.597.565.484.471-.113-.093.678.447.554.373-.125-.075.733.352.6.297-.134-.055.761.257.622.223-.14-.034.811.112.669.1-.142-.012.789-.012.646 0-.143.01.808-.131.668-.1-.139.032.757-.25.623-.198-.134.053.725-.345.6-.273l66.815-39.02.023-.025c-.111.065.587-.403.484-.323-.102.08.554-.49.462-.397-.093.094.473-.577.392-.471-.08.105.413-.637.346-.521-.068.116.33-.67.277-.546-.054.124.268-.725.23-.595-.038.13.161-.755.139-.62-.023.134.075-.757.069-.62-.007.136-.033-.757-.023-.62.01.136-.095-.78-.07-.646.026.134-.202-.724-.16-.595.04.13-.288-.718-.232-.595.057.122-.37-.66-.3-.546.071.113-.429-.6-.345-.496s-.51-.537-.415-.447a9.88 9.88 0 0 1-.416-.372c-.014-.01-.032-.014-.046-.025C57.284 26.288 40.558 13.626 23.828.967c.02.016-.069-.06-.092-.074a13.35 13.35 0 0 1-.508-.323c.135.077-.789-.352-.645-.298.143.054-.842-.228-.692-.198.15.03-.844-.08-.692-.074a3.815 3.815 0 0 0-.277 0z" font-size="84.907" font-family="Ubuntu" letter-spacing="0" word-spacing="0"/>
</svg>
