<svg xmlns="http://www.w3.org/2000/svg" width="40.686" height="40.686" viewBox="0 0 40.686 40.686">
    <circle fill="#0095D3" cx="17.717" cy="11.561" r="4.402"/>
    <path fill="#0095D3" d="M31.069 20.355a4.4 4.4 0 1 1-8.8.001 4.4 4.4 0 0 1 8.8-.001z"/>
    <circle fill="#0095D3" cx="17.702" cy="29.176" r="4.402"/>
    <path fill="#0095D3" d="M20.343 0C9.108.001.001 9.107 0 20.343c.001 11.234 9.105 20.341 20.343 20.343 11.235-.002 20.341-9.104 20.343-20.343C40.684 9.107 31.578.001 20.343 0zm11.449 31.792a16.14 16.14 0 0 1-11.451 4.743 16.142 16.142 0 0 1-11.45-4.743 16.143 16.143 0 0 1-4.742-11.449 16.14 16.14 0 0 1 4.743-11.45 16.133 16.133 0 0 1 11.45-4.743 16.144 16.144 0 0 1 11.45 4.743 16.141 16.141 0 0 1 4.744 11.45 16.135 16.135 0 0 1-4.744 11.449z"/>
</svg>
