<svg xmlns="http://www.w3.org/2000/svg" viewBox="0 0 68.12 100">
    <path d="M18.438 0c-.44.014-.901.17-1.438.594-1.316-.508-2.609-.69-3.75.344-1.763-.23-2.316.261-2.75.812-.387-.008-2.912-.403-4.063 1.313-2.89-.343-3.785 1.689-2.75 3.593-.59.914-1.224 1.82.157 3.563-.489.97-.182 2.038.969 3.312-.304 1.364.304 2.313 1.375 3.063-.2 1.866 1.71 2.957 2.28 3.343.22 1.088.66 2.12 2.845 2.688.36 1.621 1.697 1.91 2.968 2.25-4.202 2.441-7.806 5.647-7.782 13.53l-.625 1.094c-4.817 2.93-9.152 12.347-2.375 20 .443 2.396 1.183 4.127 1.844 6.031.989 7.674 7.454 11.263 9.156 11.688 2.494 1.9 5.125 3.706 8.72 4.969 3.387 3.495 7.058 4.815 10.75 4.813h.187c3.69.002 7.361-1.318 10.75-4.813 3.594-1.263 6.224-3.07 8.718-4.969 1.702-.425 8.168-4.013 9.157-11.688.66-1.904 1.4-3.635 1.844-6.03 6.777-7.655 2.442-17.072-2.375-20l-.625-1.095c.024-7.883-3.58-11.088-7.781-13.53 1.27-.341 2.608-.63 2.968-2.25 2.185-.568 2.625-1.6 2.844-2.688.571-.387 2.482-1.477 2.281-3.344 1.07-.75 1.679-1.698 1.375-3.063 1.15-1.274 1.458-2.342.97-3.312 1.38-1.742.776-2.649.187-3.563 1.033-1.905.109-3.937-2.782-3.595-1.15-1.715-3.675-1.32-4.063-1.312-.434-.55-.987-1.041-2.75-.813-1.141-1.033-2.434-.851-3.75-.343-1.564-1.234-2.6-.25-3.782.125-1.892-.619-2.32.248-3.25.593-2.064-.436-2.698.498-3.687 1.5l-1.125-.03c-3.113 1.834-4.67 5.579-5.219 7.5-.548-1.922-2.106-5.667-5.219-7.5l-1.125.03c-.99-1.001-1.623-1.935-3.687-1.5C23.1.967 22.674.1 20.78.718c-.775-.245-1.504-.745-2.343-.719zm.125 2.219c1.58.585 2.393 1.316 3.25 2.062.29-.392.728-.678.187-1.625 1.122.647 1.968 1.427 2.594 2.281.694-.442.402-1.067.406-1.625 1.167.95 1.906 1.983 2.813 2.97.182-.134.358-.6.5-1.313 2.783 2.7 6.704 9.491 1 12.188-4.854-4.005-10.637-6.911-17.063-9.095 8.26 4.259 13.057 7.723 15.688 10.656-1.347 5.4-8.367 5.652-10.938 5.5.527-.245.97-.549 1.125-1-.644-.458-2.935-.04-4.53-.937.612-.127.9-.266 1.187-.719-1.508-.48-3.139-.89-4.094-1.687.516.006.983.123 1.656-.344-1.35-.728-2.786-1.325-3.906-2.438.698-.017 1.469.007 1.687-.25-1.236-.766-2.292-1.63-3.156-2.562.978.118 1.389.014 1.625-.156-.934-.958-2.123-1.759-2.687-2.938.725.25 1.396.337 1.875-.031-.318-.717-1.686-1.139-2.469-2.813.764.074 1.588.167 1.75 0C6.708 6.9 6.097 6.093 5.5 5.251c1.635-.025 4.113.013 4-.125l-1-1.031c1.597-.43 3.22.067 4.407.437.532-.42-.007-.957-.657-1.5a15.97 15.97 0 0 1 3.688.938c.592-.535-.371-1.09-.844-1.625 2.097.397 2.961.971 3.844 1.53.64-.613.057-1.121-.375-1.655zm31.188 0c-.432.534-1.016 1.042-.375 1.656.883-.56 1.747-1.133 3.844-1.531-.473.535-1.436 1.09-.844 1.625 1.109-.43 2.33-.757 3.688-.938-.65.543-1.19 1.08-.657 1.5 1.187-.37 2.81-.867 4.407-.437l-1 1.031c-.113.138 2.365.1 4 .125-.597.841-1.208 1.649-1.563 3.094.162.166.986.074 1.75 0-.783 1.674-2.151 2.096-2.469 2.812.479.368 1.15.282 1.875.032-.564 1.179-1.753 1.98-2.687 2.937.236.17.647.274 1.625.156-.864.932-1.92 1.797-3.157 2.563.22.257.99.233 1.688.25-1.12 1.112-2.555 1.71-3.906 2.437.673.467 1.14.35 1.656.344-.955.797-2.586 1.207-4.094 1.688.287.452.575.591 1.188.718-1.596.897-3.887.48-4.532.938.156.45.6.755 1.125 1-2.57.151-9.59-.101-10.938-5.5 2.63-2.934 7.428-6.397 15.686-10.656-6.425 2.183-12.21 5.088-17.062 9.093-5.705-2.696-1.783-9.487 1-12.187.142.713.318 1.18.5 1.313.907-.986 1.646-2.02 2.813-2.969.004.557-.288 1.183.406 1.625.626-.854 1.472-1.634 2.594-2.281-.54.946-.103 1.233.188 1.625.857-.746 1.669-1.477 3.25-2.063zm-15.72 22.219c4.045-.045 9.051 3.02 9.031 5.906-.017 2.547-3.515 4.602-9 4.563-5.37-.065-8.981-2.564-8.969-5.032.011-2.03 4.38-5.556 8.938-5.437zM20.25 26.156c.904-.017 1.858.057 2.813.219 2.814.472-13.5 14.706-13.75 11.53-.225-7.246 4.607-11.631 10.938-11.75zm26.719.25c6.33.118 11.162 4.503 10.938 11.75-.251 3.175-16.564-11.06-13.75-11.531a15.31 15.31 0 0 1 2.813-.219zm-3.25 8.687a9.14 9.14 0 0 1 4.875 1.281c.404.247.797.515 1.188.782 5.042 3.61 6.714 12.153 1.625 16.438-2.655 2.228-6.643 2.173-9.532.437-.41-.236-.8-.51-1.187-.781-5.042-3.61-6.715-12.153-1.625-16.438 1.327-1.114 2.964-1.675 4.656-1.719zm-19.438.188c.78.033 1.557.2 2.344.469 3.279 1.123 5.277 4.567 5.281 7.937-.003.473-.036.966-.063 1.438-.49 6.18-6.922 12.022-13.219 9.874-3.279-1.124-5.277-4.568-5.28-7.938-.01-.474.029-.934.062-1.406.428-5.41 5.416-10.606 10.875-10.375zm34.531 5.812c.124-.002.237-.006.375.032 7.344 4.193 6.086 13.532 2.125 16.719-3.489 1.55-6.349-16.686-2.5-16.75zm-50.375.25c3.848.064.989 18.3-2.5 16.75-3.96-3.186-5.218-12.525 2.125-16.719.139-.037.251-.033.375-.03zm26.032 12.531a9.893 9.123 0 0 1 .031 0 9.893 9.123 0 0 1 9.656 9.188 9.893 9.123 0 1 1-19.78 0 9.893 9.123 0 0 1 10.093-9.188zm21.656 3.437a3.313 3.313 0 0 1 2.156.719c1.757 1.75 2.794 8.335-.281 12.281-4.235 5.876-9.99 6.105-12.125 4.469-2.233-2.107-.5-8.633 2.562-12.22h-.03c2.627-2.966 5.4-5.189 7.718-5.25zm-45.031 1.406c.2-.018.417-.008.625 0 2.49.107 5.47 2.08 7.906 4.907 2.83 3.409 4.112 9.39 1.75 11.156-2.234 1.347-7.644.79-11.5-4.75-2.6-4.649-2.263-9.36-.437-10.75a3.824 3.824 0 0 1 1.656-.563zm23.218 16.344c3.974-.173 9.302 1.29 9.313 3.22.065 1.872-4.85 6.081-9.594 6-4.914.211-9.72-4.032-9.657-5.5-.073-2.154 5.988-3.818 9.938-3.72z"/>
</svg>
