<svg xmlns="http://www.w3.org/2000/svg" height="100" viewBox="0 0 98.35 100" width="98.35">
    <path fill="#020001" d="M49.199 0C22.039 0 0 21.992 0 49.148c0 5.5.912 10.808 2.574 15.744h3.43c3.033 0 5.807-.74 8.175-1.968a4.42 4.42 0 0 1 2.019-.505c1.506 0 2.811.615 3.633 1.968.712 1.223 1.356 1.956 2.17 2.473.7.452 1.656.823 3.027.757.648-.034 1.619-.186 1.867-.858.281-.775-.066-1.375-1.009-1.766-1.327-.559-1.664-1.37-2.372-2.624-.705-1.258-2.23-1.93-2.472-4.289-.233-2.328 1.55-5.222 5.147-4.29 2.598.67 4.317 3.845 4.945 4.946.33.576 1.479 1.268 2.422.404.94-.863 1.816-.85 2.523.252.606.94 5 6.805 9.79 6.963 4.868.157 7.467-1.091 9.587-1.009 1.489.057 2.228.82 3.078.959 1.495.236 2.54-1.139 4.188-1.06 1.332.067 2.797.959 4.29.959s4.636-1.798 4.591-1.06c-.073 1.315-1.12 3.675-1.362 4.744-.173.744-.004 2.544-.455 3.986-.398 1.471-1.767 3.305-2.119 3.835-1.206 1.81-2.096 2.343-3.078 4.239-1.098 2.118-2.91 4.115-3.38 4.743-.603.804 3.422-.063 4.843-1.413 1.208-1.148 3.312-4.563 6.661-5.298 2.26-.496 2.749-1.37 2.473-2.17-.042-.094-.101-.243-.101-.353 0-.307.2-.577.454-.707 2.335-.968 5.504-1.564 8.982-1.564 2.035 0 4.059.269 5.954.707 4.991-7.7 7.87-16.888 7.872-26.744C98.348 21.992 76.358-.001 49.2-.001zm7.367 10.143c3.376-.128 6.648.839 8.68 2.927 2.802 2.888 6.63 11.764 8.477 18.418.94 3.384.723 5.017.252 6.156-.34.78-.55 1.254-1.716 3.23-.203.355-.045.732.404.504 3.073-1.58 3.752-3.661 4.239-5.298 8.351 1.886 13.332 6.234 12.262 12.11-2.352 12.949-23.561 17.287-44.152 11.049C25.386 53.299 8.2 41.493 10.194 34.564c1.16-4.04 7.563-5.765 16.097-4.845-1.297 2.637-1.21 5.732 4.44 9.184 6.903 3.922 18.541 7.291 21.698 6.964 1.177-.121 2.27-.706 1.211-1.413-1.06-.707-2.038-2.12-2.624-4.591-.327-1.375-.709-3.332-8.124-4.744-15.915-3.034-15.255-7.507-14.785-10.092 0 0 1.38-6.342 1.968-8.578.59-2.235 2.11-7.404 12.363-5.097 5.923 1.334 9.114-.288 10.748-.706a16.211 16.211 0 0 1 3.38-.505z"/>
    <path d="M60.002 71.394c.255.245.691 1.072.158 2.128-.297.556-.62.95-1.198 1.41-.69.555-2.04 1.192-3.898.02-.995-.635-1.054-.845-2.43-.67-.985.13-1.374-.86-1.022-1.69.355-.82 1.805-1.485 3.614-.433.812.48 2.078 1.49 3.186.593.463-.37.736-.612 1.374-1.35a.16.16 0 0 1 .116-.05c.039 0 .076.016.1.042zm-14.656-47.98c-5.679.412-6.27 1.025-7.334 2.159-1.5 1.599-3.475-2.073-3.475-2.073-1.188-.25-2.624-2.162-1.85-3.947.765-1.765 2.176-1.237 2.619-.69.537.67 1.684 1.764 3.176 1.725 1.489-.035 3.212-.35 5.611-.35 2.429 0 4.066.909 4.158 1.684.079.667-.197 1.295-2.905 1.492zm5.968-9.385h-.024c-.089 0-.16-.066-.16-.149 0-.06.037-.11.09-.134 1.1-.58 2.744-1.046 4.622-1.238a18.883 18.883 0 0 1 1.648-.094c.094 0 .186 0 .281.004 3.15.07 5.676 1.325 5.639 2.798-.039 1.472-2.62 2.61-5.776 2.541a11.096 11.096 0 0 1-2.8-.411c-.1-.025-.171-.105-.171-.202 0-.1.071-.184.171-.208 1.969-.454 3.294-1.199 3.199-1.904-.123-.932-2.695-1.436-5.744-1.13-.336.035-.66.08-.975.127z" clip-rule="evenodd" fill="#020001"/>
</svg>
