<svg xmlns="http://www.w3.org/2000/svg" viewBox="0 0 100 100">
    <path d="M100 54.007c-.124.93-1.411 1.966-3.913 3.27-5.336 2.78-32.983 14.143-38.868 17.21-5.885 3.07-9.146 3.032-13.795.809-4.65-2.221-34.084-14.092-39.383-16.624-2.65-1.266-4.001-2.336-4.04-3.343v10.103c0 1.009 1.392 2.077 4.04 3.343 5.3 2.533 34.734 14.42 39.383 16.642 4.65 2.222 7.91 2.242 13.795-.827 5.885-3.068 33.532-14.43 38.868-17.212 2.717-1.415 3.914-2.509 3.913-3.508v-9.864z"/>
    <path d="M100 37.511c-.124.93-1.411 1.984-3.913 3.288-5.336 2.782-32.983 14.143-38.868 17.212-5.885 3.068-9.146 3.031-13.795.808-4.65-2.221-34.084-14.11-39.383-16.642-2.65-1.266-4.001-2.336-4.04-3.343v10.121c0 1.01 1.392 2.077 4.04 3.343 5.3 2.533 34.733 14.421 39.383 16.642 4.65 2.223 7.91 2.241 13.795-.827s33.532-14.43 38.868-17.212c2.717-1.415 3.914-2.51 3.913-3.508v-9.882z"/>
    <path d="M100 20.428c-.124.93-1.411 1.966-3.913 3.27C90.751 26.479 63.104 37.84 57.22 40.91c-5.885 3.067-9.146 3.048-13.795.826-4.649-2.223-34.084-14.11-39.383-16.643C1.391 23.827.04 22.757.001 21.75v10.103c0 1.009 1.392 2.077 4.04 3.343 5.3 2.533 34.733 14.421 39.383 16.642 4.65 2.223 7.91 2.26 13.795-.808 5.885-3.069 33.532-14.448 38.868-17.23 2.717-1.415 3.914-2.51 3.913-3.508v-9.864zm-45.557-5.566l-1.94 4.67-3.137-5.209-10.004-.899 7.466-2.694-2.24-4.131 6.988 2.734 6.593-2.156-1.785 4.272 6.72 2.514z"/>
    <path d="M35.811 29.901l23.171-3.557-6.997 10.264zm6.14-8.541c0 2.651-5.545 4.8-12.384 4.8-6.84 0-12.384-2.149-12.384-4.8s5.545-4.8 12.384-4.8c6.84 0 12.384 2.149 12.384 4.8zm31.396-6.13l-15.173 6.007 13.703 5.418 1.47-.587 13.702-5.4-13.703-5.438z"/>
</svg>
