<svg xmlns="http://www.w3.org/2000/svg" viewBox="0 0 79 100">
    <path d="M12.787 80.942H46.04s-7.376-16.752-5.5-32.128c1.874-15.377 14-22.377 20.876-23.127 6.876-.75 10.626 3.5 10.626 3.5l1.5-2.25s-9.876-10.001-22.377-8.876-21.127 9.376-26.503 19.377c-5.375 10-8.5 17.002-10.626 27.503-2.125 10.5-1.25 16.002-1.25 16.002zm-6.63-16.75l6.5.5-1.125 6.5-6.125-.75zm10.25-13.75l1.75-4.876-5.75-2.25-1.876 5.25zm8.13-16.76l3.375-4-4.375-2.876-3.5 3.875zm8.87-15.5l3 3.625 4.126-2.375-3-3.376zm14.63-4.12l.75 3.625 5.125-.125-.5-3.25z"/>
    <path d="M65.417 17.932l-.125 2.25 3.5 1.875.75-1.125zm-.75 9.63v1.875l3.375.375v-1.5zm-10.75 1.62l1.625 3 2.375-1.875-.5-2zm-5.13 3.88l2.5 3.75-1.5 2.625-3.625-4zm-5 10.38l-1.625 3.25 4.25 3.625 1-4.125zm-1.75 11.37l-.25 4.375 5.25 2.25-.25-4.125zm1.5 15.5l1.25 4.5 6.626.375-2.376-4.875z"/>
    <path d="M18.538.018c-5.351 0-9.172.158-12.031 1.25S1.855 4.53.976 7.892C-.783 14.617.289 26.405.289 48.515c0 22.855-.157 45.341-.157 45.341v.938h.938s34.619.219 57.309.219c5.727 0 9.865-.518 12.937-1.688 3.07-1.17 5.05-3.077 6.156-5.624 2.212-5.096 1.312-12.441 1.312-22.905V.018H18.537zm0 1.844H76.91v62.934c0 10.559.702 17.877-1.156 22.155-.93 2.139-2.385 3.593-5.094 4.624-2.708 1.032-6.666 1.563-12.28 1.563-22.32 0-55.307-.213-56.373-.219.007-.9.157-22.013.157-44.404 0-22.166-.942-34.16.625-40.154.784-2.997 2.023-4.433 4.406-5.343 2.384-.91 6.04-1.157 11.343-1.157z"/>
</svg>
