<svg xmlns="http://www.w3.org/2000/svg" viewBox="0 0 77.6 100">
    <path d="M8.304 75.871v14.696h3.749v-3.828l3.41 3.411h5.753l-4.562-4.561s3.282-.053 3.53-4.8c0-4.354-3.286-4.918-7.08-4.918h-4.8zm3.927 3.986h3.233v2.619H12.23v-2.619zm16.224-3.926c-2.052-.012-4.899.179-4.899 4.046v10.214h3.848v-2.499h3.728v2.44H35v-10.71c0-3.36-3.732-3.491-5.732-3.491-.25 0-.52.002-.813 0zm-.992 3.689h3.61v4.026h-3.61V79.62zm11.391-3.68h3.981v14.059h-3.981zm8.15.187v14.059h9.58v-3.733h-5.66V76.064zm22.27-.125v3.795h-6.407v1.368h2.737c1.43 0 4.417-.062 4.417 4.417S67.968 90.31 63.8 90.31h-5.04v-3.422h5.786c1.742 0 1.838-.567 1.838-1.06 0-.495-.89-.725-2.702-.725-1.81 0-5.17-.89-5.17-4.373s1.742-4.79 5.226-4.79 5.536.062 5.536.062zm-57.48-4.292h33.095s-7.34-16.672-5.474-31.975c1.866-15.303 13.934-22.27 20.777-23.017 6.843-.747 10.575 3.484 10.575 3.484l1.493-2.24S62.43 8.01 49.989 9.13c-12.442 1.12-21.026 9.33-26.376 19.285-5.35 9.953-8.46 16.92-10.575 27.372-2.115 10.45-1.245 15.925-1.245 15.925zM5.2 55.038l6.47.498-1.12 6.47-6.097-.747zm10.202-13.686l1.742-4.852-5.723-2.24-1.867 5.226zm8.087-16.671l3.36-3.981-4.355-2.862-3.484 3.857zm8.834-15.428l2.986 3.608 4.106-2.364-2.986-3.359zm14.556-4.106l.747 3.608 5.1-.124-.497-3.235z"/>
    <path d="M64.173 9.004l-.124 2.24 3.483 1.866.747-1.12zm-.746 9.58v1.866l3.36.373V19.33zm-10.7 1.618l1.617 2.986 2.364-1.866-.497-1.99zm-5.101 3.857l2.488 3.732-1.493 2.613-3.608-3.981zm-4.977 10.326l-1.617 3.235 4.23 3.608.995-4.106zm-1.742 11.322l-.249 4.355 5.226 2.24-.25-4.107zM42.4 61.135l1.244 4.479 6.594.373-2.364-4.852z"/>
    <path d="M18.25 0C12.992 0 9.232.186 6.406 1.344 3.58 2.5 1.828 4.757.969 8.28-.751 15.331.28 27.77.28 51.062c0 24.076-.125 47.75-.125 47.75l-.031.969h.969s33.966.219 56.25.219c5.631 0 9.72-.544 12.75-1.782s4.982-3.237 6.062-5.906c2.16-5.337 1.281-13.066 1.281-24.094V.938l.001-.939H18.25zm0 1.906h57.281v66.312c0 11.118.712 18.838-1.125 23.375-.918 2.269-2.385 3.794-5.031 4.875s-6.524 1.625-12.031 1.625c-21.901 0-54.211-.212-55.312-.219.005-.93.155-23.216.155-46.812 0-23.346-.922-35.964.625-42.312.774-3.173 1.99-4.705 4.313-5.656 2.322-.951 5.92-1.187 11.125-1.187z"/>
</svg>
