<svg xmlns="http://www.w3.org/2000/svg" height="100" viewBox="0 0 93.21 100" width="93.21">
    <path d="M61.206 89.98c-24.438.734-50.784-18.481-58.846-42.92C-5.704 22.626 7.566 2.221 32.003 1.487c10.938-.327 22.225 3.402 32.116 9.748L41.92 42.068c-1.53 2.125-1.047 5.095 1.065 6.614a4.698 4.698 0 0 0 2.78.905 4.76 4.76 0 0 0 3.856-1.974L71.753 16.88c8.683 7.419 15.613 16.968 19.098 27.53 8.065 24.438-5.206 44.84-29.643 45.57zm11.54-79.47l-25.49 35.401a1.829 1.829 0 0 1-2.558.416 1.83 1.83 0 0 1-.415-2.558l25.53-35.456c.677 1.092 1.719 1.89 2.933 2.199zM73.87 0c-2.702 0-4.89 2.389-4.89 5.333 0 1.104.307 2.128.833 2.978.678 1.093 1.72 1.889 2.933 2.2a4.52 4.52 0 0 0 1.124.153c2.7 0 4.887-2.383 4.887-5.33C78.757 2.388 76.568 0 73.87 0z"/>
</svg>
