<svg xmlns="http://www.w3.org/2000/svg" height="100" width="63.8" viewBox="0 0 159.5 250">
    <path d="M159.42 0C147.69 13.625 45.52 24.086.4 29.009V80.17c43.396-3.868 147.49-11.428 158.42-29.009zm-.07 68.962C147.61 82.587 45.45 93.048.33 97.971v51.161c43.397-3.87 147.49-11.43 158.41-29.01zm.15 68.368C147.77 150.96 45.6 161.42.48 166.34v51.161c43.396-3.87 147.49-11.43 158.41-29.01z"/>
    <path d="M135.75 57.16c-2.381.031-4.28.42-5.6.83-.808.252-.984.39-1.377.583L.003 75.662l.282 5.208c56.586 2.708 102.27 24.06 154.15 36.56l3.691.886.063-3.38.782-46.476.031-.388-.125-.36s-.275-.768-.813-1.523c-.538-.755-1.432-1.71-2.753-2.549-8.122-5.153-14.791-6.544-19.554-6.48zm.094 5.235c3.4-.045 8.717.879 16.019 5.512.647.41 1.005.794 1.189 1.052l-.72 42.43c-42.69-10.7-82.327-27.36-128.65-33.567l106.31-14.126.657-.083.532-.332s.16-.119.938-.36c.778-.242 2.023-.504 3.723-.527zm-.404 63.375c-2.383.032-4.248.414-5.569.83-.767.243-.915.36-1.314.555L.087 144.525l.282 5.21c56.406 2.74 101.97 24.36 153.71 37.03l3.691.914.063-3.407.813-47.058v-.388l-.125-.387s-.896-2.37-3.535-4.072c-8.102-5.222-14.79-6.656-19.554-6.592zm.094 5.263c3.375-.046 8.678.876 15.956 5.567 1.182.762 1.209 1.097 1.22 1.163l-.75 42.932c-42.59-10.84-82.135-27.77-128.37-34.04l106.12-14.32.687-.083.564-.332s.136-.117.907-.36 1.973-.504 3.66-.527z"/>
</svg>
