<svg xmlns="http://www.w3.org/2000/svg" viewBox="0 0 80 100">
    <path d="M6.406.188C3.006.188 0 3.013 0 6.313v.093c0 .2.313.488.313.688l6.78 61c.1.9.407 1.705.907 2.406.6 1.199 1.613 2.088 2.812 2.688l26.876 13.218c.9.398 1.818.594 2.718.594s1.788-.195 2.688-.594l26.812-13.218a6.177 6.177 0 0 0 3.406-5.782l6.594-60.5c0-.2.094-.519.094-.719v-.094c0-3.1-2.788-5.906-6.188-5.906H6.406zM57.626 20H68v15.344L66.531 46.56h-7.437l-1.469-11.218V20zm-31.814.625h6.407l-2.75 10.313h7.593l2.782-10.313h6.375l-2.78 10.312h7.967v5.687h-9.5l-2 7.344h8.188v5.781h-9.688L35.656 60h-6.375l2.781-10.25h-7.624L21.688 60h-6.407l2.75-10.25h-8.03v-5.78h9.437l2.031-7.345h-8.157v-5.687h9.72l2.78-10.313zm2.063 16l-2 7.343h7.594l2-7.344h-7.594zm29.75 13.843H68V60H57.625v-9.53z"/>
</svg>
