<svg xmlns="http://www.w3.org/2000/svg" viewBox="0 0 100 100">
    <path d="M69.451 41.759c.095-.52 1.353-3.644 1.353-3.644 1.559-3.511.568-6.027.568-6.027-.919-3.41-3.557-6.076-3.557-6.076.128.095.93 2.23.93 2.23 1.85 5.108-3.109 8.039-3.109 8.039-1.278.843-3.363 2.853-3.363 2.853-2.926 2.86-2.042 6.364-2.042 6.364l.117.053a34.209 34.209 0 0 1 9.717 4.061c-1.967-3.829-.614-7.853-.614-7.853m10.171 16.557c-.326-4.21 2.369-7.368 2.369-7.368.277-.45 2.605-2.875 2.605-2.875 2.759-2.68 2.784-5.384 2.784-5.384.423-3.506-1.033-6.963-1.033-6.963.08.134.029 2.416.029 2.418-.188 5.426-5.882 6.298-5.882 6.298-1.504.308-4.19 1.396-4.19 1.396-3.504 1.45-4.176 4.63-4.252 5.086a34.787 34.787 0 0 1 7.57 7.392m20.377-6.976c.027.159-.876 2.26-.876 2.26-2.189 4.967-7.795 3.656-7.795 3.656-1.51-.267-4.408-.26-4.408-.257-4.09.046-5.872 3.188-5.872 3.188l.215.522A34.16 34.16 0 0 1 85.303 70c1.21-4.15 4.998-6.145 5.001-6.145.425-.304 3.486-1.704 3.486-1.704 3.555-1.46 4.58-3.956 4.58-3.956 1.691-3.104 1.63-6.855 1.63-6.855m-42.358-6.333c-3.102-2.828-3.329-6.944-3.329-6.944-.116-.516-.102-3.877-.098-3.877.145-3.838-1.708-5.812-1.708-5.812-2.11-2.832-5.554-4.33-5.554-4.33.157.042 1.696 1.733 1.696 1.733 3.604 4.051.087 8.615.087 8.615-.874 1.26-2.066 3.898-2.066 3.898-1.565 3.532.24 6.337.44 6.64a34.399 34.399 0 0 1 5.39-.365 33.67 33.67 0 0 1 5.142.442m-18.773-4.842c-.285-.438-1.537-3.56-1.537-3.56-1.29-3.618-3.74-4.76-3.74-4.76-3.022-1.838-6.77-1.952-6.77-1.952.162-.016 2.217.979 2.217.979 4.861 2.42 3.293 7.963 3.293 7.963-.341 1.493-.467 4.39-.467 4.39-.15 4.081 2.912 6.014 2.912 6.014l.145-.05a33.847 33.847 0 0 1 9.69-3.796c-3.979-1.454-5.743-5.228-5.743-5.228m-6.161 10.424c-4.216.109-7.237-2.73-7.237-2.73-.43-.3-2.74-2.74-2.74-2.74-2.538-2.885-5.246-3.036-5.246-3.036-3.482-.594-6.998.69-6.998.69.14-.072 2.413.087 2.417.087 5.408.454 6 6.18 6 6.18.232 1.516 1.192 4.253 1.192 4.253 1.374 3.848 4.928 4.51 4.928 4.51l.071-.06a34.724 34.724 0 0 1 7.613-7.154m-16.895 9.504c-.514-.118-3.567-1.527-3.567-1.527-3.424-1.751-5.992-.89-5.992-.89C2.799 58.411 0 60.909 0 60.909c.105-.122 2.282-.814 2.282-.814 5.195-1.58 7.86 3.526 7.86 3.526.774 1.32 2.68 3.51 2.68 3.507 2.696 3.069 6.25 2.373 6.25 2.373l.089-.177a34.152 34.152 0 0 1 4.32-9.344c-3.855 1.623-7.668.113-7.668.113"/>
</svg>
