<svg xmlns="http://www.w3.org/2000/svg" viewBox="0 0 1000 1000">
    <g style="line-height:1.25;-inkscape-font-specification:Arial">
        <path d="M0 348.974v-31.466h31.466v31.466zm55.43-53.414l32.25-3.136q2.911 16.237 11.757 23.852 8.959 7.615 24.076 7.615 16.013 0 24.076-6.72 8.174-6.83 8.174-15.9 0-5.823-3.471-9.854-3.36-4.144-11.87-7.167-5.823-2.016-26.54-7.167-26.65-6.607-37.4-16.237-15.117-13.55-15.117-33.034 0-12.541 7.054-23.403 7.167-10.974 20.492-16.685 13.438-5.711 32.362-5.711 30.907 0 46.472 13.55 15.677 13.549 16.46 36.169l-33.145 1.455q-2.128-12.653-9.182-18.14-6.943-5.6-20.94-5.6-14.446 0-22.62 5.936-5.263 3.807-5.263 10.19 0 5.823 4.927 9.966 6.27 5.263 30.458 10.974 24.188 5.71 35.721 11.87 11.646 6.047 18.141 16.685 6.607 10.526 6.607 26.09 0 14.11-7.839 26.428-7.838 12.318-22.172 18.364-14.333 5.935-35.72 5.935-31.131 0-47.816-14.333-16.685-14.445-19.932-41.992zm161.362-110.748h33.145v88.912q0 21.164 1.232 27.435 2.128 10.078 10.078 16.237 8.063 6.047 21.948 6.047 14.11 0 21.276-5.711 7.167-5.823 8.623-14.222 1.455-8.398 1.455-27.882v-90.816h33.146v86.224q0 29.563-2.687 41.769-2.688 12.205-9.966 20.604-7.167 8.398-19.26 13.437-12.095 4.927-31.579 4.927-23.516 0-35.721-5.375-12.094-5.487-19.149-14.109-7.054-8.734-9.294-18.253-3.247-14.109-3.247-41.656zm166.065 0h65.62q19.484 0 29.002 1.68 9.63 1.568 17.133 6.719 7.615 5.15 12.654 13.773 5.039 8.51 5.039 19.149 0 11.534-6.271 21.164-6.159 9.63-16.797 14.445 15.005 4.367 23.068 14.893 8.062 10.526 8.062 24.748 0 11.198-5.263 21.836-5.15 10.526-14.221 16.909-8.959 6.27-22.172 7.726-8.287.896-39.977 1.12h-55.877zm33.146 27.323v37.961h21.724q19.372 0 24.075-.56 8.51-1.007 13.326-5.823 4.927-4.927 4.927-12.877 0-7.615-4.256-12.318-4.143-4.815-12.43-5.823-4.926-.56-28.33-.56zm0 65.284v43.896h30.682q17.917 0 22.732-1.008 7.39-1.344 11.981-6.495 4.704-5.263 4.704-13.997 0-7.39-3.584-12.542-3.583-5.15-10.414-7.502-6.719-2.352-29.338-2.352zm237.507 11.198l32.138 10.19q-7.39 26.875-24.635 39.977-17.133 12.99-43.56 12.99-32.698 0-53.75-22.284-21.052-22.396-21.052-61.141 0-40.984 21.164-63.604 21.164-22.732 55.654-22.732 30.122 0 48.935 17.805 11.198 10.526 16.797 30.234l-32.81 7.839q-2.912-12.766-12.206-20.157-9.182-7.39-22.396-7.39-18.253 0-29.674 13.101-11.31 13.102-11.31 42.44 0 31.13 11.198 44.344 11.198 13.214 29.114 13.214 13.214 0 22.732-8.399 9.518-8.398 13.661-26.427zm61.141 60.357V184.812h33.146v72.899l66.963-72.899h44.568l-61.812 63.94 65.171 100.222H819.8l-45.127-77.042-26.875 27.435v49.607zm202.234 0v-136.39h-48.71v-27.772H998.63v27.771h-48.599v136.39z" style="-inkscape-font-specification:'Arial Bold'" aria-label=".SUBCKT" font-weight="700" font-size="229.333" font-family="Arial" letter-spacing="0" word-spacing="0"/>
    </g>
    <g style="line-height:1.25;-inkscape-font-specification:Arial">
        <path d="M0 748.703v-31.466h31.466v31.466zm100.781 0v-136.39h-48.71V584.54h130.455v27.771h-48.599v136.39zm103.357 0V584.54h69.763q26.315 0 38.185 4.48 11.982 4.367 19.148 15.676 7.167 11.31 7.167 25.868 0 18.476-10.862 30.57-10.862 11.982-32.474 15.117 10.75 6.271 17.693 13.774 7.054 7.502 18.924 26.65l20.045 32.027h-39.641l-23.964-35.722q-12.765-19.148-17.468-24.075-4.704-5.04-9.967-6.83-5.263-1.905-16.684-1.905h-6.72v68.532zm33.146-94.735h24.523q23.852 0 29.787-2.015 5.935-2.016 9.294-6.943 3.36-4.927 3.36-12.318 0-8.286-4.48-13.325-4.367-5.151-12.43-6.495-4.03-.56-24.187-.56h-25.867zm280.508 94.735h-36.058l-14.333-37.29h-65.62l-13.55 37.29h-35.16l63.94-164.162h35.049zm-61.029-64.948l-22.62-60.917-22.172 60.917zm79.057 64.948V584.54h32.25l67.188 109.628V584.54h30.794v164.162h-33.258l-66.18-107.052v107.052z" style="-inkscape-font-specification:'Arial Bold'" aria-label=".TRAN" font-weight="700" font-size="229.333" font-family="Arial" letter-spacing="0" word-spacing="0"/>
    </g>
</svg>
