<svg xmlns="http://www.w3.org/2000/svg" viewBox="0 0 100 100">
    <path d="M28.235 20.103c-.595.238-1.85.05-3.957-.856-3.599-1.49-5.895-3.36-8.416-5.035-2.486-1.668-5.365-3.379-6.728-5.193-1.14-1.647 1.988-2.441 6.006-1.381 5.24 1.377 8.272 4.817 10.576 6.754.873.705 4.34 5.047 2.52 5.711zm40.288 56.015c.144 0 3.878 4.943 4.668 6.282 1.025 1.698 4.85 5.88 2.622 7.667-1.472 1.162-2.71-.52-3.716-1.52-1.077-1.07-6.303-12.295-3.574-12.43zm-38.565.137c.114.035.211.098.3.156 2.585 1.4-2.932 10.618-3.524 12.686-.783 2.641-4.567 5.39-6.366 1.611-1.509-3.214 8.027-14.751 9.59-14.453z"/>
    <path d="M23.999 26.112c-3.483-.418-7.164-2.025-10.217-3.856-3.701-2.249-2.859-5.579-8.065-4.417-5.047 1.131-1.833 5.432.86 7.1 4.689 2.875 3.918 1.278 8.89 3.659 2.408 1.146 4.168 2.724 5.337 4.824.528.97-2.116 3.226-3.87 1.664-1.803-1.606-5.538.78-5.532 2.048.005 1.127-.106 3.625 4.583 4.154 3.48.393 4.566 4.495 2.949 5.179-4.705 1.994-11.583-.287-15.714 2.706-1.975 1.443-3.197 4.6-.212 5.806 3.894 1.592 9.839-3.012 14.117-2.238 10.59 1.935 1.3 8.833-.694 11.17-5.549 6.566 5.767 7.023 9.714 5.772 5.387-1.696 7.515-6.026 12.746-4.358 2.35.76 1.67 4.719 1.527 6.254-.165 1.905-.881 3.736-.845 5.658 0 .892-.021 1.696 1.076 2.04 1.205.387 2.461-.671 3.629-.136 1.187.536 1.272 2.16 1.47 3.112.486 2.546.471 5.315 0 7.86-.373 2.07-1.635 4.213-1.417 6.341.268 2.874 4.707 3.142 6.571.968 1.115-1.28 1.368-3.588 1.132-5.106-1.759-7.325-4.903-21.573 4.671-25.994 6.77-3.142 5.531 1.653 7.633 4.525 1.885 2.561 3.538 3.291 3.915.434.357-2.636-.97-6.014-1.096-8.724-.09-2.054 2.083-3.142 4.112-3.841 5.136-1.743 11.565-1.282 16.2 1.236 3.645 1.978 2.45 2.076 6.832 3.102 3.826.894 5.257-1.579 4.413-5.347-4.767-4.64-6.612-1.286-12.808-2.7-4.074-.924-2.472-3.898 1.247-3.284 1.584.262 2.276-1.902 1.755-3.31-1.247-3.368-.17-6.877 2.924-9.097 1.615-1.162 2.295-2.65 2.618-4.524.377-1.996-.212-4.423-2.797-3.991-3.018.52-4.383 4.153-7.096 5.136a4.172 4.172 0 0 1-5.675-3.721c-.088-2.786 2.318-5.271 2.73-7.996.79-5.3-7.758-2.932-11.636-4.51-6.252-2.56-1.692-3.862.32-7.212 1.095-1.787 3.124-5.076 1.401-7.025-1.492-1.713-3.845-1.088-5.298.326-2.426 2.339-1.904 5.867-2.39 8.74-.681 4.168-1.38 4.785-6.39 6.69-3.43 1.294-8.37.609-10.955-1.713-2.158-1.98-1.94-5.137-4.22-6.968-4.416-3.573-6.864 2.65-7.904 5.36-1.688 4.513-3.427 9.067-10.542 8.204z"/>
    <path d="M84.472 20.141c-.464-.094-.5-.805.247-2.441 1.198-2.751 3.217-5.192 4.92-7.59 1.7-2.378 3.367-4.965 5.528-6.94 1.985-1.747 3.802-.915 3.29 1.705-.66 3.414-4.656 7.363-6.765 9.857-.76.923-5.887 5.743-7.22 5.409zm3.994 52.331c-.397.172-1.232.036-2.637-.62-2.399-1.082-3.93-2.438-5.61-3.654-1.656-1.21-3.575-2.45-4.483-3.767-.76-1.194 1.325-1.77 4.003-1.001 3.492.999 5.512 3.494 7.048 4.899.582.511 2.892 3.661 1.679 4.143zM51.882 7.36c-.426-.056-.892-.336-1.307-.95-.743-1.036-.642-1.918-.767-2.795-.113-.869-.383-1.822.118-2.515.5-.61 2.454-.215 3.662.796 1.577 1.316.836 2.714.697 3.614-.035.334-1.14 2.031-2.403 1.85zm-1.683 38.704c-.426-.055-.892-.335-1.307-.95-.743-1.035-.642-1.917-.767-2.794-.113-.869-.383-1.822.118-2.515.5-.61 2.454-.215 3.661.795 1.578 1.317.836 2.715.697 3.615-.034.333-1.139 2.031-2.402 1.849z"/>
</svg>
