<svg xmlns="http://www.w3.org/2000/svg" width="505.671" height="505.346">
    <path d="M236.505 505.25c-1.847-.12-6.241-.514-9.766-.872-3.525-.36-8.332-.942-10.682-1.295-2.35-.353-7.156-1.17-10.681-1.816-3.525-.645-8.744-1.75-11.597-2.455-2.854-.704-8.347-2.193-12.208-3.309-3.86-1.115-10.727-3.391-15.26-5.058-4.531-1.667-10.574-4.035-13.427-5.262-2.854-1.227-9.171-4.233-14.039-6.68s-12.146-6.445-16.175-8.884c-4.028-2.44-10.483-6.649-14.344-9.355-3.86-2.706-8.224-5.897-9.696-7.091-2.596-2.106-2.633-2.184-1.22-2.58.8-.224 2.723-.435 4.273-.469 1.91-.04 4.197-.75 7.1-2.203 2.517-1.26 5.34-3.29 6.85-4.929 1.413-1.532 3.25-4.274 4.082-6.092.833-1.818 1.809-5.086 2.17-7.262.478-2.89.466-4.908-.045-7.483-.384-1.94-1.522-5.207-2.529-7.263-1.017-2.078-3.068-4.879-4.619-6.308-1.534-1.415-4.53-3.386-6.657-4.381a23.531 23.531 0 0 0-8.044-2.16c-2.862-.24-5.375-.042-7.979.625-2.09.536-4.975 1.702-6.409 2.59-1.434.89-3.398 2.338-4.365 3.221-.966.883-2.683 3.034-3.815 4.78-1.132 1.747-2.47 4.757-2.973 6.69-.503 1.933-.915 5.096-.915 7.03 0 2.584-.202 3.425-.763 3.178-.42-.186-3.845-3.816-7.61-8.069-3.767-4.252-8.71-10.074-10.987-12.937-2.277-2.863-6.327-8.336-9-12.162-2.673-3.826-7.017-10.547-9.653-14.936-2.637-4.39-6.808-12.101-9.27-17.137-2.462-5.035-5.574-11.765-6.915-14.954-1.342-3.19-3.548-8.957-4.902-12.818-1.354-3.86-3.414-10.315-4.578-14.343-1.165-4.029-2.824-10.484-3.689-14.344-.864-3.86-2.121-10.316-2.793-14.344-.672-4.029-1.492-9.797-1.823-12.818-.331-3.021-.884-10.437-1.23-16.48-.411-7.22-.43-15.173-.05-23.194.316-6.714.985-15.38 1.486-19.258.501-3.878 1.202-8.87 1.557-11.094.355-2.223 1.177-6.604 1.825-9.734.649-3.13 2.03-8.988 3.071-13.017 1.04-4.028 3.14-11.032 4.665-15.564 1.526-4.532 4.161-11.674 5.857-15.87 1.696-4.196 5.269-12.01 7.94-17.362 2.67-5.353 6.5-12.47 8.51-15.816 2.009-3.346 5.3-8.549 7.312-11.562 2.012-3.013 4.79-7.02 6.173-8.904 1.383-1.885 5.263-6.86 8.622-11.056 3.36-4.196 10.792-12.31 16.517-18.033 5.725-5.722 12.881-12.453 15.903-14.958 3.021-2.506 8.655-6.93 12.52-9.832 3.866-2.902 10.54-7.505 14.831-10.23 4.292-2.724 11.43-6.913 15.862-9.308 4.432-2.396 11.08-5.71 14.772-7.367 3.693-1.656 8.774-3.847 11.292-4.869 2.518-1.022 7.737-2.95 11.597-4.285 3.861-1.335 9.354-3.084 12.208-3.887 2.853-.803 7.935-2.12 11.292-2.927 3.357-.807 8.988-2.017 12.512-2.69 3.525-.672 8.607-1.515 11.292-1.872 2.686-.358 7.767-.985 11.292-1.394 3.574-.414 13.836-.738 23.194-.732 9.318.006 19.773.35 23.5.772 3.693.418 9.598 1.177 13.123 1.686 3.525.51 9.156 1.457 12.513 2.105 3.357.647 9.764 2.138 14.238 3.31 4.474 1.174 11.203 3.119 14.954 4.322 3.75 1.203 11.16 3.95 16.466 6.104 5.306 2.153 12.722 5.457 16.48 7.342 3.759 1.884 9.306 4.809 12.327 6.498 3.022 1.69 8.515 4.995 12.208 7.344 3.692 2.35 9.873 6.608 13.733 9.464 3.86 2.855 9.354 7.135 12.208 9.51 2.853 2.376 8.276 7.274 12.05 10.884 3.775 3.61 7.269 6.563 7.764 6.563.495 0 1.996-1.484 3.336-3.298 1.34-1.814 3.905-5.59 5.7-8.392a296.968 296.968 0 0 0 6.236-10.283c1.635-2.854 4.856-8.976 7.156-13.606 2.3-4.63 4.438-8.26 4.75-8.066.313.193 2.258 5.629 4.323 12.08 2.066 6.45 4.297 13.513 4.96 15.695.661 2.183 1.992 6.44 2.957 9.461.964 3.022 2.879 9.476 4.254 14.344a3452.01 3452.01 0 0 0 4.262 14.954c.969 3.357 3.13 11.46 4.801 18.006 1.672 6.547 4.003 16.023 5.179 21.058a768.162 768.162 0 0 1 3.993 18.311c1.02 5.036 2.436 12.452 3.145 16.48a999.3 999.3 0 0 1 1.831 10.682c.298 1.846 1.231 8.85 2.074 15.565.844 6.714 1.815 16.74 2.158 22.278.344 5.54.622 15.84.618 22.89-.006 7.05-.409 17.624-.9 23.499-.49 5.875-1.194 13.153-1.562 16.175-.368 3.02-1.358 9.338-2.2 14.038-.842 4.7-2.624 12.803-3.96 18.006-1.337 5.204-3.479 12.62-4.76 16.48-1.282 3.861-3.587 10.19-5.123 14.066-1.536 3.876-4.408 10.468-6.383 14.65-1.974 4.18-5.604 11.172-8.065 15.536-2.461 4.365-6.935 11.643-9.941 16.175-3.006 4.532-6.308 9.34-7.337 10.682a655.307 655.307 0 0 1-5.262 6.714c-1.865 2.35-6.467 7.739-10.228 11.975-3.76 4.236-10.28 10.941-14.49 14.9-4.21 3.96-11.436 10.214-16.057 13.898-4.621 3.684-12.248 9.224-16.948 12.311-4.7 3.087-11.429 7.275-14.954 9.305-3.525 2.03-9.176 5.076-12.559 6.768-3.382 1.692-9.04 4.311-12.574 5.82-3.533 1.51-10.346 4.152-15.14 5.872-4.793 1.72-12.534 4.207-17.202 5.526-4.668 1.32-12.529 3.206-17.469 4.193-4.94.988-11.18 2.097-13.865 2.466-2.686.369-7.218.957-10.071 1.306-2.854.35-12.742.729-21.974.842-9.232.113-18.296.106-20.142-.015zm84.632-78.063c6.767-.482 14.046-1.15 16.175-1.484 2.13-.334 6.207-.907 9.06-1.275 2.854-.368 6.974-.953 9.156-1.302 2.182-.348 4.791-.853 5.798-1.122 1.007-.268 3.48-.833 5.494-1.256 2.014-.422 6.19-1.419 9.278-2.214 3.09-.796 8.033-2.238 10.987-3.205 2.954-.967 7.98-2.776 11.169-4.021 3.19-1.245 9.25-3.987 13.467-6.093 4.217-2.106 9.985-5.278 12.817-7.048 2.833-1.77 7.073-4.662 9.423-6.425 2.35-1.764 6.607-5.26 9.46-7.77 2.854-2.509 7.263-6.862 9.8-9.672 2.535-2.811 6.269-7.308 8.297-9.994 2.028-2.686 5.057-7.08 6.73-9.766 1.674-2.686 4.581-7.767 6.461-11.292 1.88-3.525 4.687-9.515 6.237-13.311 1.55-3.796 3.645-9.427 4.653-12.513 1.009-3.085 2.638-8.632 3.62-12.324.984-3.693 2.317-9.461 2.964-12.818.647-3.357 1.46-7.89 1.808-10.071.347-2.182.917-6.44 1.268-9.461.35-3.022.956-11.072 1.348-17.89.4-6.985.53-16.177.298-21.058-.228-4.764-.676-12.781-.996-17.817-.32-5.036-.85-11.49-1.178-14.344-.327-2.853-.855-7.248-1.173-9.766a535.912 535.912 0 0 0-1.562-11.036c-.542-3.553-1.793-10.831-2.781-16.175-.988-5.344-2.225-11.776-2.748-14.294a410.021 410.021 0 0 0-1.518-7.02 3694 3694 0 0 0-1.785-7.63 663.05 663.05 0 0 0-2.224-9.155 268.114 268.114 0 0 1-1.477-6.103c-.26-1.175-1.212-4.883-2.116-8.24-.904-3.358-2.468-8.988-3.476-12.513a1110.434 1110.434 0 0 0-3.674-12.513c-1.012-3.357-3.641-11.597-5.843-18.311s-4.14-12.565-4.305-13.003c-.167-.437-.873-.712-1.57-.61-.893.13-2.269 1.983-4.67 6.288-1.872 3.357-4.88 8.283-6.685 10.947-1.805 2.664-4.357 6.234-5.672 7.935a573.12 573.12 0 0 0-4.898 6.449c-1.38 1.846-6.785 7.614-12.012 12.818-5.227 5.203-11.838 11.4-14.691 13.772-2.854 2.372-7.385 5.972-10.071 8.002-2.686 2.03-8.18 5.882-12.208 8.561-4.028 2.68-10.239 6.542-13.802 8.584-3.562 2.041-9.193 5.074-12.512 6.738-3.32 1.665-9.88 4.686-14.58 6.714-4.7 2.028-12.254 4.931-16.786 6.452-4.532 1.52-10.437 3.334-13.123 4.031-2.686.697-7.492 1.828-10.682 2.514-3.189.687-7.309 1.507-9.155 1.823-1.847.317-5.417.86-7.935 1.208-2.518.347-7.187.899-10.376 1.225-3.19.326-9.782.86-14.65 1.185-4.867.326-13.931.866-20.142 1.199-6.21.333-15.137.884-19.837 1.223-4.7.34-10.88.878-13.733 1.195-2.854.318-6.974.846-9.156 1.174-2.182.328-6.714 1.157-10.071 1.843-3.357.685-8.164 1.793-10.682 2.46-2.517.669-7.845 2.343-11.838 3.72-3.994 1.378-10.174 3.837-13.734 5.465-3.56 1.628-8.532 4.116-11.05 5.528-2.518 1.412-5.951 3.418-7.63 4.458-1.678 1.04-5.112 3.387-7.63 5.216-2.517 1.829-7.222 5.617-10.456 8.419-3.233 2.802-8.341 7.909-11.352 11.35-3.011 3.44-7.542 9.277-10.07 12.97-2.527 3.693-5.849 9.049-7.381 11.902-1.533 2.854-3.785 7.523-5.007 10.376-1.22 2.854-2.866 7.111-3.657 9.461-.79 2.35-1.965 6.333-2.611 8.85-.646 2.518-1.467 6.09-1.824 7.936a573.616 573.616 0 0 0-1.307 7.056c-.362 2.034-.658 10.047-.658 17.806 0 7.76.29 15.571.643 17.36l1.25 6.302a185.6 185.6 0 0 0 1.269 5.799c.363 1.51 1.286 4.67 2.051 7.02.766 2.349 2.375 6.428 3.577 9.065 1.201 2.636 3.196 6.48 4.433 8.545 1.236 2.064 3.962 5.97 6.058 8.68 2.096 2.71 5.387 6.368 7.314 8.129 1.927 1.76 5.04 4.23 6.918 5.487 1.878 1.257 4.99 3.161 6.915 4.231 2.667 1.482 4.25 1.945 6.644 1.945 1.728 0 4.136-.25 5.35-.557 1.214-.307 3.649-.856 5.411-1.22 1.763-.366 4.51-.948 6.104-1.295a4963.35 4963.35 0 0 0 19.074-4.292c8.896-2.013 19.06-4.354 22.584-5.201 3.525-.847 8.332-2.065 10.682-2.705a615.09 615.09 0 0 1 10.681-2.757 849.146 849.146 0 0 0 10.987-2.812c2.518-.67 5.402-1.459 6.409-1.752 1.007-.294 2.93-.84 4.272-1.213l4.273-1.188c1.007-.28 5.028-1.491 8.935-2.693 3.906-1.202 9.19-2.886 11.742-3.743 2.55-.856 6.908-2.39 9.681-3.408 2.774-1.018 7.9-2.98 11.39-4.361 3.49-1.381 11.22-4.912 17.179-7.847 5.958-2.935 13.814-7.043 17.458-9.13 3.644-2.085 9.098-5.324 12.12-7.196 3.02-1.873 8.581-5.553 12.356-8.178 3.774-2.626 10.111-7.208 14.082-10.182 3.97-2.974 10.358-8.077 14.194-11.339 3.837-3.262 10.335-9.08 14.44-12.926 4.106-3.848 11.11-11.03 15.567-15.963 4.457-4.932 9.355-10.478 10.885-12.324 1.53-1.846 4.547-5.692 6.703-8.545 2.157-2.854 6.672-9.308 10.036-14.344 3.363-5.036 8.56-13.759 11.55-19.385 2.988-5.626 5.54-10.123 5.67-9.993.13.13-.77 3.36-2 7.178-1.23 3.817-3.047 9-4.037 11.518-.99 2.518-3.276 7.874-5.08 11.903-1.805 4.028-4.972 10.483-7.037 14.344-2.066 3.86-5.848 10.452-8.406 14.649-2.557 4.196-6.256 9.93-8.218 12.742-1.963 2.812-4.709 6.658-6.102 8.545-1.393 1.888-4.726 6.18-7.406 9.536-2.68 3.357-7.072 8.576-9.759 11.598-2.687 3.02-7.783 8.47-11.325 12.108-3.542 3.638-10.01 9.829-14.374 13.756-4.364 3.928-9.995 8.804-12.513 10.835-2.518 2.031-7.974 6.22-12.125 9.31-4.152 3.09-9.92 7.171-12.818 9.07a330.11 330.11 0 0 1-10.764 6.699c-3.021 1.784-9.543 5.301-14.493 7.815-4.95 2.514-12.778 6.188-17.397 8.163-4.62 1.976-15.127 5.861-23.35 8.634-8.224 2.772-15.777 5.247-16.784 5.5-1.007.252-6.363 1.836-11.902 3.519-5.54 1.683-16.526 5.132-24.415 7.665-7.89 2.532-18.19 5.876-22.89 7.43-4.7 1.553-10.648 3.635-13.22 4.626-2.57.991-5.004 2.2-5.409 2.687-.59.71-.522.967.34 1.298.59.227 5.497-.08 10.903-.682 5.405-.602 10.652-1.186 11.66-1.296 1.006-.111 8.972-.215 17.7-.23 8.729-.017 18.617.108 21.974.275 3.357.167 11.185.593 17.395.947 6.21.353 15.412.864 20.448 1.134 5.035.27 20.417.527 34.18.57 16.43.052 29.252-.222 37.33-.798z"/>
</svg>
