<svg xmlns="http://www.w3.org/2000/svg" viewBox="0 0 100 100" version="1.0">
    <path fill="#82bf46" d="M47.593 24.414c-2.495.002-4.808.059-5.897.18-6.602.73-12.4 2.487-18.849 5.707-10.394 5.19-16.92 11.063-20.606 18.55-1.65 3.351-2.221 5.7-2.24 9.211-.013 2.222.15 3.4.724 5.207 2.067 6.51 7.958 11.154 14.784 11.661 6.605.491 11.513-2.123 13.706-7.297.795-1.875 1.034-3.504.812-5.557-.542-5.02-3.79-8.838-8.587-10.101-1.47-.387-3.73-.399-5.173-.004-3.953 1.082-6.83 4.646-5.772 9.045.898 3.732 5.258 6.07 8.946 4.59 1.472-.592 2.33-1.308 1.903-2.88-.435-1.6-1.51-1.979-3.569-1.401-.81.227-1.384.081-1.99-.468-1.018-.92-1.002-2.328.041-3.333 1.27-1.223 3.59-1.326 5.71-.25 2.097 1.064 3.63 4.078 3.298 6.487-.355 2.587-1.84 4.372-4.327 5.203-.83.277-1.174.31-3.132.304-2.1-.007-2.256-.026-3.437-.423-4.43-1.488-7.356-5.523-7.383-10.184-.017-2.943 1.028-5.319 3.348-7.61 2.181-2.153 5-3.205 8.587-3.204 4.46.002 8.164 1.561 11.407 4.807 2.44 2.442 4.283 5.753 4.993 8.961l.225 1.018 6.405 3.142c.052-.047.037-.478-.033-.772-.262-1.11-.303-4.2-.075-5.507.333-1.9.782-2.89 1.74-3.838 1.48-1.462 3.304-2.092 6.073-2.095 3.683-.003 6.808 1.346 9.603 4.151.627.63 1.994 2.12 3.04 3.313s2.062 2.282 2.258 2.42c.55.387 8.015 3.806 8.108 3.713.045-.045-.22-.52-.591-1.06-1.455-2.108-2.689-4.824-3.161-6.955-.323-1.457-.235-3.609.191-4.589.4-.918 1.25-1.693 2.15-1.96.963-.287 3.066-.27 5.888.05 3.385.382 5.256.456 7.488.287 5.083-.384 8.41-1.22 12.136-3.041 1.947-.952 2.36-1.32 2.782-2.458.401-1.085.592-2.123.387-2.123-.072 0-.756.294-1.52.655-2.867 1.354-5.328 1.956-7.513 1.84-2.271-.122-5.992-1.37-10.407-3.492l-2.011-.968-1.641-3.93 1.532.955c2.521 1.674 6.598 3.678 9.083 4.464 3.796 1.2 6.817 1.044 9.874-.513 1.078-.549 3.099-1.936 3.099-2.128 0-.361-1.081-3.875-1.683-5.47-1.505-3.988-2.53-5.317-5.01-6.5-2.753-1.313-5.787-2.254-11.366-3.526-2.667-.566-5.347-1.114-8.054-1.451l-.066 3.304c-6.306-1.961-11.824-3.258-17.933-3.889-1.579-.163-5.088-.252-8.296-.25zm41.783 6.767c2.037-.005 3.981 1.042 5.118 2.937 1.94 3.232.35 7.43-3.277 8.653-2.394.808-5.244-.157-6.693-2.265-1.188-1.73-1.388-3.964-.525-5.837.491-1.064 1.658-2.323 2.607-2.808a6.121 6.121 0 0 1 2.77-.68zm-.067 1.727c-.954.02-1.927.375-2.748 1.119-1.254 1.134-1.657 3.186-.933 4.752.594 1.285 1.719 2.172 3.032 2.386 1.861.304 3.625-.564 4.397-2.17.53-1.098.623-1.851.359-2.886-.526-2.055-2.284-3.24-4.107-3.2zm.975 2.124c.708 0 1.56.442 1.666.868.144.578-.051.977-.613 1.264-.866.443-1.98.318-2.632-.296-.803-.757.124-1.836 1.579-1.836z"/>
</svg>
