<svg xmlns="http://www.w3.org/2000/svg" width="100" height="100" viewBox="0 0 100 100">
    <path d="M98.995 98.605H50.642c-.027 0-.053.004-.08.004s-.053-.004-.08-.004H2.124V50.249c0-.028-.004-.054-.004-.082 0-7.833 6.355-14.188 14.188-14.188-5.537-5.541-5.537-14.525 0-20.066 5.541-5.537 14.525-5.537 20.066 0 0-7.833 6.355-14.188 14.188-14.188S64.75 8.08 64.75 15.913c5.542-5.537 14.525-5.537 20.066 0 5.537 5.541 5.537 14.525 0 20.066C92.649 35.979 99 42.334 99 50.167c0 .033-.005.066-.005.099v48.339zm-6.506-48.356c0-.028.004-.054.004-.082 0-4.239-3.438-7.681-7.677-7.681a7.66 7.66 0 0 0-5.433 2.252H63.672l11.111-11.111a7.678 7.678 0 0 0 5.429-13.11 7.678 7.678 0 0 0-10.862 0 7.655 7.655 0 0 0-2.248 5.429L55.991 37.057V21.346a7.658 7.658 0 0 0 2.252-5.433c0-4.239-3.442-7.677-7.681-7.677s-7.681 3.438-7.681 7.677a7.66 7.66 0 0 0 2.252 5.433v15.711L34.022 25.946a7.678 7.678 0 0 0-13.11-5.429 7.678 7.678 0 0 0 0 10.862 7.655 7.655 0 0 0 5.429 2.248l11.111 11.111H21.741a7.654 7.654 0 0 0-5.433-2.252c-4.239 0-7.677 3.442-7.677 7.681 0 .028.004.054.004.082h83.854zm-36.774 3.179l-5.237 25.299-5.241-25.299h-7.413l8.948 43.194h7.412l8.943-43.194h-7.412zM75.78 71.319v7.412h5.24v5.241a5.24 5.24 0 0 1-10.478-.004v-17.89a5.24 5.24 0 0 1 10.478 0h7.413c0-6.983-5.665-12.649-12.653-12.649-6.987 0-12.653 5.665-12.653 12.649h.004v17.89c0 6.987 5.665 12.653 12.653 12.653 6.983 0 12.649-5.665 12.649-12.653V71.319H75.78zm-59.552 3.706a12.625 12.625 0 0 0 8.947 3.706 5.24 5.24 0 0 1 3.706 1.535 5.24 5.24 0 1 1-8.947 3.702h-7.413c0 6.987 5.665 12.653 12.653 12.653 6.983 0 12.649-5.665 12.649-12.653 0-3.49-1.414-6.655-3.706-8.943a12.592 12.592 0 0 0-8.943-3.706v-.004a5.223 5.223 0 0 1-3.706-1.535h-.004a5.243 5.243 0 0 1 3.71-8.943 5.243 5.243 0 0 1 5.241 5.241h7.409c0-6.987-5.665-12.649-12.649-12.649-6.987 0-12.653 5.661-12.653 12.649 0 3.494 1.418 6.655 3.706 8.947z"/>
</svg>
