<svg baseProfile="basic" xmlns="http://www.w3.org/2000/svg" width="100" height="100" viewBox="0 0 100 100">
    <path d="M96.823 49.495c0 25.975-21.055 47.032-47.03 47.032-25.973 0-47.027-21.057-47.027-47.032 0-25.971 21.054-47.026 47.027-47.026 25.974.001 47.03 21.055 47.03 47.026z"/>
    <path fill="#FFF" d="M70.356 19.87c-4.777.164-8.947 2.801-12.053 6.44-3.438 3.996-5.722 8.73-7.372 13.568-2.947-2.417-5.218-5.544-9.949-6.904-3.655-1.051-7.493-.618-11.024 2.012-1.67 1.249-2.823 3.135-3.371 4.913-1.419 4.61 1.491 8.718 2.813 10.189l2.891 3.095c.595.608 2.031 2.191 1.328 4.46-.755 2.471-3.732 4.067-6.786 3.129-1.364-.418-3.323-1.434-2.884-2.862.18-.586.6-1.027.825-1.527.205-.437.304-.761.367-.956.558-1.819-.205-4.188-2.155-4.791-1.821-.558-3.682-.116-4.404 2.226-.819 2.662.455 7.493 7.28 9.594 7.996 2.461 14.756-1.894 15.716-7.569.605-3.555-1.002-6.199-3.942-9.594l-2.397-2.652c-1.451-1.45-1.949-3.922-.447-5.821 1.268-1.603 3.072-2.286 6.03-1.483 4.319 1.171 6.241 4.167 9.451 6.584-1.323 4.35-2.191 8.714-2.974 12.628l-.481 2.919c-2.294 12.035-4.047 18.645-8.6 22.44-.917.653-2.229 1.629-4.205 1.7-1.038.031-1.373-.683-1.387-.995-.023-.725.59-1.06.996-1.385.61-.332 1.53-.883 1.466-2.646-.065-2.083-1.792-3.89-4.286-3.808-1.869.063-4.717 1.821-4.61 5.041.11 3.327 3.209 5.818 7.883 5.66 2.498-.086 8.078-1.1 13.575-7.635 6.399-7.493 8.189-16.079 9.536-22.365l1.504-8.299c.832.1 1.727.168 2.698.191 7.97.169 11.955-3.958 12.015-6.962.041-1.817-1.191-3.607-2.917-3.565-1.234.034-2.784.857-3.155 2.563-.366 1.673 2.535 3.185.268 4.657-1.61 1.041-4.496 1.774-8.561 1.18l.739-4.085c1.509-7.747 3.369-17.274 10.428-17.507.516-.024 2.396.022 2.44 1.268.012.413-.091.522-.578 1.473-.496.741-.683 1.375-.658 2.1.067 1.976 1.571 3.277 3.749 3.202 2.912-.097 3.748-2.932 3.7-4.388-.121-3.427-3.73-5.591-8.502-5.433z"/>
</svg>
