<svg xmlns="http://www.w3.org/2000/svg" viewBox="0 0 100 100">
    <path d="M46.928 45.812l-8.571-5.75 5.749-2.612zm-8.049.522l-6.376-3.24 3.345-1.986zm-8.467 4.077l-4.39-3.031 2.927-2.196zm42.543 12.961l4.808-2.195-2.09-1.986zm2.614 3.972l6.063-1.568L79.959 64zm-3.032-41.602l2.09-7.212-5.33.104zM58.008 31.7l-4.6.314-.522-3.032zm-.732 4.077l-2.613.732-.523-1.986zm29.268-3.031l3.45.523.731-2.3zm-.731 4.285l2.613.94.627-1.881zm-34.61 6.904h10.088v1.245H51.203zm0-2.989h10.088v1.246H51.203zm30.804 2.989h10.088v1.245H82.007zm0-2.989h10.088v1.246H82.007z"/>
    <path d="M78.452 33.563h-16.44v-1.12h5.116c.63-2.698.754-5.276-.005-6.583-.325-.556-.773-.815-1.413-.815-2.924 0-4.133 3.092-4.183 3.224l-1.049-.395c.06-.161 1.524-3.95 5.232-3.95 1.035 0 1.859.475 2.38 1.372.927 1.592.818 4.345.19 7.146h8.977c1.193-3.504 3.683-5.156 7.843-5.156v1.121c-4.51 0-5.772 1.912-6.675 4.035h4.898l-.01 1.115-4.862.006z"/>
    <path d="M79.188 39.098l.007-.001c-1.33-1.96-1.75-3.634-1.195-5.54l-1.142.005c-.397 1.27-.238 3.18.742 4.82H66.195c.694-1.39 1.337-3.084 1.807-4.82h-1.16c-.519 1.84-1.247 3.662-2.066 5.104l-.265.466 6.401 4.03-3.603 2.374.617.936 4.027-2.655 4.348 2.837.597-.948-4.031-2.494s6.028-3.916 6.327-4.107l-.005-.007zm-7.25 3.386l-4.734-2.981 9.252.002-4.518 2.979z"/>
    <path d="M92.512 21.653c-.007-1.949-.614-10.186-1.73-12.454-3.024 1.15-8.529 4.874-9.775 8.682-5.97-.891-12.7-.786-18.596.235-.985-4.098-5.928-7.234-9.658-9-1.573 2.654-2.27 8.81-2.093 13.176l-.02.014c.691 18.335 9.685 29.75 21.447 36.669 12.101-6.915 20.745-20.394 20.411-37.33l.015.008zm-10.069-3.535l.132.024a12.485 12.485 0 0 0-.132-.024zm-.753-.13l.32.054-.32-.054zm8.94 4.988c.312 15.256-7.472 27.398-18.37 33.625-18.494-9.216-21.978-32.56-18.824-45.083.877 4.787 2.47 7.79 5.917 9.263 7.508-2.15 17.844-2.32 25.458-.22 3.173-2.306 4.403-5.83 5.075-8.909.84 3.583.742 11.322.745 11.323z"/>
    <path d="M98.517 75.757c-1.899-2.125-5.62-3.13-8.728-3.056-2.205-2.625-14.992-16.091-14.992-16.091l-.886 1.116 15.437 16.62.67-.057c4.194-.36 6.578 1.915 7.21 2.62.462.518.742.99.894 1.361h-8.485C70.177 68.117 53.09 60.956 34.94 59.393c.04-2.526.49-5.385 1.352-8.571l-1.67-.452c-.886 3.275-1.354 6.24-1.407 8.891a86.334 86.334 0 0 0-5.714-.19 23.35 23.35 0 0 0-4.465.414 61.512 61.512 0 0 1-4.544-5.039c8.432-8.782 22.351-16.72 34.414-19.638l-.39-1.69C39.527 36.25 25.31 44.778 17.388 53.013c-3.676-4.962-5.135-9.034-5.568-12.12-.548-3.897.383-7.472 2.69-10.339 3.612-4.487 8.744-4.803 14.02-3.915-.102.833.008 1.63.341 2.122 1.396 2.061 8.896 2.786 13.373.788-3.304-4.63-9.996-6.89-11.85-5.984-.614.3-1.078.85-1.395 1.493-1.824-.326-3.635-.569-4.96-.559-4.653.034-8.211 1.66-10.876 4.971-2.614 3.248-3.67 7.282-3.055 11.665.582 4.151 2.638 8.566 6.082 13.145-.572.614-1.125 1.22-1.657 1.815C6.136 65.487-.001 75.561-.001 77.23v.865h11.076l-.194-1.025c-.626-3.306.623-7.438 3.182-10.526 1.607-1.94 4.267-4.152 8.444-5.173 3.714 3.625 8.447 7.475 13.714 11.19h8.23v-.866c0-.976-.483-1.83-1.362-2.405-1.3-.85-3.307-.967-5.151-.338-1.758-1.958-2.743-4.573-2.956-7.821 17.864 1.583 34.95 8.797 54.23 18.868H99.82l.139-.695c.2-.99-.342-2.316-1.443-3.548zM12.733 65.442c-2.62 3.162-4.009 7.339-3.69 10.926H2.064c1.402-3.034 6.986-11.805 15.238-20.664a62.85 62.85 0 0 0 3.794 4.256c-4.051 1.218-6.707 3.483-8.364 5.483z"/>
</svg>
