<svg xmlns="http://www.w3.org/2000/svg" height="100" width="96.45" viewBox="0 0 96.45 100">
    <path opacity=".2" d="M77.469 0a9.868 9.868 0 0 0-9.875 9.875c0 .134-.006.273 0 .406-.006.133 0 .272 0 .407 0 .127-.005.248 0 .374-.006.133 0 .272 0 .407 0 .138-.006.269 0 .406-.005.127 0 .247 0 .375 0 5.456 4.414 9.875 9.875 9.875s9.875-4.419 9.875-9.875c0-.128.005-.248 0-.375.005-.137 0-.268 0-.406 0-.135.005-.274 0-.407.005-.126 0-.247 0-.374 0-.135.005-.274 0-.407.005-.133 0-.272 0-.406A9.868 9.868 0 0 0 77.469 0zM56.594 7.75c-6.096 0-12.255 1.504-17.813 4.25a.806.806 0 0 0-.406.5.778.778 0 0 0 .094.625c-.03.053-.077.096-.094.156a.778.778 0 0 0 .094.625c-.033.056-.076.124-.094.188a.778.778 0 0 0 .094.625c-.03.053-.077.096-.094.156a.778.778 0 0 0 .094.625l8 12.688c.203.322.617.46.969.312 2.967-1.255 6.044-1.906 9.156-1.906 11.445 0 21.424 8.497 23.218 19.75.061.378.4.656.782.656l15.062.031c.22 0 .446-.118.594-.281s.208-.374.188-.594c-.015-.146-.047-.291-.063-.437a.737.737 0 0 0 .063-.344c-.015-.147-.047-.291-.063-.437a.737.737 0 0 0 .063-.344c-.015-.147-.047-.291-.063-.438a.868.868 0 0 0 .063-.375c-.813-8.349-4.36-16.383-10-22.656a.774.774 0 0 0-1-.125 13.74 13.74 0 0 1-7.469 2.219c-7.615 0-13.812-6.151-13.813-13.719v-.281c0-.377-.251-.717-.625-.781-2.381-.413-4.718-.688-6.937-.688zM32.719 16a.815.815 0 0 0-.625.156c-6.536 5.034-11.457 12.11-13.844 19.938a.825.825 0 0 0 .062.594c-.022.071-.04.147-.062.218a.744.744 0 0 0 .062.563c-.022.071-.04.147-.062.219a.776.776 0 0 0 .062.562c-.022.072-.04.147-.062.219a.797.797 0 0 0 .281.843c2.983 2.363 4.866 5.891 5.188 9.594-.353 3.658-2.237 7.133-5.188 9.469a.8.8 0 0 0-.281.844c.022.073.04.146.062.219a.775.775 0 0 0-.062.562c.022.073.04.146.062.219a.776.776 0 0 0-.062.562c.022.073.04.146.062.219a.742.742 0 0 0-.062.562c2.368 7.762 7.232 14.821 13.688 19.844a.807.807 0 0 0 .624.156.725.725 0 0 0 .5-.343l8.094-12.688c.158-.249.139-.537 0-.781.158-.249.139-.537 0-.781a.765.765 0 0 0 0-.813.776.776 0 0 0-.156-1c-4.781-4.207-7.631-10.113-7.938-16.375.342-6.26 3.232-12.163 8.032-16.343.281-.246.311-.648.125-.969a.795.795 0 0 0 0-.813.749.749 0 0 0 0-.781.76.76 0 0 0 0-.813l-8-12.718a.726.726 0 0 0-.5-.344zM10.125 37.719C4.535 37.719 0 42.258 0 47.844c0 .137.026.27.031.406-.004.126-.031.248-.031.375s.027.249.031.375c-.005.136-.031.269-.031.406 0 .134.026.274.031.406-.005.137-.031.269-.031.407 0 5.585 4.535 10.093 10.125 10.093S20.25 55.804 20.25 50.219c0-.138-.026-.27-.031-.407.005-.132.031-.272.031-.406 0-.137-.026-.27-.031-.406.004-.126.031-.248.031-.375s-.027-.249-.031-.375c.005-.136.031-.269.031-.406 0-5.586-4.535-10.125-10.125-10.125zm85.531 13.062l-15.094.031a.766.766 0 0 0-.75.657c-1.818 11.169-11.805 19.593-23.218 19.593-3.148 0-6.281-.652-9.282-1.937a.794.794 0 0 0-.968.313l-8.063 12.656a.777.777 0 0 0-.093.625c.016.06.063.103.093.156a.777.777 0 0 0-.093.625c.019.069.057.127.093.188a.775.775 0 0 0-.093.624c.016.06.063.103.093.157a.746.746 0 0 0 .313 1.093c5.6 2.804 11.834 4.313 18 4.313 2.287 0 4.652-.229 7.062-.656a.811.811 0 0 0 .656-.688c.804-6.936 6.675-12.156 13.657-12.156 2.164 0 4.373.55 6.375 1.594a.765.765 0 0 0 .906-.157C91.562 71.375 95.543 62.922 96.438 54c.011-.109-.029-.21-.063-.312.018-.158.047-.311.063-.469.011-.11-.029-.21-.063-.313.018-.157.047-.311.063-.468a.9.9 0 0 0-.063-.344c.017-.155.047-.314.063-.469a.782.782 0 0 0-.219-.594.741.741 0 0 0-.563-.25zM77.844 77.5c-5.59 0-10.125 4.506-10.125 10.062 0 .137.026.271.031.407-.005.129-.031.244-.031.375 0 .137.026.27.031.406-.005.136-.031.269-.031.406s.026.271.031.406c-.005.126-.031.249-.031.376 0 5.556 4.534 10.062 10.125 10.062 5.589 0 10.125-4.505 10.125-10.062 0-.127.004-.25 0-.376.005-.135 0-.269 0-.406 0-.136.005-.271 0-.406.005-.135 0-.27 0-.406 0-.13.005-.246 0-.375.005-.136 0-.27 0-.407 0-5.556-4.536-10.062-10.125-10.062z" fill-rule="evenodd" fill="#141414"/>
</svg>
