<svg xmlns="http://www.w3.org/2000/svg" viewBox="0 0 100 100">
    <path d="M93.805 37a6.179 6.179 0 0 1-4.381-1.814c-21.74-21.74-57.111-21.738-78.849 0a6.195 6.195 0 0 1-8.761-8.761c26.569-26.568 69.801-26.569 96.371 0A6.195 6.195 0 0 1 93.805 37z"/>
    <path d="M19.337 50.142a6.195 6.195 0 0 1-4.38-10.575C24.317 30.206 36.763 25.051 50 25.051c13.238 0 25.684 5.156 35.044 14.516a6.195 6.195 0 0 1-8.761 8.761C69.262 41.307 59.928 37.441 50 37.441s-19.262 3.866-26.282 10.887a6.18 6.18 0 0 1-4.381 1.814z"/>
    <path d="M67.522 63.284a6.179 6.179 0 0 1-4.381-1.814c-7.246-7.247-19.036-7.247-26.282 0a6.195 6.195 0 0 1-8.761-8.761c12.078-12.077 31.727-12.077 43.805 0a6.195 6.195 0 0 1-4.381 10.575z"/>
    <path d="M50 87c-3.309 0-6.42-1.289-8.761-3.628-4.831-4.832-4.831-12.691-.001-17.522 2.34-2.34 5.452-3.629 8.762-3.629s6.421 1.289 8.761 3.628c4.83 4.832 4.83 12.691 0 17.522A12.312 12.312 0 0 1 50 87z"/>
</svg>
