<svg baseProfile="basic" xmlns="http://www.w3.org/2000/svg" width="100" height="100" viewBox="0 0 100 100">
    <path d="M49.906 1.104C31.028 1.071 13.26 12.265 5.105 29.984l22.929.055v2.508c-7.06-.85-6.439 2.817-5.439 6.708l15.052 37.723L48.71 51.044l-5.079-12.153c-1.845-3.255-1.884-6.867-9.431-6.526l.106-2.311 33.629.082v2.589c-3.938.231-8.679-.99-6.166 7.075L75.37 75.527l7.435-20.857c2.435-8.743.143-17.146-2.75-25.385-1.609-5.527-.859-10.144 6.354-11.975C75.4 6.072 62.41 1.125 49.906 1.104zm45.737 32.983L73.84 90.918c6.021-5.215 12.195-7.113 19.749-21.542 5.027-12.002 4.509-23.12 2.054-35.289zm-92.846.921C.669 51.785.864 56.699 6.132 70.399c6.867 13.122 12.191 15.886 19.749 21.033L2.797 35.008zm47.96 21.288L34.6 95.279c11.341 3.237 21.489 2.832 30.779-.769L50.757 56.296z"/>
</svg>
